<?xml version="1.0" encoding="utf-8"?>
<!-- Generator: Adobe Illustrator 25.2.3, SVG Export Plug-In . SVG Version: 6.00 Build 0)  -->
<svg version="1.1" id="Layer_1" xmlns="http://www.w3.org/2000/svg" xmlns:xlink="http://www.w3.org/1999/xlink" x="0px" y="0px"
	 viewBox="0 0 212 300" style="enable-background:new 0 0 212 300;" xml:space="preserve">
<style type="text/css">
	.st0{fill:url(#SVGID_1_);}
	.st1{fill:#50000D;}
	.st2{fill:#00A99B;}
	.st3{opacity:0.28;fill:#00A99B;enable-background:new    ;}
	.st4{fill:#FFF2EB;}
</style>
<g>
	<g>
		<g>
			
				<linearGradient id="SVGID_1_" gradientUnits="userSpaceOnUse" x1="183.5089" y1="6.3289" x2="257.0233" y2="6.3289" gradientTransform="matrix(-0.9998 -1.938885e-02 1.938885e-02 -0.9998 295.7267 305.263)">
				<stop  offset="3.714686e-07" style="stop-color:#FFFFFF;stop-opacity:0"/>
				<stop  offset="1" style="stop-color:#000000"/>
			</linearGradient>
			<path class="st0" d="M38.9,292.8c0,1.6,1.1,4.5,10.7,6.1c7.1,1.2,19.1,1.6,37.8,0.3c13.9-1,24.9-2.3,25-5s-18.6-4.7-32.5-5
				S38.9,290,38.9,292.8z"/>
		</g>
	</g>
	<path class="st1" d="M115.3,85.4c-3.2,9.7-10.2,26.3-16.9,45.2c-0.2,0.5-0.4,1-0.5,1.6c-1.2,3.3-2.3,6.6-3.6,10.1
		c-0.2,0.5-0.3,1-0.5,1.5c-3.2,9-6.5,18.7-9.9,29c-0.2,0.5-0.3,1.1-0.5,1.6c-0.5,1.5-1,3-1.5,4.6c-0.1,0.3-0.2,0.7-0.3,1
		c-3.1,9.8-6.2,20.2-8.8,31c0,0.1,0,0.1-0.1,0.2c-0.2,0.8-0.4,1.7-0.6,2.5c-0.2,0.7-0.3,1.5-0.5,2.2l0,0c-0.2,0.9-0.4,1.7-0.6,2.6
		c-2.1,9.3-3.7,17.7-4.8,25.6c-0.1,0.7-0.2,1.4-0.3,2.2c0,0.4-0.1,0.7-0.1,1.1c-0.1,0.6-0.1,1.2-0.2,1.7
		c-1.9,16.9-1.1,33.1,0.9,44.4c1.4,7.6-28.5,8.7-27.8-1.8c-0.4-11.6,0.8-25.5,4.6-42.3c0.1-0.5,0.2-1,0.4-1.5
		c0.1-0.4,0.2-0.7,0.3-1.1c0.2-0.7,0.4-1.5,0.5-2.3c0.2-0.8,0.4-1.5,0.6-2.3c1.9-7.3,4.2-15,7.1-23.1c0.4-1.2,0.9-2.5,1.3-3.7
		c0.2-0.5,0.4-1.1,0.6-1.6c0.6-1.5,1.1-3.1,1.7-4.6c0.1-0.3,0.2-0.6,0.3-0.8c3.9-10.3,8.1-20.1,12.2-29.4c0.1-0.3,0.3-0.7,0.4-1
		c0.7-1.5,1.3-3,2-4.5c0.2-0.4,0.4-0.8,0.5-1.2c4.9-10.8,9.6-21,14-30.3c0.2-0.5,0.5-1,0.7-1.5c1.6-3.5,3.2-6.9,4.7-10.1
		c0.2-0.4,0.4-0.8,0.6-1.2c5.7-12.3,10.5-22.7,14.2-31c1.8-4.1,4.4-11.9,5.7-14.9C112.2,82.9,114.2,85.5,115.3,85.4z"/>
	<g>
		<path class="st2" d="M96.4,126.7c0.8-0.9,1.9-2.1,3.3-3.6c8.7-9.3,12.8-10.8,15.3-15.1c4.2-7.8-1.1-19.3-4.6-23
			c-0.9-0.9-2.3-0.9-2.7-0.8c-1,0.3,0.4,5.4-2,11.3c-0.9,2.1-1.9,3.9-3,5.3c-0.5,0.7-0.5,2,0,2c2.2,0.2,4.3,0.4,6.5,0.6
			c-2.5,0.5-5,1-7.4,1.4c-0.4,0.1-1.7,1.3-1.8,1.9c-0.6,2.1-1.4,4.3-2,6.4c-0.3,1,0.5,2.7,1.2,2.5c2.1-0.5,4.2-1,6.2-1.5
			c-2.3,1.1-4.6,2.1-7,3c-0.6,0.2-1.5,1.7-1.4,2.4c0.1,0.6,0.2,1.4,0.1,2.2C97.2,123.6,96.8,125.4,96.4,126.7z"/>
		<path class="st2" d="M144.4,43.7c-1.2,0.7-3.1,1.8-4.9,3.7c-0.7,0.7-1.2,1.4-1.6,2c-0.4,0.6-1,2.7-2.9,2.4
			c-1.8-0.3-3.2,1.2-3.2,1.2s0.5,0,2.4,0s0.9,2.1,0.3,3.2c-0.8,1.7-1.8,3.5-2.7,5.2c-0.5,2-3.3,2.6-3.3,2.6l-4.7,0.1l2.8,1.1
			c0,0,2.5,1.1,0.8,3.1c-2.3,2.7-5.2,6.4-7.9,10.8c-2.9,4.7-3.3,6.4-4.2,6.4c-2.6,0.1-5.9-16.9,3.9-28.3c1.4-1.6,4.4-5.6,10-8.9
			C135.7,44.4,141.8,43.8,144.4,43.7z"/>
		<path class="st2" d="M209.7,130.8c-1.1-1.7-2.9-4.1-5.6-6.4c-0.8-0.7-1.7-1.4-2.7-2.1c-1.6-1.1-4.8-2.7-6.3-3.4
			c-2.8-0.9-3.6-4-3.6-4l-2.4-6.1l-0.4,4.3c0,0-0.9,3.5-4.3,2.7c-5.9-1.7-12.3-3.8-18.2-5.8c-3.8-1.1-3.5-6.2-3.5-6.2l0.5-7.9
			l-6.2,10.9c-6.6-4.3-16.7-10.3-29.9-15.7c-11-4.5-15.3-4.9-15.2-6.5c0.1-1.1,2.1-2.4,5.5-3.6c12.4-4.6,43.2-8.2,63.9,4.5
			c3.8,2.3,13.2,7.1,20.2,17.2c1.8,2.5,3.1,5,4.3,7.5c1.7,3.7,2.7,7.2,3.3,10.4C209.7,124.9,209.7,128.5,209.7,130.8z"/>
		<path class="st2" d="M111.7,84.6c-0.7,1.7-3.4-0.1-15.7-2.5c-11-2.1-21.5-0.8-29-0.9c-2.5,0-6.9-1.7-7-5S59.6,66,59.6,66
			s-1.8,8.1-4.4,11.5c-1.5,2-2.4,1.7-4.5,1.1c-5.8-1.6-17.2-5.1-22.8-6.9c-1.4-0.5-1.2-1.7-0.4-3c1.7-2.7,2.3-6,2.3-6
			s-3.3,2.1-5,4.7c-1.2,1.4-1,2-3,1.9c-1.7-0.2-7.7-0.6-9.7-0.5C6.7,69.2,2.7,71,0.4,72.4c2.2-5.2,8-16.8,21-23.6c0,0,0,0,0.1,0
			c11.3-5.9,22.1-4.9,26.7-4.9c23.5,0,48.4,20.7,58.9,33.7C110.8,82.1,112.3,83.3,111.7,84.6z"/>
		<path class="st2" d="M122.2,31.4c-0.2,1.2-0.4,2.4-0.6,3.5c-2.9,13.8-10.9,22.9-9.6,40c0.1,1.1,0.9,1.9,1,2.8
			c0.2,1.3,3.2,3.5,3.4,4.6c0.4,2-2.8,2.5-2.9,3.3c0,0.3-0.1,0.5-0.3,0.6c-1.9,0.9-12.2-19.7-20.4-36.1c-1.3-2.6,0.5-2.6,2.9-2.4
			c6.3,0.6,9.5,1.1,9.5,1.1l-10.7-6.2c0,0-2.1-1.2-1-4.2c1.7-5.2,4.4-13.2,6.3-18.2c0.7-1.9,3-4.9,5.8-3.3s4.4,2.4,4.4,2.4
			s-1-1.9-3.9-5.4s-0.6-6.4,0.7-7.7c3.9-3.9,9.1-6.1,9.1-6.1c1.1,2.1,2,4.2,2.8,6.2c0.9,2.2,1.6,4.4,2.1,6.4
			C122.9,20.3,122.8,26.7,122.2,31.4z"/>
		<path class="st2" d="M122.5,31.3c-0.2,1.2-0.4,2.4-0.6,3.5c-2.9,13.8-10.9,22.9-9.6,40c0.1,1.1,0.2,2.1,0.3,3
			c-1.4-2.7-3.3-6.1-5.7-10.1c-5.8-9.4-9.5-12.8-7.9-15.1c2.1-3,10.9-0.6,11.6-2.5c0.7-2.3-11-5.4-11.3-11.1
			c-0.1-2.9,2.9-3.2,4.4-8.3c1.3-4.6-0.4-7.1,1.4-8.4c2.7-1.9,7.8,2,9.6,0.5c2.5-2.2-5.7-11.1-2.9-13.9c1.2-1.3,4.1-0.8,6.4-0.2
			c0.9,1.3,2,2.6,3,4C123.2,20.1,123.2,26.5,122.5,31.3z"/>
		<path class="st2" d="M107,78.2c-2.4,0-8.1-3.3-17-4.1c-18.4-1.7-19.8,0.5-22.2-1.6c-5.8-5.2-4.5-13.5-7-13.7
			C58.1,58.6,57.3,69,51,70.3c-1.8,0.4-3.6-0.1-6.2-0.9c-2.2-0.6-5.9-1.7-8.1-4.2c-3.5-4-0.2-8.5-2.6-10.3
			c-4.1-3.1-17.9,7.9-19.3,6.6c-0.8-0.8,1.7-6.2,6.6-12.1c0,0,0,0,0.1,0c11.3-5.9,22.1-4.9,26.7-4.9c6.7,0,13.5,1.7,20,4.4l0,0
			c7.5,3.1,14.7,7.5,21,12.3C96.6,66.9,102.9,73.1,107,78.2z"/>
		<path class="st2" d="M210.9,77.5c-1.8,1.6-4.5,3.5-7.7,4.7c-3.6,1.3-7.1-1.9-7.1-1.9l-6.6-6.5l2.6,6.1c0,0,0.3,3.4-3.6,3.3
			c-9.1-0.1-19.4-0.6-28.3-1.1l-6.6-14.6c-0.1,4.7-0.3,9.5-0.4,14.2c-5.6-1.3-12.7-2.4-20.4-1.7c-13.6,1.2-19.6,6.8-20.4,5.8
			c-0.2-0.2,0-0.8,0.5-1.7c4.9-8.6,41-44,64.1-33.1c4.3,2,13.7,8.3,20.8,13.1c4.5,3.1,8.1,5.6,8.7,6.1c1,0.7,1.9,1.4,2.8,2
			C210.7,73.5,212.8,76.2,210.9,77.5z"/>
		<path class="st2" d="M197.4,72.3c-3,1.6-11.2-7.2-13.7-5.7c-1.8,1.1,2.3,6.5-0.3,9.4c-2.3,2.4-8.1,1.6-10.9,1.2
			c-1.3-0.2-3.7-0.6-6.3-1.8c-8.8-4-9.1-12.3-13.4-12.6c-3.9-0.3-3.8,6.7-11.4,10.7c-6.5,3.4-10.8,0.6-18.9,4.1
			c-4.8,2-7.9,5-9.9,7.2c3.3-5.9,21.2-24.2,39.5-31.8c1.9-0.8,3.7-1.4,5.6-2c0.8-0.2,1.7-0.4,2.5-0.6c1.2-0.3,2.4-0.5,3.5-0.6
			c4.5-0.5,8.9,0,12.9,1.9c4.3,2,13.7,8.3,20.8,13.1C198.5,68.3,198.9,71.5,197.4,72.3z"/>
		<path class="st3" d="M89.1,61.2c-2.3-1.1-5.2-2.4-8.7-3.9c-13.4-5.8-20.1-8.6-28.9-9.6c-12.9-1.4-22.6,1.7-22.7,1.6
			c0-0.1,11.7-4.1,25.8-3c4.7,0.4,9.3,1.3,13.5,2.6l0,0C75.6,52,82.8,56.4,89.1,61.2z"/>
		<path class="st2" d="M205.5,110.8c-1.3,1.6-2.8,2.5-4.1,2.5c-5-0.1-8.3-13.4-11.6-12.8c-2.7,0.5-1.4,9.5-5.7,10.7
			c-1.3,0.3-2-0.3-8-2.4s-6-1.7-7.1-2.3c-7.1-4.2-3.2-19.8-4.8-20.1c-1.4-0.2-2.4,11.9-8.3,12.9c-16.2-17.9-31.2-16.7-38.7-17.5
			c12.4-4.6,43.2-8.2,63.9,4.5c3.8,2.3,13.2,7.1,20.2,17.2C203,105.8,204.4,108.3,205.5,110.8z"/>
		<path class="st2" d="M92.4,96.7C92.4,96.7,92.3,96.7,92.4,96.7c-6.6,4.9-10.7,5.3-13.5,9.2c-3.3-5.3-6.9-5.8-10.2-11.2
			c1.6,6.3,0.1,10.5,1.7,16.7c-5,2.7-7.9,3.6-12.6,7c-2.6,1.9-6,1.7-6.8,0.5c-1.2-5.3-4.7-6-5.3-9.7c-0.6,6.4-7.9,19.2-12.2,20
			c-5.2,1,2.1-7.1-0.9-5.8c1.6-1.9-7.7,5.2-5.1,1.7c7.9-10.3,11.8-17.8,14.6-23.6c3.1-6.3,4.8-10.8,9.1-14.7
			c18.4-17.1,62.9-7.3,63.4-2.4C114.9,86.8,104.8,87.4,92.4,96.7z"/>
		<path class="st2" d="M110.1,86.5c-13,5.3-22.2,13.3-27.4,18.8c-1.9,2.1-5.8,2-6.7,0.5c-2.4-3.9-4.9-7.8-7.3-11.7
			c1.1,4.4,2.2,8.8,3.3,13.2c0.5,1.9,1.1,5.4-0.5,6.3c-4.9,2.6-11.7,6.7-16.5,9.2c-4,2.5-5.8,0.8-6.2-1.1c-0.9-3.7-2.5-9.3-3.1-13.1
			c-0.4,3.8-1.1,11.8-1.5,15.7c-0.1,1.5-0.7,2.5-2.5,2.7c-0.5,0.1-4.1,0.9-8.1,2c-5.1,1.3-8.7-1-6.1-4.4c0.8-1,1.5-2,2.2-3
			c6.4-8.8,10.2-15.6,12.8-20.9c-1.6,6.9-3.7,13.5-3,13.6c1,0.2,4.4-11,7.2-10.6c2.4,0.4,1.7,9.4,5.8,10.5c1.3,0.3,1.9-0.4,7.9-2.8
			c5.6-2.3,5.7-1.8,6.4-2.5c4.5-4.3-3.5-14.6,0-17c1.5-1,4.4,0.1,5.7,0.7c4.9,2.6,3.7,8,6.9,9.3c1.3,0.5,0.8-2,11.1-9.1
			S110.2,86.5,110.1,86.5z"/>
		<path class="st2" d="M160.4,165.7c-1.8-2.3-4.6-5.5-8.4-8.5c-3.1-2.5-2.4-6.6-4.6-7.7c3.2-5.6,2.7-8.6,5.9-14.2
			c-4.1,4.5-7.6,3.2-11.6,7.7c-4.7-6.4-6.3-8.2-10.5-15.1c5-4.6,6-9.7,11-14.3c-5.3,2.7-8.5,4.4-13.8,7.1c-0.6,0.3-4.1-0.2-4.2-1.5
			c0-0.4,0,0.4,0,0c-0.4-3.7-1.4-9.3-3.2-13.9c-5.1-13-11.4-20.4-9.8-22.3c3.3-3.9,39.4,1.9,50.7,31.2c2.4,9.5-3.3,16.7-2.4,39.5
			c0,0.8,0.1,1.7,0.1,2.6C159.8,160.2,160.1,163.4,160.4,165.7z"/>
		<path class="st2" d="M160.4,165c-1.8-2.3-4.6-5.5-8.4-8.5c-1.3-1-2.5-1.8-3.6-2.5c-1.7-1.1-2.6-6.1-1.6-7.8
			c2.2-3.8,4.4-7.7,6.6-11.5c-2.6,2.8-5.1,5.7-7.7,8.5c-2.4,2.9-6.9,1.7-8,0c-2.3-3.4-4.6-7-6.8-10.5c-1.8-3.7-5-5.2,1.6-10.7
			c3.3-3,6.5-6,9.8-9c-5,2.6-10.1,5.2-15.1,7.8c-0.9,0.5-2.8-0.9-3-2.1c1.6-0.8,3.6-1.7,6.2-2.9c0.7-0.3,13.3-6,14.5-4.4
			c0.4,0.6-0.9,1.7-6.2,7.9c-4,4.8-4.8,6-4.7,7.6c0.2,2.1,1.7,2.3,3.9,6.2c2.7,4.6,2.1,6.8,3.6,7.3c3.7,1.2,10.3-11.6,13-10.6
			c1.5,0.6,1.2,5.4,0.2,9c-2,7.2-6.5,9.1-5.5,11.7c1,2.4,5.6,2.2,10.3,2.7c0,0.8,0.1,1.7,0.1,2.6C159.8,159.5,160.1,162.8,160.4,165
			z"/>
	</g>
	<g id="Whites_00000017510051095559709380000015735163816865997213_">
		<path class="st4" d="M123.3,86.1c7.5,2,21.7,7.4,28.2,20.6c0.7,1.1-1.5,2.6-2.5,0.8c-4.7-7.1-9.7-15.7-26-20.5
			C121.6,86.6,120.4,85.3,123.3,86.1z"/>
		<path class="st4" d="M52,90.2c1.7-2.4,17.2-14.1,43.3-10.1c1.3,0.2,1.3,1.5,0.1,1.3c-13.9-1.9-28.6,0.5-42.3,10.3
			C52.1,92.4,50.8,91.4,52,90.2z"/>
		<path class="st4" d="M35.4,46.2c10.2-1.4,28.2-1.3,47,12.4c1.3,0.8,0.2,1.8-0.7,0.9c-8.8-6.9-27.1-13.2-46-12
			C34.2,47.8,34,46.2,35.4,46.2z"/>
		<path class="st4" d="M151.2,55.8c0,0,18-10.2,31.1,2.3c1.1,1-0.2,1.9-1.3,0.9c-7.5-5.4-14.2-7.5-29.4-2.3
			C149.9,57.5,149.2,56.7,151.2,55.8z"/>
	</g>
</g>
</svg>
