<?xml version="1.0" encoding="utf-8"?>
<!-- Generator: Adobe Illustrator 25.2.3, SVG Export Plug-In . SVG Version: 6.00 Build 0)  -->
<svg version="1.1" id="Layer_1" xmlns="http://www.w3.org/2000/svg" xmlns:xlink="http://www.w3.org/1999/xlink" x="0px" y="0px"
	 viewBox="0 0 241 145" style="enable-background:new 0 0 241 145;" xml:space="preserve">
<style type="text/css">
	.st0{fill:#ED1B30;}
	.st1{fill:#50000E;}
	.st2{fill:#FFFFFF;}
	.st3{fill:none;stroke:#50000E;stroke-width:2.8346;stroke-linecap:round;stroke-miterlimit:10;}
	.st4{fill:#9196CA;}
	.st5{fill:#FFF2EB;}
</style>
<g>
	<path class="st0" d="M79.5,42c0,0-8.7-6.4,4.7-35.7c0,0,5.2-4.8,6.2-5.4c0.5-0.8,3.1,0.2,1.6,1.9c-1,1.1-2,2.7-2.3,3.9
		c-0.2,0.7-0.1,1.6-0.2,2.1c0,0,1,24.9,17.5,40.1C116.6,57.7,79.5,42,79.5,42z"/>
	<g>
		<path class="st0" d="M186.7,56.3l-12.4,42c1.5,1.3,7.3-1.1,8-3.2c6.4-14.3,6.2-36.9,6.2-36.9C187.8,53.5,186.7,56.3,186.7,56.3z"
			/>
		<path class="st0" d="M212.7,104.2c3.7-3.7-23.7-19.9-23.7-19.9s-3.8-2.2-10.3-5.9c-66.2-26.4-75.3-42.6-107-58.9
			C28.3-1.8,4.2,5.4,4.2,5.4c-5.4,0.8-3.6,5.2-3.6,5.2c22.9,37.6,102.9,68.7,102.9,68.7c44.2,17.9,69,23.4,69,23.4
			C181,104.2,207.4,109.5,212.7,104.2z"/>
		<path class="st0" d="M18.5,25.9c-5-6.3-11.5-11.1-18.1-15.7c0.1,0.2,0.1,0.4,0.1,0.4C7.4,21.9,19.3,32.5,32.7,42
			C27.3,37.5,23.3,31.9,18.5,25.9z"/>
		<path class="st0" d="M205.3,95.1c0,0,25.5-23.3,24.1-26.2c-0.9-1.8-2.7-2.8-4.1-3.4c-1.2-0.5-2.4-0.1-3.7,0.3
			c-12.8,3.1-33,13.9-37.4,16.3c-1.4,0.7-0.6,2.4,1.1,3.6C193.1,91.3,205.3,95.1,205.3,95.1z"/>
		<path class="st0" d="M239.9,111.9L205,98.3c0,0-6.5-2.2-8,1.3c-1.3,2.5,0.6,5.3,2.9,6.3c16.4,7.3,37.5,7.8,37.5,7.8
			C242.9,113.3,239.9,111.9,239.9,111.9z"/>
	</g>
	<path class="st0" d="M186.2,144.5"/>
	<path class="st1" d="M56.1,34.6l-1.3-0.7c-1-0.5-1.3-1.8-0.8-2.7l2-3.7c0.5-1,1.8-1.3,2.7-0.8l1.3,0.7c1,0.5,1.3,1.8,0.8,2.7
		l-2,3.7C58.3,34.7,57.1,35.1,56.1,34.6z"/>
	<path class="st1" d="M67.3,31.1l-0.1-0.1c-1-0.5-2.2-0.2-2.7,0.8l-2,3.7c-0.5,1-0.2,2.2,0.8,2.7l1.3,0.7c1,0.5,2.2,0.2,2.7-0.8
		l2-3.6c0.5-0.9,0.2-2.1-0.7-2.7C68.1,31.6,67.7,31.4,67.3,31.1z"/>
	<path class="st1" d="M73,36.9l-1.7,3.1c-0.5,1-0.2,2.2,0.8,2.7l1.1,0.6c1,0.5,2.2,0.2,2.7-0.8l1.7-3.1c0.5-1,0.2-2.1-0.7-2.7
		c-0.4-0.2-0.7-0.4-1.1-0.6C74.8,35.6,73.5,35.9,73,36.9z"/>
	<path class="st1" d="M80.9,41.5l-1.4,2.6c-0.5,1-0.2,2.2,0.8,2.7l1.1,0.6c1,0.5,2.2,0.2,2.7-0.8l1.4-2.5c0.5-1,0.2-2.2-0.8-2.7
		c-0.4-0.2-0.7-0.4-1.1-0.6C82.7,40.2,81.5,40.5,80.9,41.5z"/>
	<path class="st1" d="M88.8,46L87.7,48c-0.5,1-0.2,2.2,0.8,2.7l0.9,0.5c1,0.5,2.2,0.2,2.7-0.8l1.2-2.1c0.5-1,0.2-2.2-0.8-2.7
		c-0.3-0.2-0.6-0.4-0.9-0.5C90.6,44.7,89.4,45,88.8,46z"/>
	<path class="st1" d="M96.9,50.4l-1,1.8c-0.5,1-0.2,2.2,0.8,2.7l0.7,0.4c1,0.5,2.2,0.2,2.7-0.8l1-1.8c0.5-1,0.2-2.2-0.8-2.7
		c-0.2-0.1-0.5-0.3-0.7-0.4C98.6,49.1,97.4,49.4,96.9,50.4z"/>
	<path class="st1" d="M105.2,54.6l-0.9,1.7c-0.5,0.8-0.2,1.9,0.7,2.4l1.2,0.6c0.8,0.5,1.9,0.2,2.4-0.7l0.9-1.7
		c0.5-0.9,0.2-1.9-0.7-2.4c-0.4-0.2-0.8-0.4-1.2-0.6C106.7,53.5,105.7,53.8,105.2,54.6z"/>
	<path class="st1" d="M112.6,58.5l-0.8,1.5c-0.5,0.8-0.2,1.9,0.7,2.4l1.1,0.6c0.8,0.5,1.9,0.2,2.4-0.7l0.9-1.5
		c0.5-0.9,0.1-1.9-0.7-2.4c-0.4-0.2-0.7-0.4-1.1-0.6C114.1,57.3,113.1,57.6,112.6,58.5z"/>
	<path class="st1" d="M120.2,62.3l-0.7,1.2c-0.5,0.8-0.2,1.9,0.7,2.4l0.7,0.4c0.8,0.5,1.9,0.2,2.4-0.7l0.7-1.2
		c0.5-0.9,0.1-2-0.7-2.4c-0.2-0.1-0.5-0.2-0.7-0.3C121.6,61.2,120.6,61.5,120.2,62.3z"/>
	<path class="st1" d="M126.9,65.7l-0.6,1.1c-0.5,0.8-0.2,1.9,0.7,2.4l0.7,0.4c0.8,0.5,1.9,0.2,2.4-0.7l0.6-1.2
		c0.5-0.9,0.1-2-0.8-2.4c-0.2-0.1-0.5-0.2-0.7-0.4C128.3,64.6,127.3,64.9,126.9,65.7z"/>
	<path class="st1" d="M133.8,68.5l-1,1.7c-0.3,0.6-0.1,1.3,0.5,1.6l1.3,0.7c0.6,0.3,1.3,0.1,1.6-0.5l1-1.8c0.3-0.6,0.1-1.4-0.5-1.7
		c-0.5-0.2-0.9-0.4-1.4-0.7C134.8,67.7,134.1,67.9,133.8,68.5z"/>
	<path class="st1" d="M140.2,71.6l-1.1,1.9c-0.3,0.6-0.1,1.3,0.5,1.6l1.2,0.6c0.6,0.3,1.3,0.1,1.6-0.5l1.1-2
		c0.3-0.6,0.1-1.4-0.5-1.7c-0.4-0.2-0.8-0.4-1.2-0.6C141.2,70.8,140.5,71,140.2,71.6z"/>
	<path class="st1" d="M146.7,74.6l-0.9,1.6c-0.3,0.6-0.1,1.3,0.5,1.6l1.5,0.8c0.6,0.3,1.3,0.1,1.6-0.5l0.9-1.7
		c0.3-0.6,0.1-1.4-0.5-1.7c-0.5-0.2-1-0.5-1.5-0.7C147.7,73.8,147,74.1,146.7,74.6z"/>
	<path class="st1" d="M153.6,77.8l-0.9,1.5c-0.3,0.6-0.1,1.3,0.5,1.6l1.3,0.7c0.6,0.3,1.3,0.1,1.6-0.5l0.9-1.6
		c0.3-0.6,0.1-1.4-0.6-1.7c-0.4-0.2-0.9-0.4-1.3-0.6C154.6,77,153.9,77.3,153.6,77.8z"/>
	<path class="st1" d="M159.7,80.5l-0.8,1.4c-0.3,0.6-0.1,1.3,0.5,1.6l1.1,0.6c0.6,0.3,1.3,0.1,1.6-0.5l0.8-1.5
		c0.3-0.6,0.1-1.4-0.6-1.7l-1.2-0.5C160.7,79.8,160,80,159.7,80.5z"/>
	<path class="st1" d="M165.8,83.2l-0.6,1.1c-0.3,0.6-0.1,1.3,0.5,1.6l1,0.6c0.6,0.3,1.3,0.1,1.6-0.5l0.7-1.2
		c0.3-0.6,0.1-1.4-0.6-1.7l-1.1-0.5C166.8,82.5,166.1,82.7,165.8,83.2z"/>
	<g>
		<path class="st1" d="M29.7,8.5c0,0-0.1-0.1-0.2-0.1c-1.7-0.2-3.4-0.1-5.3,0c-1.3,0.1-2.6,0.1-3.9,0.2c-0.2,0-0.3,0.3-0.2,0.5
			c2.3,2,5.1,4.9,8.4,9.4c0.1,0.1,0.3,0.2,0.4,0c1.6-1.6,5.5-4.4,6.8-5.2c0.2-0.1,0.2-0.4,0-0.5C33.7,11.5,31.5,10,29.7,8.5z"/>
		<path class="st1" d="M17.9,7.2c1.8-0.3,7.8-0.6,9.6-0.6c0.1,0,0.2-0.1,0.1-0.2c-0.3-0.3-0.6-0.7-0.8-1c0,0,0,0-0.1-0.1
			c-5.4-0.8-9.8-1-13.3-0.9c-0.1,0-0.2,0.2-0.1,0.2C14.3,5.2,15.8,5.8,17.9,7.2C17.9,7.2,17.9,7.3,17.9,7.2z"/>
		<path class="st1" d="M37.6,14.3c-1.5,0.8-6.2,4.1-7.7,5.6c-0.1,0.1-0.1,0.3,0,0.5c0.8,1.2,1.6,2.6,2.5,3.8c0.7,1,1.4,1.8,2,2.2
			c2.5,1.7,3.6,0.2,5-1.7c0.2-0.3,0.4-0.5,0.6-0.8c1.3-1.7,2.6-3.4,3.8-5.1c0.4-0.6-2.3-2.4-5.7-4.5C37.9,14.2,37.8,14.2,37.6,14.3z
			"/>
	</g>
	<path class="st2" d="M101.2,43.9c0,0,20.2,12.5,49,25c1,0.5,1.6-0.3,0.3-0.8c-14.8-6.9-28.7-14.7-48.1-25.7
		C100.4,41.3,100,43.3,101.2,43.9z"/>
	<path class="st2" d="M194.4,80.6c-1.9,1.2-3.4-0.4-1.4-1.6c0,0,4.2-1.9,11.7-5.3c5.1-2.3,8.9-4.1,13.8-6c1-0.5,2.2,0,1.2,0.6
		c-2.8,1.4-4.7,1.9-14.3,6.7"/>
	<path class="st3" d="M6.8,6.1c0,0-0.8,7.4,32.2,29.7c37.4,23.7,98.2,51.7,157,65.6"/>
	<rect x="39.1" y="35.3" transform="matrix(0.809 0.5878 -0.5878 0.809 30.5108 -17.4152)" class="st0" width="5.9" height="5.9"/>
	<path class="st0" d="M108.1,105.2c0,0,36.6,7.5,39.5-3.5c0.1-0.5,0.5-1.8-0.8-3.3c-2.3-2.5-9.6-7-33.7-9.2L108.1,105.2z"/>
	<path class="st0" d="M94.2,70.5c1.8-2.5,5.8-3,9.9-1.6c10.8,4.1,19.8,8.1,27,15c0,0,1.4,10,56.1,54.5c1-0.2,2.5-0.3,5.6-2.5
		c0.5-0.4,1.1-0.8,1.8-0.4c1,0.6,0.7,1.4,0.7,1.4s-0.5,3.2-9.7,6.2c-0.1,0-2-1.9-2-1.9l-41.7-26.6l-44-37.5
		C97.8,77.2,91.4,74.7,94.2,70.5z"/>
	<path class="st1" d="M193.6,136.6c-1.5,1.6-4.2,3.2-9.1,4.5c-54.8-33.4-74.2-54.1-90.5-70.6c-2.6,3.8,2.1,8.5,2.1,8.5
		s35.5,32.8,85.7,63.2c1.6,1,1.9,1.7,4.4,0.7c5.7-1.9,7.8-4,8.6-5.1c0.2-0.3,0.4-0.6,0-1C194.5,136.4,194,136.2,193.6,136.6z"/>
	<g>
		<g>
			<path class="st0" d="M117.2,98.9c-1.2,4.5-4.9,7.5-8.2,6.6c-3.3-0.9-5.1-5.3-3.9-9.8c1.2-4.5,4.9-7.5,8.2-6.6
				C116.6,90,118.4,94.4,117.2,98.9z"/>
			<path class="st4" d="M115.4,98.5c-1,3.6-3.9,6-6.5,5.3c-2.6-0.7-4-4.2-3-7.8c1-3.6,3.8-6,6.5-5.3C115,91.3,116.4,94.8,115.4,98.5
				z"/>
			<path class="st5" d="M108.9,96.4c-0.5,1.1,1.2,2.9,3.7,3.9c0.6,0.2,1.1,0.4,1.6,0.5c0.4-0.5,0.7-1.2,1-1.8c0.3-0.7,0.5-1.3,0.6-2
				c-0.5-0.3-1-0.5-1.5-0.8C111.8,95.2,109.4,95.3,108.9,96.4z"/>
		</g>
	</g>
</g>
</svg>
