<?xml version="1.0" encoding="utf-8"?>
<!-- Generator: Adobe Illustrator 25.2.3, SVG Export Plug-In . SVG Version: 6.00 Build 0)  -->
<svg version="1.1" id="Layer_1" xmlns="http://www.w3.org/2000/svg" xmlns:xlink="http://www.w3.org/1999/xlink" x="0px" y="0px"
	 viewBox="0 0 200 74" style="enable-background:new 0 0 200 74;" xml:space="preserve">
<style type="text/css">
	.st0{fill:#FFF2EB;}
	.st1{fill:url(#SVGID_1_);}
	.st2{fill:#FFFFFF;}
</style>
<g>
	<path class="st0" d="M197.4,64.6c-2.2,2-5.2,2.9-8.1,3.6c-2.3,0.6-4.7,1.1-7,1.5c-13.6,2.5-27.5,2.9-41.4,3.2c-0.3,0-0.6,0-0.9,0
		c-11.5,0.2-23,0.5-34.5,0.7c-29.7,0.6-59.7,1.2-88.7-4.8c-1.2-0.2-2.4-0.5-3.5-0.8c-1-0.3-3.2-0.9-3.2-1c0,0,0,0,0,0
		c-14.5-3.8-13.9-23,6-22.2c9.9-0.3,8.8-8.4,9.7-15.4c-1-8.3,6-15.4,17.8-9.6c5.1,2.6,11.7,5.7,12.4-0.2c-0.8-20.9,36.4-31,43-0.4
		c2.6,5.8,11.5,6.8,14.6,1.2c11.9-20.2,37.3-16.3,42.3,5.7c0.5,5.3,3.9,7.3,5.5,7.6c3.8,0.8,2.9,1.1,6.8,1.7
		c5.5,0.8,7.6,3.1,10.3,7.9c1.2,2.2,1.7,4.8,3.5,6.6c4.5,4.5,14.5,1,17.5,6.6C200.8,59.3,199.6,62.6,197.4,64.6z"/>
	<g>
		
			<linearGradient id="SVGID_1_" gradientUnits="userSpaceOnUse" x1="198.3186" y1="39.0848" x2="198.3186" y2="74" gradientTransform="matrix(1 0 0 1 -98.6379 0)">
			<stop  offset="0" style="stop-color:#FFF2EB"/>
			<stop  offset="0.2878" style="stop-color:#FEEEE8"/>
			<stop  offset="0.5397" style="stop-color:#FDE3E0"/>
			<stop  offset="0.7772" style="stop-color:#FCD2D2"/>
			<stop  offset="0.9885" style="stop-color:#FABBC1"/>
		</linearGradient>
		<path class="st1" d="M189.3,68.2c-2.3,0.6-4.7,1.1-7,1.5c-13.6,2.5-27.5,2.9-41.4,3.2c-0.3,0-0.6,0-0.9,0
			c-11.5,0.2-23,0.5-34.5,0.7c-29.7,0.6-59.7,1.2-88.7-4.8c-1.2-0.2-2.4-0.5-3.5-0.8c-1-0.3-2-0.6-3-0.9c-0.1,0-0.2-0.1-0.2-0.1
			c4,0.7,9.2-4,12.7-3.7c4.9,0.4,9.7,4.7,13.5,2.9c3.3-1.6,1-6.1,1.1-9.3c0.1-3.1,2.1-6.9,5.9-7.1c4-0.2,9.5,5.4,11.3,2.4
			c2.9-4.9,2.5-11.3,8.8-12.8c3.5-0.9,7.9-0.2,9.6,2.4c0.8,1.3,0.9,2.8,1.3,4.2c1.8,6.4,11.3,10.4,18.7,8c6-2,11.3-7.4,17.3-5.7
			c4.1,1.2,8.8,6.4,11.5,3.7c5-5,13.8-5.8,20.3-2.3c6.5,3.5,11.2,9.2,18.2,12.1c4.7,1.9,10,2.4,14.9,4
			C177.2,66.6,185.7,69,189.3,68.2z"/>
	</g>
	<path class="st2" d="M88.5,8.9c-5-3.2-16.7-4.6-24.6,4.8c-3.2,4-0.1,2.9,1.6,1.6c5.8-3.4,15.1-7.5,22.7-2.2
		C90.2,14.5,92.1,11.2,88.5,8.9z"/>
	<path class="st2" d="M144.7,14c-5-3.2-16.7-4.6-24.6,4.8c-3.2,4-0.1,2.9,1.6,1.6c5.8-3.4,15.1-7.5,22.7-2.2
		C146.3,19.6,148.3,16.3,144.7,14z"/>
</g>
</svg>
