<?xml version="1.0" encoding="utf-8"?>
<!-- Generator: Adobe Illustrator 25.2.3, SVG Export Plug-In . SVG Version: 6.00 Build 0)  -->
<svg version="1.1" id="Layer_1" xmlns="http://www.w3.org/2000/svg" xmlns:xlink="http://www.w3.org/1999/xlink" x="0px" y="0px"
	 viewBox="0 0 300 150.8" style="enable-background:new 0 0 300 150.8;" xml:space="preserve">
<style type="text/css">
	.st0{fill:#EC1C24;}
	.st1{fill:#FFFFFF;}
</style>
<g>
	<path class="st0" d="M10.3,30.5h12l9.2,20.7h-9.4l-0.4-1c-0.3-0.6-0.6-1.1-1-1.5c-0.4-0.4-1-0.6-1.7-0.8c-0.7-0.2-1.6-0.3-2.7-0.3
		c-1.1,0-2,0.1-2.7,0.3C13,48,12.5,48.3,12,48.6c-0.4,0.4-0.8,0.9-1,1.5l-0.4,1H1.2L10.3,30.5z M15.4,42.9c0.6-0.3,1.3-0.5,2.1-0.5
		c0.4,0,0.9,0,1.3,0.1c-0.9-2.2-1.6-3.9-2.1-5.1H16c-0.9,2.4-1.7,4.1-2.2,5.1c-0.3,0.6-0.6,1.1-0.9,1.5l0.6,0.3
		C14.1,43.7,14.7,43.2,15.4,42.9z"/>
	<path class="st0" d="M33.8,30.5h16c1.9,0,3.4,0.3,4.5,0.8c1.2,0.5,2,1.4,2.6,2.5c0.6,1.2,0.9,2.7,0.9,4.7v0.1c0,2-0.3,3.6-0.9,4.8
		c-0.6,1.2-1.5,2.1-2.7,2.6c-1.2,0.5-2.7,0.8-4.6,0.8h-0.1c-1.3,0-2.4-0.1-3.3-0.4c-0.9-0.3-1.5-0.6-2-1c-0.5-0.4-0.9-0.9-1.3-1.6
		l-0.6,0.2c0.1,0.6,0.2,1,0.3,1.4c0,0.4,0.1,0.8,0.1,1.1c0,0.4,0,0.9,0,1.7v3h-8.9V30.5z M43,40.5c0.2,0.3,0.6,0.6,1.1,0.8
		c0.5,0.2,1.2,0.3,2.1,0.3c0.9,0,1.5-0.1,2-0.3c0.5-0.2,0.8-0.5,1-0.8c0.2-0.4,0.3-0.9,0.3-1.5v-0.1c0-0.6-0.1-1.1-0.3-1.5
		c-0.2-0.4-0.5-0.6-1-0.8c-0.5-0.2-1.1-0.3-2-0.3h-3.5v2.8C42.7,39.7,42.8,40.2,43,40.5z"/>
	<path class="st0" d="M60.4,30.5h14.3c0.2,1.4,0.4,2.6,0.7,3.9c0.2,1.2,0.6,2.7,1,4.5c0.3,1.3,0.5,2.5,0.8,3.8h0.7
		c0.3-1.3,0.5-2.5,0.8-3.8c0.4-1.8,0.7-3.3,1-4.5c0.2-1.2,0.5-2.5,0.7-3.9h14.3v20.7h-8.7V47c0-1.6,0-3.1,0.1-4.5
		c0.1-1.4,0.2-3,0.3-4.6l-0.6,0c-1.4,5.6-2.5,10-3.3,13.3h-9.7c-1-4.3-2.1-8.8-3.2-13.3l-0.7,0c0.1,1.6,0.2,3.2,0.3,4.6
		c0.1,1.4,0.1,2.9,0.1,4.5v4.1h-8.7V30.5z"/>
	<path class="st0" d="M106.1,30.5h12l9.2,20.7h-9.4l-0.4-1c-0.3-0.6-0.6-1.1-1-1.5c-0.4-0.4-1-0.6-1.7-0.8c-0.7-0.2-1.6-0.3-2.7-0.3
		c-1.1,0-2,0.1-2.7,0.3c-0.7,0.2-1.3,0.4-1.7,0.8c-0.4,0.4-0.8,0.9-1,1.5l-0.4,1h-9.4L106.1,30.5z M111.1,42.9
		c0.6-0.3,1.3-0.5,2.1-0.5c0.4,0,0.9,0,1.3,0.1c-0.9-2.2-1.6-3.9-2.1-5.1h-0.7c-0.9,2.4-1.7,4.1-2.2,5.1c-0.3,0.6-0.6,1.1-0.9,1.5
		l0.6,0.3C109.9,43.7,110.5,43.2,111.1,42.9z"/>
	<path class="st0" d="M129.6,30.5h8.9v5.9c0,0.7-0.1,1.3-0.2,1.9s-0.3,1.1-0.5,1.7l0.6,0.2c0.7-1,1.5-1.8,2.4-2.3
		c1-0.5,2.1-0.8,3.5-0.8c0.7,0,1.5,0.1,2.2,0.2v-6.8h8.9v20.7h-8.9v-4.6c0-0.8-0.1-1.4-0.4-1.9c-0.3-0.5-0.7-0.8-1.3-1.1
		c-0.6-0.2-1.4-0.4-2.4-0.4s-1.8,0.1-2.4,0.4c-0.6,0.2-1,0.6-1.3,1.1c-0.3,0.5-0.4,1.1-0.4,1.9v4.6h-8.9V30.5z"/>
	<path class="st0" d="M158.3,44h1.9c0.4,0,0.7-0.1,0.9-0.2s0.4-0.3,0.4-0.6c0.1-0.3,0.1-0.6,0.1-1l0.2-11.8h23.6V44h2.8v10.3h-10
		v-3.2h-9.9v3.2h-10V44z M176.7,44v-6.5h-6l0,2.7c0,0.7-0.1,1.2-0.3,1.7c-0.1,0.4-0.4,0.7-0.7,1c-0.3,0.2-0.7,0.4-1.3,0.5V44H176.7z
		"/>
	<path class="st0" d="M199.1,30.5h12l9.2,20.7h-9.4l-0.4-1c-0.3-0.6-0.6-1.1-1-1.5c-0.4-0.4-1-0.6-1.7-0.8c-0.7-0.2-1.6-0.3-2.7-0.3
		s-2,0.1-2.7,0.3c-0.7,0.2-1.3,0.4-1.7,0.8c-0.4,0.4-0.8,0.9-1,1.5l-0.4,1H190L199.1,30.5z M204.1,42.9c0.6-0.3,1.3-0.5,2.1-0.5
		c0.4,0,0.9,0,1.3,0.1c-0.9-2.2-1.6-3.9-2.1-5.1h-0.7c-0.9,2.4-1.7,4.1-2.2,5.1c-0.3,0.6-0.6,1.1-0.9,1.5l0.6,0.3
		C202.9,43.7,203.5,43.2,204.1,42.9z"/>
	<path class="st0" d="M221.2,40.5h1.5v-10h19.8v7.4h-10.9v3h3.6v5h-3.6v5.3h-8.9v-4.9h-1.5V40.5z"/>
	<path class="st0" d="M249.5,30.5h12l9.2,20.7h-9.4l-0.4-1c-0.3-0.6-0.6-1.1-1-1.5c-0.4-0.4-1-0.6-1.7-0.8c-0.7-0.2-1.6-0.3-2.7-0.3
		c-1.1,0-2,0.1-2.7,0.3s-1.3,0.4-1.7,0.8c-0.4,0.4-0.8,0.9-1,1.5l-0.4,1h-9.4L249.5,30.5z M254.5,42.9c0.6-0.3,1.3-0.5,2.1-0.5
		c0.4,0,0.9,0,1.3,0.1c-0.9-2.2-1.6-3.9-2.1-5.1h-0.7c-0.9,2.4-1.7,4.1-2.2,5.1c-0.3,0.6-0.6,1.1-0.9,1.5l0.6,0.3
		C253.3,43.7,253.9,43.2,254.5,42.9z"/>
	<path class="st0" d="M273,30.5h8.9v5.9c0,0.7-0.1,1.3-0.2,1.9c-0.1,0.5-0.3,1.1-0.5,1.7l0.6,0.2c0.7-1,1.5-1.8,2.4-2.3
		c1-0.5,2.1-0.8,3.5-0.8c0.7,0,1.5,0.1,2.2,0.2v-6.8h8.9v20.7H290v-4.6c0-0.8-0.1-1.4-0.4-1.9c-0.3-0.5-0.7-0.8-1.3-1.1
		c-0.6-0.2-1.4-0.4-2.4-0.4c-1,0-1.8,0.1-2.4,0.4c-0.6,0.2-1,0.6-1.3,1.1c-0.3,0.5-0.4,1.1-0.4,1.9v4.6H273V30.5z"/>
	<path class="st0" d="M2.4,64h21.7v6.5H11.3v1.8h12v4.1h-12v1.8h12.8v6.5H2.4V64z"/>
	<path class="st0" d="M27.1,64h8.9V71h0.7l2.3-3.3c0.7-1,1.5-1.9,2.3-2.5c0.8-0.6,1.6-1,2.6-1.3c1-0.3,2.2-0.4,3.6-0.4
		c0.9,0,2,0.1,3.2,0.2v7.7c-0.7,0-1.4-0.1-1.9-0.1c-0.8,0-1.4,0.1-1.9,0.2c-0.5,0.1-1,0.4-1.4,0.7c-0.4,0.3-0.8,0.8-1.2,1.4L44,74.2
		l7.3,10.6H41.3l-4.5-7.3h-0.7v7.3h-8.9V64z"/>
	<path class="st0" d="M53.6,64h8.9v20.8h-8.9V64z"/>
	<path class="st0" d="M79,83.9c-2-0.8-3.4-2-4.4-3.6c-1-1.6-1.5-3.6-1.5-5.9v-0.1c0-2.3,0.5-4.3,1.5-5.9c1-1.6,2.5-2.8,4.5-3.7
		c2-0.8,4.5-1.2,7.4-1.2c3,0,5.5,0.4,7.4,1.2c2,0.8,3.4,1.8,4.3,3.1c0.9,1.3,1.4,2.7,1.4,4.2c0,0.4,0,0.8-0.1,1.2l-9.1,0.3
		c0-0.2,0.1-0.5,0.1-0.7c0-0.6-0.1-1.2-0.4-1.6c-0.3-0.5-0.7-0.8-1.3-1.1c-0.6-0.3-1.3-0.4-2.2-0.4c-1.4,0-2.4,0.4-3.1,1.1
		c-0.7,0.7-1.1,1.8-1.1,3.4v0.3c0,1.1,0.2,1.9,0.5,2.6c0.3,0.7,0.8,1.1,1.4,1.4c0.6,0.3,1.4,0.4,2.3,0.4c1.3,0,2.3-0.3,3-0.8
		c0.7-0.6,1-1.5,1-2.7v-0.1h9.2v0.1c0,2.1-0.5,3.9-1.5,5.4c-1,1.5-2.5,2.6-4.4,3.3c-2,0.8-4.4,1.1-7.4,1.1
		C83.4,85.2,81,84.8,79,83.9z"/>
	<path class="st0" d="M108.6,64h12.1l9.2,20.8h-9.5l-0.4-1c-0.3-0.6-0.6-1.2-1-1.5c-0.4-0.4-1-0.7-1.7-0.8c-0.7-0.2-1.6-0.3-2.7-0.3
		c-1.1,0-2,0.1-2.7,0.3c-0.7,0.2-1.3,0.4-1.7,0.8c-0.4,0.4-0.8,0.9-1,1.5l-0.4,1h-9.5L108.6,64z M113.7,76.4
		c0.6-0.3,1.3-0.5,2.1-0.5c0.4,0,0.9,0,1.3,0.1c-0.9-2.2-1.6-3.9-2.1-5.2h-0.7c-0.9,2.4-1.7,4.1-2.2,5.2c-0.3,0.6-0.6,1.1-0.9,1.5
		l0.6,0.3C112.5,77.2,113.1,76.7,113.7,76.4z"/>
	<path class="st0" d="M147.5,79h-2.9l-3.5,5.7H131l5.6-8v-0.7c-0.9-0.1-1.7-0.4-2.4-0.9c-0.7-0.5-1.3-1.1-1.8-2
		c-0.4-0.8-0.7-1.9-0.7-3.1V70c0-1.2,0.3-2.3,0.8-3.2c0.5-0.9,1.3-1.6,2.3-2.1c1-0.5,2.3-0.8,3.8-0.8h17.7v20.8h-8.9V79z
		 M140.6,73.3c0.3,0.3,0.8,0.4,1.5,0.4h5.5v-3.8h-5.5c-0.7,0-1.2,0.1-1.5,0.4c-0.3,0.3-0.5,0.7-0.5,1.4v0.2
		C140.1,72.5,140.3,73,140.6,73.3z"/>
	<path class="st0" d="M165.6,74.1L158.9,64h9.6l4.1,6.8h0.6l2-6.8h9.3l-6.6,10.2l6.9,10.5h-9.7l-4.3-6.8h-0.6l-2.2,6.8h-9.3
		L165.6,74.1z"/>
	<path class="st0" d="M195,64h12.1l9.2,20.8h-9.5l-0.4-1c-0.3-0.6-0.6-1.2-1-1.5c-0.4-0.4-1-0.7-1.7-0.8c-0.7-0.2-1.6-0.3-2.7-0.3
		c-1.1,0-2,0.1-2.7,0.3c-0.7,0.2-1.3,0.4-1.7,0.8c-0.4,0.4-0.8,0.9-1,1.5l-0.4,1h-9.5L195,64z M200,76.4c0.6-0.3,1.3-0.5,2.1-0.5
		c0.4,0,0.9,0,1.3,0.1c-0.9-2.2-1.6-3.9-2.1-5.2h-0.7c-0.9,2.4-1.7,4.1-2.2,5.2c-0.3,0.6-0.6,1.1-0.9,1.5l0.6,0.3
		C198.8,77.2,199.4,76.7,200,76.4z"/>
	<path class="st0" d="M222.1,71.4h-8V64h25v7.4h-8v13.4h-8.9V71.4z"/>
	<path class="st0" d="M242.5,71.4h-8V64h25v7.4h-8v13.4h-8.9V71.4z"/>
	<path class="st0" d="M262.2,64h8.9v6.6h7.7c1.6,0,3,0.3,4.2,0.8c1.2,0.5,2.1,1.3,2.8,2.3c0.7,1.1,1,2.4,1,3.9v0.1
		c0,1.6-0.3,2.9-1,3.9c-0.7,1.1-1.6,1.9-2.8,2.4c-1.2,0.5-2.6,0.8-4.2,0.8h-16.6V64z M276.9,78.6c0.3-0.1,0.6-0.3,0.7-0.5
		c0.1-0.2,0.2-0.6,0.2-1V77c0-0.4-0.1-0.7-0.2-1c-0.1-0.2-0.4-0.4-0.7-0.5c-0.3-0.1-0.7-0.2-1.2-0.2h-4.6v3.4h4.5
		C276.1,78.8,276.5,78.7,276.9,78.6z M289.4,64h8.9v20.8h-8.9V64z"/>
	<path class="st1" d="M2.1,98.4h17.2v5.1H9.4v1.9h6.7c1.2,0,2.2,0.2,3.2,0.5c0.9,0.4,1.6,0.9,2.2,1.7c0.5,0.7,0.8,1.7,0.8,2.8v0
		c0,1.1-0.3,2-0.8,2.8c-0.5,0.7-1.2,1.3-2.2,1.7s-2,0.5-3.2,0.5h-14V98.4z M14.2,110.9c0.2-0.1,0.4-0.2,0.5-0.4
		c0.1-0.2,0.2-0.4,0.2-0.7v-0.1c0-0.3-0.1-0.5-0.2-0.7c-0.1-0.2-0.3-0.3-0.5-0.4c-0.2-0.1-0.5-0.1-0.9-0.1H9.4v2.6h3.8
		C13.6,111,14,111,14.2,110.9z"/>
	<path class="st1" d="M24.4,98.4h7.3v17h-7.3V98.4z"/>
	<path class="st1" d="M34.6,98.4h13.2c1.5,0,2.8,0.2,3.7,0.6c1,0.4,1.7,1.1,2.1,2.1c0.5,1,0.7,2.3,0.7,3.9v0c0,1.6-0.2,2.9-0.7,3.9
		c-0.5,1-1.2,1.7-2.2,2.2s-2.2,0.7-3.8,0.7h-0.1c-1.1,0-2-0.1-2.7-0.3c-0.7-0.2-1.3-0.5-1.7-0.8c-0.4-0.3-0.8-0.8-1.1-1.3l-0.5,0.2
		c0.1,0.5,0.2,0.8,0.2,1.2c0,0.3,0.1,0.6,0.1,0.9c0,0.3,0,0.8,0,1.4v2.4h-7.3V98.4z M42.2,106.7c0.2,0.3,0.5,0.5,0.9,0.6
		c0.4,0.1,1,0.2,1.7,0.2c0.7,0,1.3-0.1,1.7-0.2c0.4-0.1,0.6-0.4,0.8-0.7c0.1-0.3,0.2-0.7,0.2-1.2v0c0-0.5-0.1-0.9-0.2-1.2
		c-0.1-0.3-0.4-0.5-0.8-0.7c-0.4-0.1-0.9-0.2-1.7-0.2h-2.9v2.3C41.9,106,42,106.4,42.2,106.7z"/>
	<path class="st1" d="M55.5,109.6H57c0.3,0,0.6,0,0.7-0.1c0.2-0.1,0.3-0.2,0.4-0.5c0.1-0.2,0.1-0.5,0.1-0.9l0.2-9.7h19.4v11.2h2.3
		v8.5h-8.3v-2.7h-8.2v2.7h-8.3V109.6z M70.6,109.6v-5.3h-4.9l0,2.2c0,0.6-0.1,1-0.2,1.4c-0.1,0.3-0.3,0.6-0.6,0.8
		c-0.3,0.2-0.6,0.3-1.1,0.4v0.6H70.6z"/>
	<path class="st1" d="M82.5,98.4h17.8v5.3H89.8v1.5h9.8v3.4h-9.8v1.5h10.5v5.3H82.5V98.4z"/>
	<path class="st1" d="M102.8,98.4h7.3v4.9c0,0.6,0,1.1-0.1,1.5c-0.1,0.4-0.2,0.9-0.4,1.4l0.5,0.2c0.6-0.8,1.2-1.5,2-1.9
		s1.7-0.7,2.9-0.7c0.6,0,1.2,0.1,1.8,0.2v-5.6h7.3v17h-7.3v-3.8c0-0.6-0.1-1.1-0.3-1.5c-0.2-0.4-0.6-0.7-1.1-0.9
		c-0.5-0.2-1.1-0.3-1.9-0.3s-1.4,0.1-1.9,0.3c-0.5,0.2-0.8,0.5-1.1,0.9c-0.2,0.4-0.3,0.9-0.3,1.5v3.8h-7.3V98.4z"/>
	<path class="st1" d="M139.6,110.9l-7.4-12.5h8c0.3,0.5,0.6,1,0.9,1.6c0.3,0.5,0.6,1,0.8,1.6c0.7,1.4,1.3,2.4,1.7,3.1h0.6
		c0.3-0.8,0.7-1.9,1.3-3.2c0.2-0.5,0.4-1,0.6-1.6c0.2-0.5,0.4-1,0.6-1.4h7.8l-7.4,12.5v4.5h-7.3V110.9z"/>
	<path class="st1" d="M161.9,104.5h-6.6v-6.1h20.4v6.1h-6.6v10.9h-7.3V104.5z"/>
	<path class="st1" d="M177.9,98.4h7.3v5.4h6.3c1.3,0,2.4,0.2,3.4,0.6c1,0.4,1.7,1.1,2.3,1.9c0.5,0.9,0.8,1.9,0.8,3.2v0
		c0,1.3-0.3,2.3-0.8,3.2c-0.5,0.9-1.3,1.5-2.3,1.9c-1,0.4-2.1,0.6-3.4,0.6h-13.6V98.4z M190,110.4c0.3-0.1,0.5-0.2,0.6-0.4
		c0.1-0.2,0.2-0.5,0.2-0.8v-0.1c0-0.3-0.1-0.6-0.2-0.8c-0.1-0.2-0.3-0.3-0.5-0.4c-0.2-0.1-0.6-0.1-1-0.1h-3.8v2.8h3.7
		C189.3,110.6,189.7,110.5,190,110.4z M200.2,98.4h7.3v17h-7.3V98.4z"/>
	<path class="st1" d="M210.4,98.4h21v17h-7.3v-10.9h-6.4v10.9h-7.3V98.4z"/>
	<path class="st1" d="M247.2,98.4h9.9l7.5,17h-7.8l-0.3-0.8c-0.2-0.5-0.5-0.9-0.8-1.3c-0.4-0.3-0.8-0.5-1.4-0.7
		c-0.6-0.1-1.3-0.2-2.2-0.2c-0.9,0-1.6,0.1-2.2,0.2c-0.6,0.1-1,0.4-1.4,0.7c-0.4,0.3-0.6,0.7-0.9,1.3l-0.3,0.8h-7.8L247.2,98.4z
		 M251.3,108.6c0.5-0.3,1.1-0.4,1.7-0.4c0.3,0,0.7,0,1.1,0.1c-0.7-1.8-1.3-3.2-1.7-4.2h-0.6c-0.8,2-1.4,3.4-1.8,4.2
		c-0.2,0.5-0.5,0.9-0.7,1.3l0.5,0.2C250.3,109.3,250.8,108.9,251.3,108.6z"/>
	<path class="st1" d="M280.9,104.2h-4.6l-0.1,3.7c0,2-0.3,3.5-0.8,4.6c-0.5,1.1-1.2,1.9-2.3,2.4c-1,0.5-2.4,0.7-4.2,0.7
		c-0.9,0-1.9,0-3-0.1v-6.1c0.4,0,0.7,0.1,1,0.1c0.4,0,0.8-0.1,1.1-0.2c0.3-0.1,0.5-0.3,0.7-0.7c0.2-0.3,0.3-0.8,0.3-1.3l0.2-8.8
		h19.1v17h-7.3V104.2z"/>
	<path class="st1" d="M290.5,98.4h7.4l-1,10.7h-5.5L290.5,98.4z M290.5,110h7.3v5.5h-7.3V110z"/>
</g>
</svg>
