<svg version="1.1" id="Layer_1" xmlns="http://www.w3.org/2000/svg" x="0" y="0" viewBox="0 0 212 300" style="enable-background:new 0 0 212 300" xml:space="preserve"><style>.st2{fill:#00a99b}.st4{fill:#fff2eb}</style><linearGradient id="SVGID_1_" gradientUnits="userSpaceOnUse" x1="183.509" y1="6.329" x2="257.023" y2="6.329" gradientTransform="rotate(-178.883 149.343 151.198) scale(.99999)"><stop offset="0" style="stop-color:#fff;stop-opacity:0"/><stop offset="1" style="stop-color:#000"/></linearGradient><path d="M38.9 292.8c0 1.6 1.1 4.5 10.7 6.1 7.1 1.2 19.1 1.6 37.8.3 13.9-1 24.9-2.3 25-5s-18.6-4.7-32.5-5-41 .8-41 3.6z" style="fill:url(#SVGID_1_)"/><path d="M115.3 85.4c-3.2 9.7-10.2 26.3-16.9 45.2-.2.5-.4 1-.5 1.6-1.2 3.3-2.3 6.6-3.6 10.1-.2.5-.3 1-.5 1.5-3.2 9-6.5 18.7-9.9 29-.2.5-.3 1.1-.5 1.6-.5 1.5-1 3-1.5 4.6-.1.3-.2.7-.3 1-3.1 9.8-6.2 20.2-8.8 31 0 .1 0 .1-.1.2-.2.8-.4 1.7-.6 2.5-.2.7-.3 1.5-.5 2.2-.2.9-.4 1.7-.6 2.6-2.1 9.3-3.7 17.7-4.8 25.6-.1.7-.2 1.4-.3 2.2 0 .4-.1.7-.1 1.1-.1.6-.1 1.2-.2 1.7-1.9 16.9-1.1 33.1.9 44.4 1.4 7.6-28.5 8.7-27.8-1.8-.4-11.6.8-25.5 4.6-42.3.1-.5.2-1 .4-1.5.1-.4.2-.7.3-1.1.2-.7.4-1.5.5-2.3.2-.8.4-1.5.6-2.3 1.9-7.3 4.2-15 7.1-23.1.4-1.2.9-2.5 1.3-3.7.2-.5.4-1.1.6-1.6.6-1.5 1.1-3.1 1.7-4.6.1-.3.2-.6.3-.8 3.9-10.3 8.1-20.1 12.2-29.4.1-.3.3-.7.4-1 .7-1.5 1.3-3 2-4.5.2-.4.4-.8.5-1.2 4.9-10.8 9.6-21 14-30.3.2-.5.5-1 .7-1.5 1.6-3.5 3.2-6.9 4.7-10.1l.6-1.2c5.7-12.3 10.5-22.7 14.2-31 1.8-4.1 4.4-11.9 5.7-14.9 1.1-.4 3.1 2.2 4.2 2.1z" style="fill:#50000d"/><path class="st2" d="M96.4 126.7c.8-.9 1.9-2.1 3.3-3.6 8.7-9.3 12.8-10.8 15.3-15.1 4.2-7.8-1.1-19.3-4.6-23-.9-.9-2.3-.9-2.7-.8-1 .3.4 5.4-2 11.3-.9 2.1-1.9 3.9-3 5.3-.5.7-.5 2 0 2 2.2.2 4.3.4 6.5.6-2.5.5-5 1-7.4 1.4-.4.1-1.7 1.3-1.8 1.9-.6 2.1-1.4 4.3-2 6.4-.3 1 .5 2.7 1.2 2.5 2.1-.5 4.2-1 6.2-1.5-2.3 1.1-4.6 2.1-7 3-.6.2-1.5 1.7-1.4 2.4.1.6.2 1.4.1 2.2.1 1.9-.3 3.7-.7 5zM144.4 43.7c-1.2.7-3.1 1.8-4.9 3.7-.7.7-1.2 1.4-1.6 2-.4.6-1 2.7-2.9 2.4-1.8-.3-3.2 1.2-3.2 1.2h2.4c1.9 0 .9 2.1.3 3.2-.8 1.7-1.8 3.5-2.7 5.2-.5 2-3.3 2.6-3.3 2.6l-4.7.1 2.8 1.1s2.5 1.1.8 3.1c-2.3 2.7-5.2 6.4-7.9 10.8-2.9 4.7-3.3 6.4-4.2 6.4-2.6.1-5.9-16.9 3.9-28.3 1.4-1.6 4.4-5.6 10-8.9 6.5-3.9 12.6-4.5 15.2-4.6z"/><path class="st2" d="M209.7 130.8c-1.1-1.7-2.9-4.1-5.6-6.4-.8-.7-1.7-1.4-2.7-2.1-1.6-1.1-4.8-2.7-6.3-3.4-2.8-.9-3.6-4-3.6-4l-2.4-6.1-.4 4.3s-.9 3.5-4.3 2.7c-5.9-1.7-12.3-3.8-18.2-5.8-3.8-1.1-3.5-6.2-3.5-6.2l.5-7.9-6.2 10.9c-6.6-4.3-16.7-10.3-29.9-15.7-11-4.5-15.3-4.9-15.2-6.5.1-1.1 2.1-2.4 5.5-3.6 12.4-4.6 43.2-8.2 63.9 4.5 3.8 2.3 13.2 7.1 20.2 17.2 1.8 2.5 3.1 5 4.3 7.5 1.7 3.7 2.7 7.2 3.3 10.4.6 4.3.6 7.9.6 10.2z"/><path class="st2" d="M111.7 84.6c-.7 1.7-3.4-.1-15.7-2.5-11-2.1-21.5-.8-29-.9-2.5 0-6.9-1.7-7-5S59.6 66 59.6 66s-1.8 8.1-4.4 11.5c-1.5 2-2.4 1.7-4.5 1.1-5.8-1.6-17.2-5.1-22.8-6.9-1.4-.5-1.2-1.7-.4-3 1.7-2.7 2.3-6 2.3-6s-3.3 2.1-5 4.7c-1.2 1.4-1 2-3 1.9-1.7-.2-7.7-.6-9.7-.5-5.4.4-9.4 2.2-11.7 3.6 2.2-5.2 8-16.8 21-23.6h.1c11.3-5.9 22.1-4.9 26.7-4.9 23.5 0 48.4 20.7 58.9 33.7 3.7 4.5 5.2 5.7 4.6 7z"/><path class="st2" d="M122.2 31.4c-.2 1.2-.4 2.4-.6 3.5-2.9 13.8-10.9 22.9-9.6 40 .1 1.1.9 1.9 1 2.8.2 1.3 3.2 3.5 3.4 4.6.4 2-2.8 2.5-2.9 3.3 0 .3-.1.5-.3.6-1.9.9-12.2-19.7-20.4-36.1-1.3-2.6.5-2.6 2.9-2.4 6.3.6 9.5 1.1 9.5 1.1l-10.7-6.2s-2.1-1.2-1-4.2c1.7-5.2 4.4-13.2 6.3-18.2.7-1.9 3-4.9 5.8-3.3s4.4 2.4 4.4 2.4-1-1.9-3.9-5.4-.6-6.4.7-7.7c3.9-3.9 9.1-6.1 9.1-6.1 1.1 2.1 2 4.2 2.8 6.2.9 2.2 1.6 4.4 2.1 6.4 2.1 7.6 2 14 1.4 18.7z"/><path class="st2" d="M122.5 31.3c-.2 1.2-.4 2.4-.6 3.5-2.9 13.8-10.9 22.9-9.6 40 .1 1.1.2 2.1.3 3-1.4-2.7-3.3-6.1-5.7-10.1-5.8-9.4-9.5-12.8-7.9-15.1 2.1-3 10.9-.6 11.6-2.5.7-2.3-11-5.4-11.3-11.1-.1-2.9 2.9-3.2 4.4-8.3 1.3-4.6-.4-7.1 1.4-8.4 2.7-1.9 7.8 2 9.6.5 2.5-2.2-5.7-11.1-2.9-13.9 1.2-1.3 4.1-.8 6.4-.2.9 1.3 2 2.6 3 4 2 7.4 2 13.8 1.3 18.6zM107 78.2c-2.4 0-8.1-3.3-17-4.1-18.4-1.7-19.8.5-22.2-1.6-5.8-5.2-4.5-13.5-7-13.7-2.7-.2-3.5 10.2-9.8 11.5-1.8.4-3.6-.1-6.2-.9-2.2-.6-5.9-1.7-8.1-4.2-3.5-4-.2-8.5-2.6-10.3-4.1-3.1-17.9 7.9-19.3 6.6-.8-.8 1.7-6.2 6.6-12.1h.1c11.3-5.9 22.1-4.9 26.7-4.9 6.7 0 13.5 1.7 20 4.4 7.5 3.1 14.7 7.5 21 12.3 7.4 5.7 13.7 11.9 17.8 17zM210.9 77.5c-1.8 1.6-4.5 3.5-7.7 4.7-3.6 1.3-7.1-1.9-7.1-1.9l-6.6-6.5 2.6 6.1s.3 3.4-3.6 3.3c-9.1-.1-19.4-.6-28.3-1.1l-6.6-14.6c-.1 4.7-.3 9.5-.4 14.2-5.6-1.3-12.7-2.4-20.4-1.7-13.6 1.2-19.6 6.8-20.4 5.8-.2-.2 0-.8.5-1.7 4.9-8.6 41-44 64.1-33.1 4.3 2 13.7 8.3 20.8 13.1 4.5 3.1 8.1 5.6 8.7 6.1 1 .7 1.9 1.4 2.8 2 1.4 1.3 3.5 4 1.6 5.3z"/><path class="st2" d="M197.4 72.3c-3 1.6-11.2-7.2-13.7-5.7-1.8 1.1 2.3 6.5-.3 9.4-2.3 2.4-8.1 1.6-10.9 1.2-1.3-.2-3.7-.6-6.3-1.8-8.8-4-9.1-12.3-13.4-12.6-3.9-.3-3.8 6.7-11.4 10.7-6.5 3.4-10.8.6-18.9 4.1-4.8 2-7.9 5-9.9 7.2 3.3-5.9 21.2-24.2 39.5-31.8 1.9-.8 3.7-1.4 5.6-2 .8-.2 1.7-.4 2.5-.6 1.2-.3 2.4-.5 3.5-.6 4.5-.5 8.9 0 12.9 1.9 4.3 2 13.7 8.3 20.8 13.1 1.1 3.5 1.5 6.7 0 7.5z"/><path d="M89.1 61.2c-2.3-1.1-5.2-2.4-8.7-3.9-13.4-5.8-20.1-8.6-28.9-9.6-12.9-1.4-22.6 1.7-22.7 1.6 0-.1 11.7-4.1 25.8-3 4.7.4 9.3 1.3 13.5 2.6 7.5 3.1 14.7 7.5 21 12.3z" style="opacity:.28;fill:#00a99b;enable-background:new"/><path class="st2" d="M205.5 110.8c-1.3 1.6-2.8 2.5-4.1 2.5-5-.1-8.3-13.4-11.6-12.8-2.7.5-1.4 9.5-5.7 10.7-1.3.3-2-.3-8-2.4s-6-1.7-7.1-2.3c-7.1-4.2-3.2-19.8-4.8-20.1-1.4-.2-2.4 11.9-8.3 12.9-16.2-17.9-31.2-16.7-38.7-17.5 12.4-4.6 43.2-8.2 63.9 4.5 3.8 2.3 13.2 7.1 20.2 17.2 1.7 2.3 3.1 4.8 4.2 7.3zM92.4 96.7s-.1 0 0 0c-6.6 4.9-10.7 5.3-13.5 9.2-3.3-5.3-6.9-5.8-10.2-11.2 1.6 6.3.1 10.5 1.7 16.7-5 2.7-7.9 3.6-12.6 7-2.6 1.9-6 1.7-6.8.5-1.2-5.3-4.7-6-5.3-9.7-.6 6.4-7.9 19.2-12.2 20-5.2 1 2.1-7.1-.9-5.8 1.6-1.9-7.7 5.2-5.1 1.7 7.9-10.3 11.8-17.8 14.6-23.6 3.1-6.3 4.8-10.8 9.1-14.7 18.4-17.1 62.9-7.3 63.4-2.4.3 2.4-9.8 3-22.2 12.3z"/><path class="st2" d="M110.1 86.5c-13 5.3-22.2 13.3-27.4 18.8-1.9 2.1-5.8 2-6.7.5-2.4-3.9-4.9-7.8-7.3-11.7l3.3 13.2c.5 1.9 1.1 5.4-.5 6.3-4.9 2.6-11.7 6.7-16.5 9.2-4 2.5-5.8.8-6.2-1.1-.9-3.7-2.5-9.3-3.1-13.1-.4 3.8-1.1 11.8-1.5 15.7-.1 1.5-.7 2.5-2.5 2.7-.5.1-4.1.9-8.1 2-5.1 1.3-8.7-1-6.1-4.4.8-1 1.5-2 2.2-3 6.4-8.8 10.2-15.6 12.8-20.9-1.6 6.9-3.7 13.5-3 13.6 1 .2 4.4-11 7.2-10.6 2.4.4 1.7 9.4 5.8 10.5 1.3.3 1.9-.4 7.9-2.8 5.6-2.3 5.7-1.8 6.4-2.5 4.5-4.3-3.5-14.6 0-17 1.5-1 4.4.1 5.7.7 4.9 2.6 3.7 8 6.9 9.3 1.3.5.8-2 11.1-9.1s19.7-6.3 19.6-6.3zM160.4 165.7c-1.8-2.3-4.6-5.5-8.4-8.5-3.1-2.5-2.4-6.6-4.6-7.7 3.2-5.6 2.7-8.6 5.9-14.2-4.1 4.5-7.6 3.2-11.6 7.7-4.7-6.4-6.3-8.2-10.5-15.1 5-4.6 6-9.7 11-14.3-5.3 2.7-8.5 4.4-13.8 7.1-.6.3-4.1-.2-4.2-1.5 0-.4 0 .4 0 0-.4-3.7-1.4-9.3-3.2-13.9-5.1-13-11.4-20.4-9.8-22.3 3.3-3.9 39.4 1.9 50.7 31.2 2.4 9.5-3.3 16.7-2.4 39.5 0 .8.1 1.7.1 2.6.2 3.9.5 7.1.8 9.4z"/><path class="st2" d="M160.4 165c-1.8-2.3-4.6-5.5-8.4-8.5-1.3-1-2.5-1.8-3.6-2.5-1.7-1.1-2.6-6.1-1.6-7.8 2.2-3.8 4.4-7.7 6.6-11.5-2.6 2.8-5.1 5.7-7.7 8.5-2.4 2.9-6.9 1.7-8 0-2.3-3.4-4.6-7-6.8-10.5-1.8-3.7-5-5.2 1.6-10.7 3.3-3 6.5-6 9.8-9-5 2.6-10.1 5.2-15.1 7.8-.9.5-2.8-.9-3-2.1 1.6-.8 3.6-1.7 6.2-2.9.7-.3 13.3-6 14.5-4.4.4.6-.9 1.7-6.2 7.9-4 4.8-4.8 6-4.7 7.6.2 2.1 1.7 2.3 3.9 6.2 2.7 4.6 2.1 6.8 3.6 7.3 3.7 1.2 10.3-11.6 13-10.6 1.5.6 1.2 5.4.2 9-2 7.2-6.5 9.1-5.5 11.7 1 2.4 5.6 2.2 10.3 2.7 0 .8.1 1.7.1 2.6.2 3.7.5 7 .8 9.2z"/><g id="Whites_00000017510051095559709380000015735163816865997213_"><path class="st4" d="M123.3 86.1c7.5 2 21.7 7.4 28.2 20.6.7 1.1-1.5 2.6-2.5.8-4.7-7.1-9.7-15.7-26-20.5-1.4-.4-2.6-1.7.3-.9zM52 90.2c1.7-2.4 17.2-14.1 43.3-10.1 1.3.2 1.3 1.5.1 1.3-13.9-1.9-28.6.5-42.3 10.3-1 .7-2.3-.3-1.1-1.5zM35.4 46.2c10.2-1.4 28.2-1.3 47 12.4 1.3.8.2 1.8-.7.9-8.8-6.9-27.1-13.2-46-12-1.5.3-1.7-1.3-.3-1.3zM151.2 55.8s18-10.2 31.1 2.3c1.1 1-.2 1.9-1.3.9-7.5-5.4-14.2-7.5-29.4-2.3-1.7.8-2.4 0-.4-.9z"/></g></svg>