<svg version="1.1" id="Layer_1" xmlns="http://www.w3.org/2000/svg" x="0" y="0" viewBox="0 0 300 150.8" style="enable-background:new 0 0 300 150.8" xml:space="preserve"><style>.st0{fill:#ec1c24}.st1{fill:#fff}</style><path class="st0" d="M1.2 7.1h25.1c6.1 0 10.5 2.1 10.5 7.6v.1c0 3.9-1.8 5.7-5.8 7v1c4.6.8 6.9 3.4 6.9 7.4v.1c0 6.1-4.7 7.5-11 7.5H1.2V7.1zm23.4 10.2c0-1.7-.8-2.3-2.8-2.3h-7.5v4.6H22c1.9 0 2.6-.7 2.6-2.3zm.3 10.2v-.2c0-1.6-.8-2.3-2.8-2.3h-7.7v4.8h7.5c2.2.1 3-.6 3-2.3zM41.9 7.1H55v9.7h11.4C73.3 16.8 78 20 78 27.2v.1c0 7-4.7 10.4-11.6 10.4H41.9V7.1zm23 19.5v-.2c0-1.7-.8-2.4-3.1-2.4H55v5h6.6c2.5 0 3.3-.7 3.3-2.4zm17-19.5H95v30.6H81.9V7.1zM125.8 37.7v-6.1c0-4.7.2-8.7.8-13.5h-1c-2.2 7.6-4 13.9-5.5 19.7h-19.9V7.1h12.9v6.1c0 4.7-.2 8.7-.8 13.5h1c1.9-6.8 3.6-13.2 4.8-19.7h20.5v30.6h-12.8zM144 7.1h29.3V18h-16.2v19.7H144V7.1zM177.2 7.1h23.7c8 0 11.8 3 11.8 11.8v.1c0 8.8-3.8 12.2-12 12.2h-.2c-6.2 0-8.4-1.9-9.8-4.4l-.9.3c.5 2.5.6 3.3.6 6.3v4.4h-13.1V7.1zm18.3 16.5c3.9 0 4.8-1.2 4.8-3.8v-.1c0-2.6-.9-3.8-4.8-3.8h-5.1V20c-.1 2.4 1.1 3.6 5.1 3.6zM223.9 7.1h17.8l13.5 30.6h-13.9l-.6-1.4c-1.1-2.8-3.2-3.8-8-3.8-4.7 0-6.8 1-8 3.8l-.6 1.4h-13.9l13.7-30.6zM236.4 25c-.7-1.8-2.1-5-3.1-7.6h-1c-1.2 3-2.4 5.9-3.2 7.6-.5 1.1-.9 1.7-1.3 2.3l.8.4c2.2-2.5 4.5-3.3 7.8-2.7zM284.2 37.7v-6.1c0-4.7.2-8.7.8-13.5h-1c-2.2 7.6-4 13.9-5.5 19.7h-19.9V7.1h12.9v6.1c0 4.7-.2 8.7-.8 13.5h1c1.9-6.8 3.6-13.2 4.8-19.7H297v30.6h-12.8zM265.9 0H276c0 1.3.7 1.9 1.9 1.9s1.9-.6 1.9-1.9h10.1c0 3.6-2.1 5.4-12 5.4s-12-1.8-12-5.4zM0 59.9C0 50.9 5.8 46 17.1 46c12 0 16.7 5.3 16.7 10.9 0 .7-.1 1.2-.2 1.6l-11.6.4c0-.2.1-.5.1-.9 0-2.3-1.6-4-5-4-3.5 0-5.3 1.6-5.3 5.7v.4c0 4.2 1.8 5.7 5.3 5.7 3.3 0 5.1-1.3 5.1-4.5v-.2h11.7v.1c0 8.1-5.6 12.5-16.9 12.5S0 68.9 0 59.9zM37.4 46.7h20.5c7 0 10.2 2.6 10.2 10.2v.1c0 7.6-3.3 10.5-10.4 10.5h-.2c-5.4 0-7.3-1.6-8.5-3.8l-.8.3c.5 2.2.5 2.9.5 5.4v3.8H37.4V46.7zm15.7 14.2c3.4 0 4.1-1 4.1-3.3v-.1c0-2.3-.7-3.3-4.1-3.3h-4.4v3.6c0 2.1 1.1 3.1 4.4 3.1zM77.7 46.7h15.4l11.7 26.5h-12l-.5-1.2c-1-2.4-2.8-3.3-6.9-3.3-4.1 0-5.9.9-6.9 3.3l-.5 1.2H66l11.7-26.5zm10.8 15.4c-.6-1.6-1.8-4.3-2.7-6.6H85c-1 2.6-2 5.1-2.8 6.6-.5 1-.8 1.5-1.1 2l.7.3c1.9-2.1 3.9-2.8 6.7-2.3zM107 65.2c0-1 .1-1.6.3-2.3l10.4-.4c-.1.5-.1.8-.1 1.2 0 1.7 1.1 2.6 4.3 2.6 3.2 0 4.3-.7 4.3-2.1v-.1c0-1.4-1.1-1.9-4.6-1.9h-2.3v-5h2.5c3.3 0 4.2-.6 4.2-1.8v-.1c0-1.4-1.2-1.9-4.3-1.9-3.1 0-4.2.5-4.2 2.5 0 .3 0 .5.1.8l-10.3.4c-.2-.8-.4-1.6-.4-2.7 0-5 3.2-8.3 15-8.3 8.9 0 14.6 2.2 14.6 7.6v.1c0 3.1-1.9 4.9-5.6 6v.9c4.1.7 6.1 2.4 6.1 5.8v.1c0 5.9-6.3 7.2-14.8 7.2-11.9-.1-15.2-3.5-15.2-8.6zM139.9 68.3c0-.5.1-.9.2-1.3l10.6-.4v.5c0 .9.5 1.2 1.5 1.2 1.1 0 1.6-.3 1.9-1.6l.3-.9h-.7c-6.8 0-8.5-1.9-10.3-7.2l-4-11.9h12.4c1.3 3.8 2.6 8.5 4 12.3h.8c1.3-3.8 2.6-8.5 4-12.3h12.1L166 65.2c-2 5.8-5.7 8.5-14.7 8.5-7.7 0-11.4-2.1-11.4-5.4zM184.3 64.1h2.4c1.5 0 1.9-.6 1.9-2.3l.3-15.1h30.2v17.4h3.6v13.2h-12.9v-4.2h-12.7v4.2h-12.9V64.1zm23.4 0v-8.3H200l-.1 3.5c-.1 2.6-.8 3.6-2.8 4v.9h10.6zM226.4 46.7h21.8c5.3 0 9.1 1.8 9.1 6.6v.1c0 3.4-1.6 4.9-5 6v.9c4 .7 5.9 2.9 5.9 6.4v.1c0 5.3-4.1 6.5-9.5 6.5h-22.3V46.7zm20.3 8.8c0-1.5-.7-2-2.5-2h-6.5v4h6.7c1.6-.1 2.3-.6 2.3-2zm.1 8.8v-.2c0-1.4-.7-2-2.5-2h-6.7v4.2h6.5c2.1 0 2.7-.6 2.7-2zM271 46.7h15.4l11.7 26.5H286l-.5-1.2c-1-2.4-2.8-3.3-6.9-3.3-4.1 0-5.9.9-6.9 3.3l-.5 1.2h-12.1L271 46.7zm10.8 15.4c-.6-1.6-1.8-4.3-2.7-6.6h-.9c-1 2.6-2 5.1-2.8 6.6-.5 1-.8 1.5-1.1 2l.7.3c1.9-2.1 4-2.8 6.8-2.3z"/><path class="st1" d="M.3 83.5h24.5v19.9h-8.5V90.6H8.8v12.8H.3V83.5zM27.7 99.8c0-.4.1-.7.1-1l7.9-.3v.3c0 .7.4.9 1.1.9.8 0 1.2-.2 1.5-1.2l.2-.7H38c-5.1 0-6.4-1.4-7.7-5.4l-3-8.9h9.3c1 2.8 2 6.4 3 9.2h.6c1-2.8 2-6.4 3-9.2h9.1l-4.9 13.9c-1.5 4.3-4.2 6.4-11 6.4-5.9 0-8.7-1.6-8.7-4zM61.1 90.6h-7.7v-7.1h23.8v7.1h-7.7v12.8H61V90.6zM79.8 83.5h20.7v6.2H88.3v1.7h11.4v3.9H88.3v1.8h12.2v6.2H79.8V83.5zM103.4 83.5h8.5v12.8h6.5V83.5h8.5v12.8h6.5V83.5h8.5v19.9h-38.6V83.5zM145.3 83.5H166v6.2h-12.2v1.7h11.4v3.9h-11.4v1.8H166v6.2h-20.7V83.5zM168.3 93.5c0-6.8 4.3-10.4 12.8-10.4 9 0 12.5 4 12.5 8.1 0 .5-.1.9-.1 1.2l-8.6.3c0-.2.1-.4.1-.7 0-1.7-1.2-3-3.8-3-2.6 0-4 1.2-4 4.3v.3c0 3.1 1.4 4.3 3.9 4.3s3.8-1 3.8-3.4v-.1h8.8v.1c0 6-4.2 9.4-12.7 9.4-8.6-.1-12.7-3.7-12.7-10.4zM203.1 90.6h-7.7v-7.1h23.8v7.1h-7.7v12.8H203V90.6zM221.8 83.5h16.3c4 0 6.8 1.3 6.8 5v.1c0 2.6-1.2 3.7-3.7 4.5v.7c3 .5 4.5 2.2 4.5 4.8v.1c0 4-3.1 4.9-7.1 4.9h-16.7V83.5zm15.2 6.6c0-1.1-.5-1.5-1.8-1.5h-4.8v3h5c1.1 0 1.6-.4 1.6-1.5zm.1 6.7v-.1c0-1.1-.5-1.5-1.8-1.5h-5v3.1h4.8c1.5 0 2-.5 2-1.5zM264.8 103.4v-4c0-3.1.2-5.7.5-8.8h-.7c-1.4 4.9-2.6 9-3.5 12.8h-12.9V83.5h8.4v4c0 3.1-.2 5.7-.5 8.8h.7c1.2-4.4 2.3-8.5 3.1-12.8h13.3v19.9h-8.4zM291.1 97.9h-2.7l-3.3 5.5h-9.7l5.3-7.7V95c-2.4-.4-4.6-2.1-4.6-5.7v-.1c0-3.4 2.1-5.8 6.6-5.8h16.9v19.9h-8.5v-5.4zm-5.2-5.1h5.2v-3.6h-5.2c-1.3 0-1.8.5-1.8 1.7v.2c-.1 1.2.5 1.7 1.8 1.7zM1.8 113.3h26.1c1.2 8 2.8 14.2 4.5 22.3h1.2c1.7-8.1 3.2-14.2 4.5-22.3h26V151H48.2v-7.5c0-5.8.2-10.7.7-16.6l-1.2-.1c-2.4 9.3-4.3 17.1-6 24.2H24.1c-1.7-7.1-3.5-14.9-5.9-24.2l-1.2.1c.5 5.9.7 10.8.7 16.6v7.5H1.8v-37.7zM70.5 113.3h39.2v11.8H86.6v3.2h21.7v7.4H86.6v3.3h23.1v12H70.5v-37.7zM142.3 137.4l-1.2-.1c-2.5 2.9-5.8 5.2-13.1 5.2-10.3 0-13.2-5.1-13.2-14.3v-14.9h16.1v11c0 4.3 1.3 6.3 5.1 6.3 3.2 0 5.2-1.5 6.3-3.2v-14h16.1V151h-16.1v-13.6zM177.8 126.8h-14.5v-13.5h45.1v13.5h-14.5V151h-16.1v-24.2zM213.3 113.3h16.1v11.9h14c8.5 0 14.3 4 14.3 12.8v.1c0 8.7-5.8 12.8-14.3 12.8h-30.1v-37.6zm28.2 23.9v-.2c0-2.1-1-3-3.8-3h-8.4v6.2h8.1c3.1 0 4.1-.9 4.1-3zm21-23.9h16.1V151h-16.1v-37.7zM283.6 113.3H300l-2.1 23.6h-12.1l-2.2-23.6zm.1 25.6h16.1V151h-16.1v-12.1z"/></svg>