<svg version="1.1" id="Layer_1" xmlns="http://www.w3.org/2000/svg" xmlns:xlink="http://www.w3.org/1999/xlink" x="0" y="0" viewBox="0 0 300 114" style="enable-background:new 0 0 300 114" xml:space="preserve"><style>.st0{fill:#50000e}.st1{fill:#fff}.st2{fill:#ec1c24}.st3{fill:#ed1b30}</style><path class="st0" d="m284.1 3.3-64.8 2.6c0 .9-.7 1.7-1.6 1.8-.9 0-1.7-.7-1.8-1.6L7.6 14c-4.4.2-7.8 3.9-7.6 8.3L.6 38l2.6 64.4c.3 6.6 5.8 11.7 12.4 11.4l204.4-7.7c0-.9.7-1.7 1.6-1.8.9 0 1.7.7 1.8 1.6l60.8-2.5c6.6-.3 11.7-5.8 11.4-12.4L293 26.5l-.6-15.7c-.2-4.3-3.9-7.7-8.3-7.5z"/><path class="st1" d="M292 .2h-64.8c0 .9-.8 1.7-1.7 1.7v96.6c.9 0 1.7.8 1.7 1.7H288c6.6 0 11.9-5.3 11.9-11.9V8.2c.1-4.4-3.5-8-7.9-8z"/><path class="st2" d="M225.5 1.9v21.9L7.4 25.3V9.6c0-4.4 3.6-8 8-8L223.9.1c-.1 1.1.7 1.8 1.6 1.8z"/><path class="st1" d="M225.5 23.9v74.7c-.9 0-1.7.8-1.7 1.7l-204.5 1.5c-6.6 0-11.9-5.3-11.9-11.9V25.3l218.1-1.4z"/><circle class="st0" cx="225.5" cy="31" r="1.7"/><circle class="st0" cx="225.5" cy="38.7" r="1.7"/><circle class="st0" cx="225.5" cy="46.4" r="1.7"/><circle class="st0" cx="225.5" cy="7.9" r="1.7"/><circle class="st0" cx="225.5" cy="15.6" r="1.7"/><circle class="st0" cx="225.5" cy="23.3" r="1.7"/><circle class="st0" cx="225.5" cy="54.1" r="1.7"/><circle class="st0" cx="225.5" cy="61.8" r="1.7"/><circle class="st0" cx="225.5" cy="69.5" r="1.7"/><circle class="st0" cx="225.5" cy="77.2" r="1.7"/><circle class="st0" cx="225.5" cy="84.9" r="1.7"/><circle class="st0" cx="225.5" cy="92.6" r="1.7"/><path class="st1" d="M17.5 14.6c0-2.7 1.7-4.1 5-4.2 3.6 0 5 1.5 5 3.2v.5l-3.5.2V14c0-.7-.5-1.2-1.5-1.2s-1.6.5-1.6 1.7v.1c0 1.2.6 1.7 1.6 1.7S24 15.9 24 15h3.5c0 2.4-1.6 3.7-5 3.8-3.3-.1-5-1.5-5-4.2zM28.1 10.6l8.2-.1V13h-4.8v.7H36v1.6h-4.5v.7h4.8v2.5l-8.2.1v-8zM37 10.5h6.1c2.1 0 3 .7 3.1 3 0 2.3-.9 3.1-3.1 3.2H43c-1.6 0-2.2-.5-2.5-1.1l-.2.1c.1.6.2.9.2 1.6v1.1h-3.4l-.1-7.9zm4.7 4.2c1 0 1.2-.3 1.2-1s-.2-1-1.2-1h-1.3v1.1c0 .6.3.9 1.3.9zM49.4 13.2h-3v-2.8l9.4-.1v2.8h-3v5.1h-3.4v-5zM63 18.2v-1.6c0-1.2 0-2.2.2-3.5h-.3c-.5 2-1 3.6-1.4 5.1h-5.1l-.1-7.9h3.3v1.6c0 1.2 0 2.2-.2 3.5h.3c.5-1.7.9-3.4 1.2-5.1h5.3l.1 7.9H63zM70.6 17.4c-2.6-.3-3.7-1.3-3.7-3.2 0-1.9 1-2.9 3.6-3.3v-.7h3.4v.7c2.7.3 3.7 1.3 3.7 3.2 0 1.9-1 2.9-3.6 3.3v.7h-3.4v-.7zm.2-2v-2.5c-.9.2-1.1.6-1.1 1.2v.2c0 .6.2 1 1.1 1.1zm4-1.2V14c0-.6-.2-1-1.1-1.2v2.5c.9-.1 1.1-.4 1.1-1.1zM84.8 18v-1.6c0-1.2 0-2.2.2-3.5h-.3c-.5 2-1 3.6-1.4 5.1h-5.1l-.1-7.9h3.3v1.6c0 1.2 0 2.2-.2 3.5h.3c.5-1.7.9-3.4 1.2-5.1H88l.1 7.9h-3.3zM88.9 10.1h3.4v2.7h.3l.9-1.3c.8-1.2 1.6-1.6 3.2-1.6.4 0 .8 0 1.2.1v2.9h-.7c-.9 0-1.3.2-1.7.9l-.1.1 2.8 4h-3.8l-1.7-2.8h-.3v2.8L89 18l-.1-7.9z"/><path class="st1" d="M101.5 10h4.6l3.5 7.8H106l-.1-.4c-.3-.7-.8-1-2.1-1-1.2 0-1.8.3-2 1l-.1.4h-3.6l3.4-7.8zm3.3 4.6c-.2-.5-.5-1.3-.8-1.9h-.3c-.3.8-.6 1.5-.8 2-.1.3-.2.4-.3.6l.2.1c.5-.8 1.1-1 2-.8zM111.3 12.7h-3V9.9l9.4-.1v2.8h-3v5.1h-3.4v-5zM120.7 9.8h3.4v2.3c0 .6-.1 1-.2 1.4l.2.1c.6-.9 1.5-1.4 3.1-1.1V9.9h3.4l.1 7.9h-3.4v-1.7c0-.8-.4-1.3-1.6-1.3-1.1 0-1.5.4-1.5 1.3v1.7h-3.4l-.1-8zM134.5 9.7h4.6l3.5 7.8H139l-.1-.4c-.3-.7-.8-1-2.1-1-1.2 0-1.8.3-2 1l-.1.4h-3.6l3.4-7.8zm3.2 4.6c-.2-.5-.5-1.3-.8-1.9h-.3c-.3.8-.6 1.5-.8 2-.1.3-.2.4-.3.6l.2.1c.6-.7 1.2-.9 2-.8zM145.5 9.6l9.7-.1.1 7.9h-3.4v-5.1h-3v5.1h-3.4V9.6zM155.8 13.5c0-2.7 1.7-4.1 5-4.2 3.4 0 5.1 1.4 5.1 4.1 0 2.7-1.7 4.1-5 4.1-3.3.1-5-1.3-5.1-4zm6.7 0v-.1c0-1.2-.6-1.7-1.6-1.7s-1.6.5-1.6 1.7v.1c0 1.2.6 1.7 1.6 1.7s1.6-.4 1.6-1.7zM166.6 9.5l8.2-.1v2.5H170v.7h4.5v1.6H170v.7h4.8v2.5l-8.2.1v-8zM175.3 14.9c0-.3 0-.5.1-.7l3.1-.1v.4c0 .5.3.8 1.3.8.9 0 1.3-.2 1.3-.6 0-.4-.3-.6-1.4-.6h-.7v-1.5h.7c1 0 1.2-.2 1.2-.5 0-.4-.4-.6-1.3-.6s-1.2.2-1.2.7v.2l-3.1.1c-.1-.2-.1-.5-.1-.8 0-1.5.9-2.5 4.4-2.5 2.6 0 4.3.6 4.4 2.2 0 .9-.6 1.5-1.6 1.8v.3c1.2.2 1.8.7 1.8 1.7 0 1.8-1.9 2.1-4.4 2.2-3.5 0-4.5-1-4.5-2.5zM184.6 14.5h.7c.4 0 .5-.2.6-.7V9.3l9-.1v5.2h1.1v3.9h-3.8v-1.2h-3.8v1.2h-3.8v-3.8zm7-.1v-2.5h-2.3v1c0 .8-.2 1.1-.8 1.2v.3h3.1zM196.6 9.2h3.4v2.7h.3l.9-1.3c.8-1.2 1.6-1.6 3.2-1.6.4 0 .8 0 1.2.1V12h-.7c-.9 0-1.3.2-1.7.9l-.2.1 2.8 4H202l-1.7-2.8h-.3V17h-3.4V9.2zM206 15.6c0-.1 0-.3.1-.4l3.1-.1v.1c0 .3.1.4.4.4.3 0 .5-.1.6-.5l.1-.3h-.2c-2 0-2.5-.5-3.1-2.1l-1.2-3.5h3.7c.4 1.1.8 2.5 1.2 3.6h.2c.4-1.1.8-2.5 1.1-3.7h3.6l-1.9 5.5c-.6 1.7-1.7 2.5-4.3 2.6-2.3 0-3.4-.6-3.4-1.6z"/><path class="st3" d="M23.5 47.9c0-.4.1-.9.1-1.2l7.8-.3v.4c0 .9.9 1.3 2.7 1.3 1.9 0 2.7-.7 2.7-2.1v-.1c0-1.5-.9-2.2-2.7-2.2-1.5 0-2.3.5-2.7 1.2h-7.7V33.7H44v5.4H30.7v1.1c0 .6-.1 1.2-.3 1.8l.5.1c1.3-1.1 3.1-1.7 6.1-1.7 5 0 7.5 2.2 7.5 5.9v.1c0 4.1-2.8 6.6-10.4 6.6-8.1 0-10.6-2.1-10.6-5.1zM53.5 43.2c0-6.4 3.9-9.9 11.8-9.9s11.8 3.5 11.8 9.9v.1c0 6.4-3.9 9.9-11.8 9.9-8-.2-11.8-3.6-11.8-10zm15.3.2v-.6c0-3-1.2-4.2-3.6-4.2s-3.6 1.2-3.6 4.2v.6c0 2.9 1.3 4.2 3.6 4.2 2.4 0 3.6-1.2 3.6-4.2zM79 43.2c0-6.4 3.9-9.9 11.8-9.9s11.8 3.5 11.8 9.9v.1c0 6.4-3.9 9.9-11.8 9.9-8-.2-11.8-3.6-11.8-10zm15.3.2v-.6c0-3-1.2-4.2-3.6-4.2s-3.6 1.2-3.6 4.2v.6c0 2.9 1.3 4.2 3.6 4.2 2.4 0 3.6-1.2 3.6-4.2zM104.5 43.2c0-6.4 3.9-9.9 11.8-9.9s11.8 3.5 11.8 9.9v.1c0 6.4-3.9 9.9-11.8 9.9-8-.2-11.8-3.6-11.8-10zm15.3.2v-.6c0-3-1.2-4.2-3.6-4.2s-3.6 1.2-3.6 4.2v.6c0 2.9 1.3 4.2 3.6 4.2 2.4 0 3.6-1.2 3.6-4.2zM137 43.2c0-6.4 3.9-9.9 11.8-9.9s11.8 3.5 11.8 9.9v.1c0 6.4-3.9 9.9-11.8 9.9-7.9-.2-11.8-3.6-11.8-10zm15.4.2v-.6c0-3-1.2-4.2-3.6-4.2-2.4 0-3.6 1.2-3.6 4.2v.6c0 2.9 1.3 4.2 3.6 4.2s3.6-1.2 3.6-4.2zM162.5 43.2c0-6.4 3.9-9.9 11.8-9.9s11.8 3.5 11.8 9.9v.1c0 6.4-3.9 9.9-11.8 9.9s-11.8-3.6-11.8-10zm15.4.2v-.6c0-3-1.2-4.2-3.6-4.2-2.4 0-3.6 1.2-3.6 4.2v.6c0 2.9 1.3 4.2 3.6 4.2s3.6-1.2 3.6-4.2zM188 43.2c0-6.4 3.9-9.9 11.8-9.9s11.8 3.5 11.8 9.9v.1c0 6.4-3.9 9.9-11.8 9.9-8-.2-11.8-3.6-11.8-10zm15.4.2v-.6c0-3-1.2-4.2-3.6-4.2-2.4 0-3.6 1.2-3.6 4.2v.6c0 2.9 1.3 4.2 3.6 4.2s3.6-1.2 3.6-4.2zM83.2 63.5h-4.4v-4.1h13.8v4.1h-4.4v7.4h-4.9l-.1-7.4zM94 59.4h12V63h-7v1h6.6v2.3H99v1h7.1v3.6H94V59.4zM107.7 59.4h4.9v3.3c0 .8-.1 1.4-.3 2l.3.1c.9-1.3 2.2-2 4.5-1.6v-3.8h4.9v11.5h-4.9v-2.5c0-1.2-.6-1.9-2.3-1.9s-2.3.6-2.3 1.9v2.5h-4.9V59.4h.1zM124.1 59.4h11v4.1H129v7.4h-4.9V59.4zM136.6 59.4h12V63h-7.1v1h6.6v2.3h-6.6v1h7.1v3.6h-12V59.4z"/><defs><path id="SVGID_1_" d="M225.5 23.9v74.7c-.9 0-1.7.8-1.7 1.7l-204.5 1.5c-6.6 0-11.9-5.3-11.9-11.9V25.3l218.1-1.4z"/></defs><clipPath id="SVGID_2_"><use xlink:href="#SVGID_1_" style="overflow:visible"/></clipPath><path d="m225.4 99.1-.4-21.9L6.9 79.5l.3 15.7c.1 4.4 3.7 7.9 8.1 7.8l208.5-2.1c-.1-1 .7-1.8 1.6-1.8z" style="clip-path:url(#SVGID_2_);fill:#ec1c24"/><path class="st1" d="M64.4 92.5h1c.6 0 .8-.3.8-1l.1-6.4H79l.1 7.3h1.5V98h-5.4v-1.8h-5.4V98h-5.4v-5.5zm9.9-.1v-3.5h-3.2v1.5c0 1.1-.3 1.5-1.2 1.7v.4l4.4-.1zM81.5 85l9.2-.1c2.2 0 3.8.7 3.9 2.8 0 1.4-.7 2.1-2.1 2.6v.4c1.7.3 2.5 1.2 2.5 2.7 0 2.2-1.7 2.7-4 2.8l-9.4.1-.1-11.3zm8.6 3.7c0-.6-.3-.9-1-.8h-2.7v1.7h2.8c.6-.1.9-.3.9-.9zm.1 3.7c0-.7-.3-.9-1-.9h-2.8v1.8h2.7c.8 0 1.1-.3 1.1-.9zM99.6 84.9l6.5-.1 5 11.1H106l-.2-.5c-.4-1-1.2-1.4-2.9-1.4s-2.5.4-2.9 1.4l-.2.5h-5.1l4.9-11zm4.7 6.5c-.3-.7-.8-1.8-1.1-2.8h-.4c-.4 1.1-.8 2.2-1.1 2.8-.2.4-.3.6-.5.8l.3.1c.7-.8 1.6-1.1 2.8-.9zM119.3 92h-.4l-2.4 4h-5.4l3.9-5.7-.1-.2c-.7-.9-1.2-1.3-2.5-1.2h-1v-4.1c.7-.1 1.2-.1 1.7-.1 2.2 0 3.4.5 4.6 2.2l1.3 1.8h.4v-3.8h4.6v3.8h.4l1.2-1.8c1.2-1.7 2.3-2.2 4.5-2.3.5 0 1.1 0 1.7.1v4.1h-1c-1.2 0-1.8.3-2.4 1.3l-.1.2 4 5.7h-5.4l-2.5-3.9h-.4V96h-4.6l-.1-4zM132.3 92h1c.6 0 .8-.3.8-1l.1-6.4 12.7-.1.1 7.3h1.5v5.6h-5.4v-1.8h-5.4v1.8h-5.4V92zm9.9-.1v-3.5H139v1.5c0 1.1-.3 1.5-1.2 1.7v.4l4.4-.1zM149.4 84.5h4.8V88h4.1c2.5 0 4.3 1.1 4.3 3.8 0 2.6-1.7 3.8-4.2 3.8l-8.9.1-.1-11.2zm8.5 7c0-.7-.3-.9-1.1-.9h-2.5v1.8h2.4c.9 0 1.2-.3 1.2-.9zm6.1-7.1h4.8l.1 11.2h-4.8l-.1-11.2z"/><path class="st2" d="M287.8 51.8c-.2-1-.5-2.2-.9-3.2-.8-2.2-1.5-3.1-2.4-3.9-.1-.1-.3 0-.2.2.4.9.7 2.1.8 3.4.3 3.4-2.4 5.5-4 6.6-.3.2-.8-.1-.6-.5.6-1.9.7-2.8.3-6.2-.2-1.8-.7-3.4-1.1-4.4-.1-.3-.4-.4-.7-.3-8.8 5-9.5 25.5-10.7 27.1-.4.5-1 .7-1.6.5l-4.5-1.6c-1-.3-1.2-1.6-.5-2.3 1.1-1.1 5.8-19.8 14.6-25.5.3-.2.3-.7-.1-.9-1.3-.5-2.5-.9-3.3-1-2.5-.3-4.6 0-6.2.4-.5.1-.8-.4-.5-.8.9-1.1 2.4-2.6 4.8-3.4 3.1-.9 5.1-.2 6 .2.2.1.3-.1.2-.2-.3-.7-.7-1.5-2.6-2.5-1.9-1.1-3.7-1.4-4.9-1.4-.5 0-.7-.6-.3-.9.9-.7 2.1-1.3 3.6-1.5 3.7-.5 6.7 1.1 8.7 5.3.1.1.2.2.4.2.1-.1.3-.1.4-1 .1-.4 0-.8 0-1.1-.1-.4.3-.7.7-.6.7.3 1.7.9 2.4 1.7 1.5 1.8 1.5 3.4 0 5.1-.2.2-.1.5.1.7 1.6 1 2.7 2.5 3.1 3.1 1.9 3.1.8 7.1-.1 9-.3.2-.8.2-.9-.3z"/><path class="st2" d="M237.6 46.7c.3-1.3.8-2.7 1.4-3.9 1.2-2.6 2.1-3.7 3.3-4.6.1-.1.3 0 .2.2-.5 1-1 2.5-1.2 4.2-.6 4.1 2.6 7 4.4 8.4.4.3.9-.1.8-.5-.5-2.3-.6-3.5.1-7.7.4-2.2 1.1-4.1 1.7-5.4.2-.3.6-.5.9-.3 10.5 6.9 9.7 32.1 11 34.2.4.6 1.2.9 1.9.7l5.7-1.6c1.2-.3 1.7-1.8.8-2.8-1.3-1.5-5.5-24.8-16-32.5-.4-.3-.3-.9.2-1.1 1.6-.6 3.2-1 4.1-1 3-.1 5.6.4 7.6 1 .6.2 1.1-.5.7-1-1-1.4-2.7-3.4-5.7-4.5-3.7-1.4-6.2-.7-7.4-.2-.2.1-.4-.1-.3-.3.5-.8 1-1.8 3.4-2.9 2.5-1.2 4.6-1.4 6.2-1.4.6 0 .9-.7.4-1.1-1-.9-2.5-1.8-4.3-2.1-4.5-.9-8.3.8-11.1 5.9-.1.2-.3.2-.5.2-.2-.1-.3-.2-.4-1.3 0-.5 0-1 .1-1.4.1-.5-.4-.9-.9-.8-.9.3-2.2.9-3.1 1.9-1.9 2.1-2.1 4.1-.4 6.3.2.3.1.6-.2.8-2 1-3.5 2.8-4 3.6-2.6 3.7-1.5 8.7-.5 11.1.3.5 1 .4 1.1-.1z"/><path class="st2" d="M239.2 69.7c-.4-3.4 12.2-10.3 24.5-10 11.3.3 23.4 6.6 22.9 10-.9 6.3-46.6 6.3-47.4 0z"/></svg>