<svg version="1.1" id="Layer_1" xmlns="http://www.w3.org/2000/svg" x="0" y="0" viewBox="0 0 200 74" style="enable-background:new 0 0 200 74" xml:space="preserve"><style>.st2{fill:#fff}</style><path d="M2.6 64.6c2.2 2 5.2 2.9 8.1 3.6 2.3.6 4.7 1.1 7 1.5 13.6 2.5 27.5 2.9 41.4 3.2h.9c11.5.2 23 .5 34.5.7 29.7.6 59.7 1.2 88.7-4.8 1.2-.2 2.4-.5 3.5-.8 1-.3 3.2-.9 3.2-1 14.5-3.8 13.9-23-6-22.2-9.9-.3-8.8-8.4-9.7-15.4 1-8.3-6-15.4-17.8-9.6-5.1 2.6-11.7 5.7-12.4-.2.8-20.9-36.4-31-43-.4-2.6 5.8-11.5 6.8-14.6 1.2C74.6.4 49.2 4.2 44.2 26.3c-.5 5.3-3.9 7.3-5.5 7.6-3.8.8-2.9 1.1-6.8 1.7-5.5.8-7.6 3.1-10.3 7.9-1.2 2.2-1.7 4.8-3.5 6.6-4.5 4.5-14.5 1-17.5 6.6-1.4 2.6-.2 5.9 2 7.9z" style="fill:#fff2eb"/><linearGradient id="SVGID_1_" gradientUnits="userSpaceOnUse" x1="198.319" y1="39.085" x2="198.319" y2="74" gradientTransform="matrix(-1 0 0 1 298.638 0)"><stop offset="0" style="stop-color:#fff2eb"/><stop offset=".288" style="stop-color:#feeee8"/><stop offset=".54" style="stop-color:#fde3e0"/><stop offset=".777" style="stop-color:#fcd2d2"/><stop offset=".989" style="stop-color:#fabbc1"/></linearGradient><path d="M10.7 68.2c2.3.6 4.7 1.1 7 1.5 13.6 2.5 27.5 2.9 41.4 3.2h.9c11.5.2 23 .5 34.5.7 29.7.6 59.7 1.2 88.7-4.8 1.2-.2 2.4-.5 3.5-.8l3-.9c.1 0 .2-.1.2-.1-4 .7-9.2-4-12.7-3.7-4.9.4-9.7 4.7-13.5 2.9-3.3-1.6-1-6.1-1.1-9.3-.1-3.1-2.1-6.9-5.9-7.1-4-.2-9.5 5.4-11.3 2.4-2.9-4.9-2.5-11.3-8.8-12.8-3.5-.9-7.9-.2-9.6 2.4-.8 1.3-.9 2.8-1.3 4.2-1.8 6.4-11.3 10.4-18.7 8-6-2-11.3-7.4-17.3-5.7-4.1 1.2-8.8 6.4-11.5 3.7-5-5-13.8-5.8-20.3-2.3S46.8 59 39.8 61.9c-4.7 1.9-10 2.4-14.9 4-2.1.7-10.6 3.1-14.2 2.3z" style="fill:url(#SVGID_1_)"/><path class="st2" d="M111.5 8.9c5-3.2 16.7-4.6 24.6 4.8 3.2 4 .1 2.9-1.6 1.6-5.8-3.4-15.1-7.5-22.7-2.2-2 1.4-3.9-1.9-.3-4.2zM55.3 14c5-3.2 16.7-4.6 24.6 4.8 3.2 4 .1 2.9-1.6 1.6-5.8-3.4-15.1-7.5-22.7-2.2-1.9 1.4-3.9-1.9-.3-4.2z"/></svg>