<svg version="1.1" id="Layer_1" xmlns="http://www.w3.org/2000/svg" x="0" y="0" viewBox="0 0 241 145" style="enable-background:new 0 0 241 145" xml:space="preserve"><style>.st0{fill:#ed1b30}.st1{fill:#50000e}.st2{fill:#fff}</style><path class="st0" d="M134 48.9c16.5-15.2 17.5-40.1 17.5-40.1-.1-.5 0-1.4-.2-2.1-.3-1.2-1.3-2.8-2.3-3.9-1.5-1.7 1.1-2.7 1.6-1.9 1 .6 6.2 5.4 6.2 5.4 13.4 29.3 4.7 35.7 4.7 35.7s-37.1 15.7-27.5 6.9zM52.5 58.2s-.2 22.6 6.2 36.9c.7 2.1 6.5 4.5 8 3.2l-12.4-42s-1.1-2.8-1.8 1.9z"/><path class="st0" d="M68.5 102.7s24.8-5.5 69-23.4c0 0 80-31.1 102.9-68.7 0 0 1.8-4.4-3.6-5.2 0 0-24.1-7.2-67.5 14.1-31.7 16.3-40.8 32.5-107 58.9-6.5 3.7-10.3 5.9-10.3 5.9s-27.4 16.2-23.7 19.9c5.3 5.3 31.7 0 40.2-1.5z"/><path class="st0" d="M208.3 42c13.4-9.5 25.3-20.1 32.2-31.4 0 0 0-.2.1-.4-6.6 4.6-13.1 9.4-18.1 15.7-4.8 6-8.8 11.6-14.2 16.1zM55.7 85.7c1.7-1.2 2.5-2.9 1.1-3.6-4.4-2.4-24.6-13.2-37.4-16.3-1.3-.4-2.5-.8-3.7-.3-1.4.6-3.2 1.6-4.1 3.4-1.4 2.9 24.1 26.2 24.1 26.2s12.2-3.8 20-9.4zM3.6 113.7s21.1-.5 37.5-7.8c2.3-1 4.2-3.8 2.9-6.3-1.5-3.5-8-1.3-8-1.3L1.1 111.9s-3 1.4 2.5 1.8z"/><path class="st1" d="m182.2 33.8-2-3.7c-.5-.9-.2-2.2.8-2.7l1.3-.7c.9-.5 2.2-.2 2.7.8l2 3.7c.5.9.2 2.2-.8 2.7l-1.3.7c-1 .5-2.2.1-2.7-.8zM172.4 31.8c-.9.6-1.2 1.8-.7 2.7l2 3.6c.5 1 1.7 1.3 2.7.8l1.3-.7c1-.5 1.3-1.7.8-2.7l-2-3.7c-.5-1-1.7-1.3-2.7-.8l-.1.1c-.4.3-.8.5-1.3.7zM165.2 36.1c-.4.2-.7.4-1.1.6-.9.6-1.2 1.7-.7 2.7l1.7 3.1c.5 1 1.7 1.3 2.7.8l1.1-.6c1-.5 1.3-1.7.8-2.7l-1.7-3.1c-.5-1-1.8-1.3-2.8-.8zM157.4 40.8c-.4.2-.7.4-1.1.6-1 .5-1.3 1.7-.8 2.7l1.4 2.5c.5 1 1.7 1.3 2.7.8l1.1-.6c1-.5 1.3-1.7.8-2.7l-1.4-2.6c-.6-1-1.8-1.3-2.7-.7zM149.4 45.1c-.3.1-.6.3-.9.5-1 .5-1.3 1.7-.8 2.7l1.2 2.1c.5 1 1.7 1.3 2.7.8l.9-.5c1-.5 1.3-1.7.8-2.7l-1.1-2c-.6-1-1.8-1.3-2.8-.9zM141.4 49.6c-.2.1-.5.3-.7.4-1 .5-1.3 1.7-.8 2.7l1 1.8c.5 1 1.7 1.3 2.7.8l.7-.4c1-.5 1.3-1.7.8-2.7l-1-1.8c-.5-1-1.7-1.3-2.7-.8zM133.4 53.9l-1.2.6c-.9.5-1.2 1.5-.7 2.4l.9 1.7c.5.9 1.6 1.2 2.4.7l1.2-.6c.9-.5 1.2-1.6.7-2.4l-.9-1.7c-.5-.8-1.5-1.1-2.4-.7zM125.9 57.8c-.4.2-.7.4-1.1.6-.8.5-1.2 1.5-.7 2.4l.9 1.5c.5.9 1.6 1.2 2.4.7l1.1-.6c.9-.5 1.2-1.6.7-2.4l-.8-1.5c-.5-.9-1.5-1.2-2.5-.7zM118.4 61.7c-.2.1-.5.2-.7.3-.8.4-1.2 1.5-.7 2.4l.7 1.2c.5.9 1.6 1.2 2.4.7l.7-.4c.9-.5 1.2-1.6.7-2.4l-.7-1.2c-.4-.8-1.4-1.1-2.4-.6zM111.8 64.9c-.2.2-.5.3-.7.4-.9.4-1.3 1.5-.8 2.4l.6 1.2c.5.9 1.6 1.2 2.4.7l.7-.4c.9-.5 1.2-1.6.7-2.4l-.6-1.1c-.4-.8-1.4-1.1-2.3-.8zM105.7 67.8c-.5.3-.9.5-1.4.7-.6.3-.8 1.1-.5 1.7l1 1.8c.3.6 1 .8 1.6.5l1.3-.7c.6-.3.8-1 .5-1.6l-1-1.7c-.3-.6-1-.8-1.5-.7zM99.2 70.9l-1.2.6c-.6.3-.8 1.1-.5 1.7l1.1 2c.3.6 1 .8 1.6.5l1.2-.6c.6-.3.8-1 .5-1.6l-1.1-1.9c-.3-.6-1-.8-1.6-.7zM92.7 74c-.5.2-1 .5-1.5.7-.6.3-.8 1.1-.5 1.7l.9 1.7c.3.6 1 .8 1.6.5l1.5-.8c.6-.3.8-1 .5-1.6l-.9-1.6c-.3-.5-1-.8-1.6-.6zM85.9 77.2c-.4.2-.9.4-1.3.6-.7.3-.9 1.1-.6 1.7l.9 1.6c.3.6 1 .8 1.6.5l1.3-.7c.6-.3.8-1 .5-1.6l-.9-1.5c-.3-.5-1-.8-1.5-.6zM79.9 79.9l-1.2.5c-.7.3-.9 1.1-.6 1.7l.8 1.5c.3.6 1 .8 1.6.5l1.1-.6c.6-.3.8-1 .5-1.6l-.8-1.4c-.3-.5-1-.7-1.4-.6zM73.7 82.6l-1.1.5c-.7.3-.9 1.1-.6 1.7l.7 1.2c.3.6 1 .8 1.6.5l1-.6c.6-.3.8-1 .5-1.6l-.6-1.1c-.3-.5-1-.7-1.5-.6zM205.3 12.8c-.2.1-.2.4 0 .5 1.3.8 5.2 3.6 6.8 5.2.1.2.3.1.4 0 3.3-4.5 6.1-7.4 8.4-9.4.1-.2 0-.5-.2-.5-1.3-.1-2.6-.1-3.9-.2-1.9-.1-3.6-.2-5.3 0-.1 0-.2.1-.2.1-1.8 1.5-4 3-6 4.3zM223.1 7.2c2.1-1.4 3.6-2 4.6-2.6.1 0 0-.2-.1-.2-3.5-.1-7.9.1-13.3.9l-.1.1c-.2.3-.5.7-.8 1-.1.1 0 .2.1.2 1.8 0 7.8.3 9.6.6 0 .1 0 0 0 0zM202.9 14.3c-3.4 2.1-6.1 3.9-5.7 4.5 1.2 1.7 2.5 3.4 3.8 5.1.2.3.4.5.6.8 1.4 1.9 2.5 3.4 5 1.7.6-.4 1.3-1.2 2-2.2.9-1.2 1.7-2.6 2.5-3.8.1-.2.1-.4 0-.5-1.5-1.5-6.2-4.8-7.7-5.6-.2-.1-.3-.1-.5 0z"/><path class="st2" d="M138.6 42.4c-19.4 11-33.3 18.8-48.1 25.7-1.3.5-.7 1.3.3.8 28.8-12.5 49-25 49-25 1.2-.6.8-2.6-1.2-1.5zM35.6 75c-9.6-4.8-11.5-5.3-14.3-6.7-1-.6.2-1.1 1.2-.6 4.9 1.9 8.7 3.7 13.8 6C43.8 77.1 48 79 48 79c2 1.2.5 2.8-1.4 1.6"/><path d="M45 101.4c58.8-13.9 119.6-41.9 157-65.6 33-22.3 32.2-29.7 32.2-29.7" style="fill:none;stroke:#50000e;stroke-width:2.8346;stroke-linecap:round;stroke-miterlimit:10"/><path class="st0" d="m194.837 37.616 4.773-3.468 3.468 4.773-4.773 3.469zM127.9 89.2c-24.1 2.2-31.4 6.7-33.7 9.2-1.3 1.5-.9 2.8-.8 3.3 2.9 11 39.5 3.5 39.5 3.5l-5-16z"/><path class="st0" d="m143.1 77.1-44 37.5-41.7 26.6s-1.9 1.9-2 1.9c-9.2-3-9.7-6.2-9.7-6.2s-.3-.8.7-1.4c.7-.4 1.3 0 1.8.4 3.1 2.2 4.6 2.3 5.6 2.5 54.7-44.5 56.1-54.5 56.1-54.5 7.2-6.9 16.2-10.9 27-15 4.1-1.4 8.1-.9 9.9 1.6 2.8 4.2-3.6 6.7-3.7 6.6z"/><path class="st1" d="M46.2 136.8c-.4.4-.2.7 0 1 .8 1.1 2.9 3.2 8.6 5.1 2.5 1 2.8.3 4.4-.7 50.2-30.4 85.7-63.2 85.7-63.2s4.7-4.7 2.1-8.5c-16.3 16.5-35.7 37.2-90.5 70.6-4.9-1.3-7.6-2.9-9.1-4.5-.4-.4-.9-.2-1.2.2z"/><path class="st0" d="M127.7 89.1c3.3-.9 7 2.1 8.2 6.6s-.6 8.9-3.9 9.8c-3.3.9-7-2.1-8.2-6.6-1.2-4.5.6-8.9 3.9-9.8z"/><path d="M128.6 90.7c2.7-.7 5.5 1.7 6.5 5.3 1 3.6-.4 7.1-3 7.8-2.6.7-5.5-1.7-6.5-5.3-1-3.7.4-7.2 3-7.8z" style="fill:#9196ca"/><path d="M126.7 96.2c-.5.3-1 .5-1.5.8.1.7.3 1.3.6 2 .3.6.6 1.3 1 1.8.5-.1 1-.3 1.6-.5 2.5-1 4.2-2.8 3.7-3.9s-2.9-1.2-5.4-.2z" style="fill:#fff2eb"/></svg>