<svg version="1.1" id="Layer_1" xmlns="http://www.w3.org/2000/svg" x="0" y="0" viewBox="0 0 241 145" style="enable-background:new 0 0 241 145" xml:space="preserve"><style>.st0{fill:#ed1b30}.st1{fill:#50000e}.st2{fill:#fff}</style><path class="st0" d="M79.5 42s-8.7-6.4 4.7-35.7c0 0 5.2-4.8 6.2-5.4.5-.8 3.1.2 1.6 1.9-1 1.1-2 2.7-2.3 3.9-.2.7-.1 1.6-.2 2.1 0 0 1 24.9 17.5 40.1 9.6 8.8-27.5-6.9-27.5-6.9zM186.7 56.3l-12.4 42c1.5 1.3 7.3-1.1 8-3.2 6.4-14.3 6.2-36.9 6.2-36.9-.7-4.7-1.8-1.9-1.8-1.9z"/><path class="st0" d="M212.7 104.2c3.7-3.7-23.7-19.9-23.7-19.9s-3.8-2.2-10.3-5.9c-66.2-26.4-75.3-42.6-107-58.9C28.3-1.8 4.2 5.4 4.2 5.4c-5.4.8-3.6 5.2-3.6 5.2 22.9 37.6 102.9 68.7 102.9 68.7 44.2 17.9 69 23.4 69 23.4 8.5 1.5 34.9 6.8 40.2 1.5z"/><path class="st0" d="M18.5 25.9C13.5 19.6 7 14.8.4 10.2c.1.2.1.4.1.4C7.4 21.9 19.3 32.5 32.7 42c-5.4-4.5-9.4-10.1-14.2-16.1zM205.3 95.1s25.5-23.3 24.1-26.2c-.9-1.8-2.7-2.8-4.1-3.4-1.2-.5-2.4-.1-3.7.3-12.8 3.1-33 13.9-37.4 16.3-1.4.7-.6 2.4 1.1 3.6 7.8 5.6 20 9.4 20 9.4zM239.9 111.9 205 98.3s-6.5-2.2-8 1.3c-1.3 2.5.6 5.3 2.9 6.3 16.4 7.3 37.5 7.8 37.5 7.8 5.5-.4 2.5-1.8 2.5-1.8z"/><path class="st1" d="m56.1 34.6-1.3-.7c-1-.5-1.3-1.8-.8-2.7l2-3.7c.5-1 1.8-1.3 2.7-.8l1.3.7c1 .5 1.3 1.8.8 2.7l-2 3.7c-.5.9-1.7 1.3-2.7.8zM67.3 31.1l-.1-.1c-1-.5-2.2-.2-2.7.8l-2 3.7c-.5 1-.2 2.2.8 2.7l1.3.7c1 .5 2.2.2 2.7-.8l2-3.6c.5-.9.2-2.1-.7-2.7-.5-.2-.9-.4-1.3-.7zM73 36.9 71.3 40c-.5 1-.2 2.2.8 2.7l1.1.6c1 .5 2.2.2 2.7-.8l1.7-3.1c.5-1 .2-2.1-.7-2.7-.4-.2-.7-.4-1.1-.6-1-.5-2.3-.2-2.8.8zM80.9 41.5l-1.4 2.6c-.5 1-.2 2.2.8 2.7l1.1.6c1 .5 2.2.2 2.7-.8l1.4-2.5c.5-1 .2-2.2-.8-2.7-.4-.2-.7-.4-1.1-.6-.9-.6-2.1-.3-2.7.7zM88.8 46l-1.1 2c-.5 1-.2 2.2.8 2.7l.9.5c1 .5 2.2.2 2.7-.8l1.2-2.1c.5-1 .2-2.2-.8-2.7-.3-.2-.6-.4-.9-.5-1-.4-2.2-.1-2.8.9zM96.9 50.4l-1 1.8c-.5 1-.2 2.2.8 2.7l.7.4c1 .5 2.2.2 2.7-.8l1-1.8c.5-1 .2-2.2-.8-2.7-.2-.1-.5-.3-.7-.4-1-.5-2.2-.2-2.7.8zM105.2 54.6l-.9 1.7c-.5.8-.2 1.9.7 2.4l1.2.6c.8.5 1.9.2 2.4-.7l.9-1.7c.5-.9.2-1.9-.7-2.4l-1.2-.6c-.9-.4-1.9-.1-2.4.7zM112.6 58.5l-.8 1.5c-.5.8-.2 1.9.7 2.4l1.1.6c.8.5 1.9.2 2.4-.7l.9-1.5c.5-.9.1-1.9-.7-2.4-.4-.2-.7-.4-1.1-.6-1-.5-2-.2-2.5.7zM120.2 62.3l-.7 1.2c-.5.8-.2 1.9.7 2.4l.7.4c.8.5 1.9.2 2.4-.7l.7-1.2c.5-.9.1-2-.7-2.4-.2-.1-.5-.2-.7-.3-1-.5-2-.2-2.4.6zM126.9 65.7l-.6 1.1c-.5.8-.2 1.9.7 2.4l.7.4c.8.5 1.9.2 2.4-.7l.6-1.2c.5-.9.1-2-.8-2.4-.2-.1-.5-.2-.7-.4-.9-.3-1.9 0-2.3.8zM133.8 68.5l-1 1.7c-.3.6-.1 1.3.5 1.6l1.3.7c.6.3 1.3.1 1.6-.5l1-1.8c.3-.6.1-1.4-.5-1.7-.5-.2-.9-.4-1.4-.7-.5-.1-1.2.1-1.5.7zM140.2 71.6l-1.1 1.9c-.3.6-.1 1.3.5 1.6l1.2.6c.6.3 1.3.1 1.6-.5l1.1-2c.3-.6.1-1.4-.5-1.7l-1.2-.6c-.6-.1-1.3.1-1.6.7zM146.7 74.6l-.9 1.6c-.3.6-.1 1.3.5 1.6l1.5.8c.6.3 1.3.1 1.6-.5l.9-1.7c.3-.6.1-1.4-.5-1.7-.5-.2-1-.5-1.5-.7-.6-.2-1.3.1-1.6.6zM153.6 77.8l-.9 1.5c-.3.6-.1 1.3.5 1.6l1.3.7c.6.3 1.3.1 1.6-.5l.9-1.6c.3-.6.1-1.4-.6-1.7-.4-.2-.9-.4-1.3-.6-.5-.2-1.2.1-1.5.6zM159.7 80.5l-.8 1.4c-.3.6-.1 1.3.5 1.6l1.1.6c.6.3 1.3.1 1.6-.5l.8-1.5c.3-.6.1-1.4-.6-1.7l-1.2-.5c-.4-.1-1.1.1-1.4.6zM165.8 83.2l-.6 1.1c-.3.6-.1 1.3.5 1.6l1 .6c.6.3 1.3.1 1.6-.5l.7-1.2c.3-.6.1-1.4-.6-1.7l-1.1-.5c-.5-.1-1.2.1-1.5.6zM29.7 8.5s-.1-.1-.2-.1c-1.7-.2-3.4-.1-5.3 0-1.3.1-2.6.1-3.9.2-.2 0-.3.3-.2.5 2.3 2 5.1 4.9 8.4 9.4.1.1.3.2.4 0 1.6-1.6 5.5-4.4 6.8-5.2.2-.1.2-.4 0-.5-2-1.3-4.2-2.8-6-4.3zM17.9 7.2c1.8-.3 7.8-.6 9.6-.6.1 0 .2-.1.1-.2-.3-.3-.6-.7-.8-1l-.1-.1c-5.4-.8-9.8-1-13.3-.9-.1 0-.2.2-.1.2 1 .6 2.5 1.2 4.6 2.6 0 0 0 .1 0 0zM37.6 14.3c-1.5.8-6.2 4.1-7.7 5.6-.1.1-.1.3 0 .5.8 1.2 1.6 2.6 2.5 3.8.7 1 1.4 1.8 2 2.2 2.5 1.7 3.6.2 5-1.7.2-.3.4-.5.6-.8 1.3-1.7 2.6-3.4 3.8-5.1.4-.6-2.3-2.4-5.7-4.5-.2-.1-.3-.1-.5 0z"/><path class="st2" d="M101.2 43.9s20.2 12.5 49 25c1 .5 1.6-.3.3-.8-14.8-6.9-28.7-14.7-48.1-25.7-2-1.1-2.4.9-1.2 1.5zM194.4 80.6c-1.9 1.2-3.4-.4-1.4-1.6 0 0 4.2-1.9 11.7-5.3 5.1-2.3 8.9-4.1 13.8-6 1-.5 2.2 0 1.2.6-2.8 1.4-4.7 1.9-14.3 6.7"/><path d="M6.8 6.1S6 13.5 39 35.8c37.4 23.7 98.2 51.7 157 65.6" style="fill:none;stroke:#50000e;stroke-width:2.8346;stroke-linecap:round;stroke-miterlimit:10"/><path class="st0" d="m41.393 34.125 4.773 3.469-3.468 4.773-4.773-3.468zM108.1 105.2s36.6 7.5 39.5-3.5c.1-.5.5-1.8-.8-3.3-2.3-2.5-9.6-7-33.7-9.2l-5 16z"/><path class="st0" d="M94.2 70.5c1.8-2.5 5.8-3 9.9-1.6 10.8 4.1 19.8 8.1 27 15 0 0 1.4 10 56.1 54.5 1-.2 2.5-.3 5.6-2.5.5-.4 1.1-.8 1.8-.4 1 .6.7 1.4.7 1.4s-.5 3.2-9.7 6.2c-.1 0-2-1.9-2-1.9l-41.7-26.6-44-37.5c-.1.1-6.5-2.4-3.7-6.6z"/><path class="st1" d="M193.6 136.6c-1.5 1.6-4.2 3.2-9.1 4.5C129.7 107.7 110.3 87 94 70.5c-2.6 3.8 2.1 8.5 2.1 8.5s35.5 32.8 85.7 63.2c1.6 1 1.9 1.7 4.4.7 5.7-1.9 7.8-4 8.6-5.1.2-.3.4-.6 0-1-.3-.4-.8-.6-1.2-.2z"/><path class="st0" d="M117.2 98.9c-1.2 4.5-4.9 7.5-8.2 6.6-3.3-.9-5.1-5.3-3.9-9.8 1.2-4.5 4.9-7.5 8.2-6.6 3.3.9 5.1 5.3 3.9 9.8z"/><path d="M115.4 98.5c-1 3.6-3.9 6-6.5 5.3-2.6-.7-4-4.2-3-7.8 1-3.6 3.8-6 6.5-5.3 2.6.6 4 4.1 3 7.8z" style="fill:#9196ca"/><path d="M108.9 96.4c-.5 1.1 1.2 2.9 3.7 3.9.6.2 1.1.4 1.6.5.4-.5.7-1.2 1-1.8.3-.7.5-1.3.6-2-.5-.3-1-.5-1.5-.8-2.5-1-4.9-.9-5.4.2z" style="fill:#fff2eb"/></svg>