<?xml version="1.0" encoding="utf-8"?>
<!-- Generator: Adobe Illustrator 25.2.3, SVG Export Plug-In . SVG Version: 6.00 Build 0)  -->
<svg version="1.1" id="Layer_1" xmlns="http://www.w3.org/2000/svg" xmlns:xlink="http://www.w3.org/1999/xlink" x="0px" y="0px"
	 viewBox="0 0 300 114" style="enable-background:new 0 0 300 114;" xml:space="preserve">
<style type="text/css">
	.st0{fill:#50000E;}
	.st1{fill:#FFFFFF;}
	.st2{fill:#EC1C24;}
	.st3{clip-path:url(#SVGID_2_);fill:#EC1C24;}
</style>
<g>
	<path class="st0" d="M284.1,3.3l-64.8,2.6c0,0.9-0.7,1.7-1.6,1.8c-0.9,0-1.7-0.7-1.8-1.6L7.6,14c-4.4,0.2-7.8,3.9-7.6,8.3L0.6,38
		l2.6,64.4c0.3,6.6,5.8,11.7,12.4,11.4l204.4-7.7c0-0.9,0.7-1.7,1.6-1.8c0.9,0,1.7,0.7,1.8,1.6l60.8-2.5c6.6-0.3,11.7-5.8,11.4-12.4
		L293,26.5l-0.6-15.7C292.2,6.5,288.5,3.1,284.1,3.3z"/>
	<path class="st1" d="M292,0.2h-64.8c0,0.9-0.8,1.7-1.7,1.7v21.9v74.7c0.9,0,1.7,0.8,1.7,1.7H288c6.6,0,11.9-5.3,11.9-11.9V23.9V8.2
		C300,3.8,296.4,0.2,292,0.2z"/>
	<path class="st2" d="M225.5,1.9v21.9L7.4,25.3V9.6c0-4.4,3.6-8,8-8l208.5-1.5C223.8,1.2,224.6,1.9,225.5,1.9z"/>
	<path class="st1" d="M225.5,23.9v74.7c-0.9,0-1.7,0.8-1.7,1.7l-204.5,1.5c-6.6,0-11.9-5.3-11.9-11.9V25.3L225.5,23.9z"/>
	<circle class="st0" cx="225.5" cy="31" r="1.7"/>
	<circle class="st0" cx="225.5" cy="38.7" r="1.7"/>
	<circle class="st0" cx="225.5" cy="46.4" r="1.7"/>
	<circle class="st0" cx="225.5" cy="7.9" r="1.7"/>
	<circle class="st0" cx="225.5" cy="15.6" r="1.7"/>
	<circle class="st0" cx="225.5" cy="23.3" r="1.7"/>
	<circle class="st0" cx="225.5" cy="54.1" r="1.7"/>
	<circle class="st0" cx="225.5" cy="61.8" r="1.7"/>
	<circle class="st0" cx="225.5" cy="69.5" r="1.7"/>
	<circle class="st0" cx="225.5" cy="77.2" r="1.7"/>
	<circle class="st0" cx="225.5" cy="84.9" r="1.7"/>
	<circle class="st0" cx="225.5" cy="92.6" r="1.7"/>
	<g>
		<g>
			<g>
				<defs>
					<path id="SVGID_1_" d="M225.5,23.9v74.7c-0.9,0-1.7,0.8-1.7,1.7l-204.5,1.5c-6.6,0-11.9-5.3-11.9-11.9V25.3L225.5,23.9z"/>
				</defs>
				<clipPath id="SVGID_2_">
					<use xlink:href="#SVGID_1_"  style="overflow:visible;"/>
				</clipPath>
				<path class="st3" d="M225.4,99.1L225,77.2L6.9,79.5l0.3,15.7c0.1,4.4,3.7,7.9,8.1,7.8l208.5-2.1
					C223.7,99.9,224.5,99.1,225.4,99.1z"/>
			</g>
		</g>
	</g>
	<g>
		<path class="st2" d="M287.8,51.8c-0.2-1-0.5-2.2-0.9-3.2c-0.8-2.2-1.5-3.1-2.4-3.9c-0.1-0.1-0.3,0-0.2,0.2
			c0.4,0.9,0.7,2.1,0.8,3.4c0.3,3.4-2.4,5.5-4,6.6c-0.3,0.2-0.8-0.1-0.6-0.5c0.6-1.9,0.7-2.8,0.3-6.2c-0.2-1.8-0.7-3.4-1.1-4.4
			c-0.1-0.3-0.4-0.4-0.7-0.3c-8.8,5-9.5,25.5-10.7,27.1c-0.4,0.5-1,0.7-1.6,0.5l-4.5-1.6c-1-0.3-1.2-1.6-0.5-2.3
			c1.1-1.1,5.8-19.8,14.6-25.5c0.3-0.2,0.3-0.7-0.1-0.9c-1.3-0.5-2.5-0.9-3.3-1c-2.5-0.3-4.6,0-6.2,0.4c-0.5,0.1-0.8-0.4-0.5-0.8
			c0.9-1.1,2.4-2.6,4.8-3.4c3.1-0.9,5.1-0.2,6,0.2c0.2,0.1,0.3-0.1,0.2-0.2c-0.3-0.7-0.7-1.5-2.6-2.5c-1.9-1.1-3.7-1.4-4.9-1.4
			c-0.5,0-0.7-0.6-0.3-0.9c0.9-0.7,2.1-1.3,3.6-1.5c3.7-0.5,6.7,1.1,8.7,5.3c0.1,0.1,0.2,0.2,0.4,0.2c0.1-0.1,0.3-0.1,0.4-1
			c0.1-0.4,0-0.8,0-1.1c-0.1-0.4,0.3-0.7,0.7-0.6c0.7,0.3,1.7,0.9,2.4,1.7c1.5,1.8,1.5,3.4,0,5.1c-0.2,0.2-0.1,0.5,0.1,0.7
			c1.6,1,2.7,2.5,3.1,3.1c1.9,3.1,0.8,7.1-0.1,9C288.4,52.3,287.9,52.3,287.8,51.8z"/>
		<path class="st2" d="M237.6,46.7c0.3-1.3,0.8-2.7,1.4-3.9c1.2-2.6,2.1-3.7,3.3-4.6c0.1-0.1,0.3,0,0.2,0.2c-0.5,1-1,2.5-1.2,4.2
			c-0.6,4.1,2.6,7,4.4,8.4c0.4,0.3,0.9-0.1,0.8-0.5c-0.5-2.3-0.6-3.5,0.1-7.7c0.4-2.2,1.1-4.1,1.7-5.4c0.2-0.3,0.6-0.5,0.9-0.3
			c10.5,6.9,9.7,32.1,11,34.2c0.4,0.6,1.2,0.9,1.9,0.7l5.7-1.6c1.2-0.3,1.7-1.8,0.8-2.8c-1.3-1.5-5.5-24.8-16-32.5
			c-0.4-0.3-0.3-0.9,0.2-1.1c1.6-0.6,3.2-1,4.1-1c3-0.1,5.6,0.4,7.6,1c0.6,0.2,1.1-0.5,0.7-1c-1-1.4-2.7-3.4-5.7-4.5
			c-3.7-1.4-6.2-0.7-7.4-0.2c-0.2,0.1-0.4-0.1-0.3-0.3c0.5-0.8,1-1.8,3.4-2.9c2.5-1.2,4.6-1.4,6.2-1.4c0.6,0,0.9-0.7,0.4-1.1
			c-1-0.9-2.5-1.8-4.3-2.1c-4.5-0.9-8.3,0.8-11.1,5.9c-0.1,0.2-0.3,0.2-0.5,0.2c-0.2-0.1-0.3-0.2-0.4-1.3c0-0.5,0-1,0.1-1.4
			c0.1-0.5-0.4-0.9-0.9-0.8c-0.9,0.3-2.2,0.9-3.1,1.9c-1.9,2.1-2.1,4.1-0.4,6.3c0.2,0.3,0.1,0.6-0.2,0.8c-2,1-3.5,2.8-4,3.6
			c-2.6,3.7-1.5,8.7-0.5,11.1C236.8,47.3,237.5,47.2,237.6,46.7z"/>
		<path class="st2" d="M239.2,69.7c-0.4-3.4,12.2-10.3,24.5-10c11.3,0.3,23.4,6.6,22.9,10C285.7,76,240,76,239.2,69.7z"/>
	</g>
</g>
<g>
	<g>
		<path class="st1" d="M21.8,18.3C21,18,20.4,17.5,20,16.9c-0.4-0.6-0.6-1.4-0.6-2.4l0,0c0-0.9,0.2-1.7,0.6-2.4
			c0.4-0.6,1-1.1,1.8-1.5c0.8-0.3,1.8-0.5,3-0.5c1.2,0,2.2,0.1,3,0.4c0.8,0.3,1.4,0.7,1.7,1.2c0.4,0.5,0.6,1.1,0.6,1.7
			c0,0.2,0,0.3,0,0.5l-3.6,0.1c0-0.1,0-0.2,0-0.3c0-0.2-0.1-0.5-0.2-0.7c-0.1-0.2-0.3-0.3-0.5-0.4c-0.2-0.1-0.5-0.2-0.9-0.2
			c-0.6,0-1,0.1-1.3,0.4c-0.3,0.3-0.4,0.7-0.4,1.4l0,0.1c0,0.4,0.1,0.8,0.2,1c0.1,0.3,0.3,0.4,0.6,0.6c0.2,0.1,0.6,0.2,0.9,0.2
			c0.5,0,0.9-0.1,1.2-0.3c0.3-0.2,0.4-0.6,0.4-1.1l0,0l3.7,0v0c0,0.8-0.2,1.6-0.6,2.2c-0.4,0.6-1,1-1.8,1.3
			c-0.8,0.3-1.8,0.5-2.9,0.5C23.6,18.8,22.6,18.6,21.8,18.3z"/>
		<path class="st1" d="M33.1,10.2l4.9,0l3.8,8.3l-3.8,0l-0.2-0.4c-0.1-0.3-0.2-0.5-0.4-0.6c-0.2-0.1-0.4-0.3-0.7-0.3
			c-0.3-0.1-0.6-0.1-1.1-0.1c-0.4,0-0.8,0-1.1,0.1c-0.3,0.1-0.5,0.2-0.7,0.3c-0.2,0.2-0.3,0.4-0.4,0.6l-0.2,0.4l-3.8,0L33.1,10.2z
			 M35.2,15.2c0.3-0.1,0.5-0.2,0.8-0.2c0.2,0,0.3,0,0.5,0c-0.4-0.9-0.7-1.6-0.9-2.1l-0.3,0c-0.4,1-0.7,1.7-0.9,2.1
			c-0.1,0.2-0.2,0.5-0.3,0.6l0.2,0.1C34.7,15.5,34.9,15.3,35.2,15.2z"/>
		<path class="st1" d="M48.3,16.1l-1.1,0l-1.4,2.3l-4.1,0l2.2-3.2l0-0.3c-0.4,0-0.7-0.2-1-0.4c-0.3-0.2-0.5-0.4-0.7-0.8
			c-0.2-0.3-0.3-0.7-0.3-1.2l0-0.1c0-0.5,0.1-0.9,0.3-1.3c0.2-0.4,0.5-0.6,0.9-0.9c0.4-0.2,0.9-0.3,1.5-0.3l7.1-0.1l0.1,8.3l-3.6,0
			L48.3,16.1z M45.5,13.8c0.1,0.1,0.3,0.2,0.6,0.2l2.2,0l0-1.5l-2.2,0c-0.3,0-0.5,0.1-0.6,0.2c-0.1,0.1-0.2,0.3-0.2,0.5l0,0.1
			C45.3,13.5,45.4,13.7,45.5,13.8z"/>
		<path class="st1" d="M55,14.1L52.3,10l3.8,0l1.7,2.7l0.3,0l0.8-2.7l3.7,0L60,14.1l2.8,4.2l-3.9,0l-1.7-2.7l-0.3,0L56,18.4l-3.7,0
			L55,14.1z"/>
		<path class="st1" d="M66.3,9.9l4.9,0l3.8,8.3l-3.8,0L71,17.8c-0.1-0.3-0.2-0.5-0.4-0.6c-0.2-0.1-0.4-0.3-0.7-0.3
			c-0.3-0.1-0.6-0.1-1.1-0.1c-0.4,0-0.8,0-1.1,0.1c-0.3,0.1-0.5,0.2-0.7,0.3c-0.2,0.2-0.3,0.4-0.4,0.6l-0.2,0.4l-3.8,0L66.3,9.9z
			 M68.4,14.9c0.3-0.1,0.5-0.2,0.8-0.2c0.2,0,0.3,0,0.5,0c-0.4-0.9-0.7-1.6-0.9-2.1l-0.3,0c-0.4,1-0.7,1.7-0.9,2.1
			c-0.1,0.2-0.2,0.5-0.3,0.6l0.2,0.1C67.9,15.2,68.1,15,68.4,14.9z"/>
		<path class="st1" d="M76.7,12.8l-3.2,0l0-3l10-0.1l0,3l-3.2,0l0,5.4l-3.6,0L76.7,12.8z"/>
		<path class="st1" d="M90.9,18.1l-1.1,0L88,15.2l-0.3,0l0,2.9l-3.6,0l-0.1-8.3l3.6,0l0,2.8l0.3,0l0.9-1.3c0.3-0.4,0.6-0.8,0.9-1
			c0.3-0.2,0.7-0.4,1-0.5c0.4-0.1,0.9-0.2,1.4-0.2c0.4,0,0.8,0,1.3,0.1l0,3.1c-0.3,0-0.6,0-0.8,0c-0.3,0-0.6,0-0.8,0.1
			c-0.2,0.1-0.4,0.2-0.6,0.3c-0.2,0.1-0.3,0.3-0.5,0.6l-0.1,0.2l1,1.4l2.4,0l0,4.2l-3.3,0L90.9,18.1z"/>
		<path class="st1" d="M98.1,9.7l4.9,0l3.8,8.3l-3.8,0l-0.2-0.4c-0.1-0.3-0.2-0.5-0.4-0.6c-0.2-0.1-0.4-0.3-0.7-0.3
			c-0.3-0.1-0.6-0.1-1.1-0.1c-0.4,0-0.8,0-1.1,0.1c-0.3,0.1-0.5,0.2-0.7,0.3c-0.2,0.2-0.3,0.4-0.4,0.6L98.3,18l-3.8,0L98.1,9.7z
			 M100.1,14.7c0.3-0.1,0.5-0.2,0.8-0.2c0.2,0,0.3,0,0.5,0c-0.4-0.9-0.7-1.6-0.9-2.1l-0.3,0c-0.4,1-0.7,1.7-0.9,2.1
			c-0.1,0.2-0.2,0.5-0.3,0.6l0.2,0.1C99.7,15,99.9,14.8,100.1,14.7z"/>
		<path class="st1" d="M111.9,17.6c-0.8-0.3-1.4-0.8-1.8-1.4c-0.4-0.6-0.6-1.4-0.6-2.4l0,0c0-0.9,0.2-1.7,0.6-2.4
			c0.4-0.6,1-1.1,1.8-1.5c0.8-0.3,1.8-0.5,3-0.5c1.2,0,2.2,0.1,3,0.4c0.8,0.3,1.4,0.7,1.7,1.2c0.4,0.5,0.6,1.1,0.6,1.7
			c0,0.2,0,0.3,0,0.5l-3.6,0.1c0-0.1,0-0.2,0-0.3c0-0.2-0.1-0.5-0.2-0.7c-0.1-0.2-0.3-0.3-0.5-0.4c-0.2-0.1-0.5-0.2-0.9-0.2
			c-0.6,0-1,0.1-1.3,0.4c-0.3,0.3-0.4,0.7-0.4,1.4l0,0.1c0,0.4,0.1,0.8,0.2,1c0.1,0.3,0.3,0.4,0.6,0.6c0.2,0.1,0.6,0.2,0.9,0.2
			c0.5,0,0.9-0.1,1.2-0.3c0.3-0.2,0.4-0.6,0.4-1.1l0,0l3.7,0v0c0,0.8-0.2,1.6-0.6,2.2c-0.4,0.6-1,1-1.8,1.3
			c-0.8,0.3-1.8,0.5-2.9,0.5C113.6,18.1,112.7,17.9,111.9,17.6z"/>
		<path class="st1" d="M120.7,9.5l8.7-0.1l0,2.6l-5.1,0l0,0.7l4.8,0l0,1.6l-4.8,0l0,0.7l5.1,0l0,2.6l-8.7,0.1L120.7,9.5z"/>
		<path class="st1" d="M130.1,9.4l6.4-0.1c0.8,0,1.4,0.1,1.8,0.3c0.5,0.2,0.8,0.5,1.1,1c0.2,0.5,0.4,1.1,0.4,1.9v0
			c0,0.8-0.1,1.4-0.3,1.9c-0.2,0.5-0.6,0.8-1.1,1.1c-0.5,0.2-1.1,0.3-1.9,0.3l-0.1,0c-0.5,0-1,0-1.3-0.1c-0.4-0.1-0.6-0.2-0.8-0.4
			c-0.2-0.2-0.4-0.4-0.5-0.6l-0.2,0.1c0.1,0.2,0.1,0.4,0.1,0.6c0,0.2,0,0.3,0,0.5c0,0.2,0,0.4,0,0.7l0,1.2l-3.6,0L130.1,9.4z
			 M133.9,13.4c0.1,0.1,0.2,0.2,0.4,0.3c0.2,0.1,0.5,0.1,0.8,0.1c0.4,0,0.6,0,0.8-0.1c0.2-0.1,0.3-0.2,0.4-0.3
			c0.1-0.1,0.1-0.3,0.1-0.6v0c0-0.3,0-0.4-0.1-0.6c-0.1-0.1-0.2-0.3-0.4-0.3c-0.2-0.1-0.5-0.1-0.8-0.1l-1.4,0l0,1.1
			C133.8,13.1,133.8,13.3,133.9,13.4z"/>
		<path class="st1" d="M143.3,12.3l-3.2,0l0-3l10-0.1l0,3l-3.2,0l0,5.4l-3.6,0L143.3,12.3z"/>
		<path class="st1" d="M157.7,17.5l0-1.7c0-0.6,0-1.2,0-1.8c0-0.6,0.1-1.2,0.1-1.9l-0.3,0c-0.3,1.2-0.6,2.2-0.8,3
			c-0.2,0.8-0.4,1.6-0.6,2.3l-5.4,0l-0.1-8.3l3.5,0l0,1.7c0,0.6,0,1.2,0,1.8c0,0.6-0.1,1.2-0.1,1.9l0.3,0c0.3-1.1,0.5-2.1,0.7-2.9
			c0.2-0.8,0.4-1.6,0.5-2.4l5.6,0l0.1,8.3L157.7,17.5z"/>
		<path class="st1" d="M165.7,16.7c-0.9-0.1-1.7-0.3-2.2-0.6c-0.6-0.3-1-0.7-1.3-1.1c-0.3-0.5-0.4-1-0.4-1.7l0,0
			c0-0.7,0.1-1.2,0.4-1.7c0.3-0.5,0.7-0.8,1.2-1.1c0.6-0.3,1.3-0.5,2.2-0.6l0-0.7l3.6,0l0,0.7c0.9,0.1,1.7,0.3,2.3,0.6
			c0.6,0.3,1,0.7,1.3,1.1c0.3,0.5,0.4,1,0.4,1.7l0,0c0,0.7-0.1,1.2-0.4,1.7c-0.3,0.5-0.7,0.8-1.2,1.1c-0.6,0.3-1.3,0.5-2.2,0.6
			l0,0.7l-3.6,0L165.7,16.7z M164.9,14c0.1,0.2,0.2,0.3,0.3,0.4s0.4,0.2,0.7,0.2l0-2.7c-0.3,0.1-0.5,0.1-0.7,0.3
			c-0.2,0.1-0.3,0.2-0.3,0.4c-0.1,0.2-0.1,0.4-0.1,0.6l0,0.2C164.8,13.6,164.8,13.8,164.9,14z M169.7,14.3c0.2-0.1,0.3-0.2,0.3-0.4
			c0.1-0.2,0.1-0.4,0.1-0.6l0-0.2c0-0.2,0-0.4-0.1-0.6c-0.1-0.2-0.2-0.3-0.3-0.4c-0.2-0.1-0.4-0.2-0.7-0.2l0,2.7
			C169.3,14.5,169.6,14.5,169.7,14.3z"/>
		<path class="st1" d="M180.8,17.3l0-1.7c0-0.6,0-1.2,0-1.8s0.1-1.2,0.1-1.9l-0.3,0c-0.3,1.2-0.6,2.2-0.8,3
			c-0.2,0.8-0.4,1.6-0.6,2.3l-5.4,0l-0.1-8.3l3.5,0l0,1.7c0,0.6,0,1.2,0,1.8c0,0.6-0.1,1.2-0.1,1.9l0.3,0c0.3-1.1,0.6-2.1,0.7-2.9
			c0.2-0.8,0.4-1.6,0.5-2.4l5.6,0l0.1,8.3L180.8,17.3z"/>
		<path class="st1" d="M185.2,9l3.6,0l0,2.8l0.3,0l0.9-1.3c0.3-0.4,0.6-0.8,0.9-1c0.3-0.2,0.7-0.4,1-0.5c0.4-0.1,0.9-0.2,1.4-0.2
			c0.4,0,0.8,0,1.3,0.1l0,3.1c-0.3,0-0.6,0-0.8,0c-0.3,0-0.6,0-0.8,0.1c-0.2,0.1-0.4,0.2-0.6,0.3c-0.2,0.1-0.3,0.3-0.5,0.6L192,13
			l3,4.2l-4,0l-1.8-2.9l-0.3,0l0,2.9l-3.6,0L185.2,9z"/>
		<path class="st1" d="M198.5,8.9l4.9,0l3.8,8.3l-3.8,0l-0.2-0.4c-0.1-0.3-0.2-0.5-0.4-0.6c-0.2-0.1-0.4-0.3-0.7-0.3
			c-0.3-0.1-0.6-0.1-1.1-0.1c-0.4,0-0.8,0-1.1,0.1s-0.5,0.2-0.7,0.3c-0.2,0.2-0.3,0.4-0.4,0.6l-0.2,0.4l-3.8,0L198.5,8.9z
			 M200.6,13.8c0.3-0.1,0.5-0.2,0.8-0.2c0.2,0,0.3,0,0.5,0c-0.4-0.9-0.7-1.6-0.9-2.1l-0.3,0c-0.4,1-0.7,1.7-0.9,2.1
			c-0.1,0.2-0.2,0.5-0.3,0.6l0.2,0.1C200.1,14.2,200.3,14,200.6,13.8z"/>
		<path class="st1" d="M208.9,11.8l-3.2,0l0-3l10-0.1l0,3l-3.2,0l0,5.4l-3.6,0L208.9,11.8z"/>
	</g>
</g>
<g>
	<path class="st2" d="M23.2,52.2c-1.6-0.4-2.8-1.1-3.5-1.9c-0.7-0.8-1.1-1.8-1.1-2.9c0-0.4,0-0.8,0.1-1.3l8.1-0.3c0,0.1,0,0.3,0,0.4
		c0,0.9,0.9,1.3,2.8,1.3c0.7,0,1.2-0.1,1.6-0.2c0.4-0.2,0.7-0.4,0.9-0.7c0.2-0.3,0.3-0.7,0.3-1.3v-0.1c0-1.5-0.9-2.3-2.8-2.3
		c-0.8,0-1.4,0.1-1.8,0.3c-0.4,0.2-0.8,0.5-1,0.9h-8V32.7H40v5.6H26.2v1.2c0,0.8-0.1,1.4-0.3,1.9l0.6,0.1c0.7-0.6,1.6-1,2.6-1.3
		c1-0.3,2.3-0.4,3.7-0.4c1.7,0,3.2,0.2,4.3,0.7c1.2,0.5,2,1.2,2.6,2.1c0.6,0.9,0.9,2,0.9,3.4v0.1c0,1.5-0.4,2.7-1.1,3.7
		c-0.7,1-1.9,1.8-3.5,2.3c-1.6,0.5-3.7,0.8-6.3,0.8C27,52.9,24.8,52.7,23.2,52.2z"/>
	<path class="st2" d="M52.9,50.3c-2-1.7-3.1-4.3-3.1-7.6v-0.1c0-3.4,1-5.9,3.1-7.6c2-1.7,5.1-2.6,9.2-2.6c4.1,0,7.1,0.9,9.2,2.6
		c2,1.7,3.1,4.3,3.1,7.6v0.1c0,3.4-1,5.9-3.1,7.6c-2,1.7-5.1,2.6-9.2,2.6C58,52.9,55,52,52.9,50.3z M65,46.2
		c0.6-0.7,0.9-1.8,0.9-3.3v-0.6c0-1.5-0.3-2.6-0.9-3.3c-0.6-0.7-1.6-1.1-2.8-1.1c-1.3,0-2.2,0.4-2.8,1.1c-0.6,0.7-0.9,1.8-0.9,3.3
		v0.6c0,1.5,0.3,2.6,0.9,3.3c0.6,0.7,1.6,1,2.8,1C63.4,47.2,64.3,46.9,65,46.2z"/>
	<path class="st2" d="M79.5,50.3c-2-1.7-3.1-4.3-3.1-7.6v-0.1c0-3.4,1-5.9,3.1-7.6c2-1.7,5.1-2.6,9.2-2.6c4.1,0,7.1,0.9,9.2,2.6
		c2,1.7,3.1,4.3,3.1,7.6v0.1c0,3.4-1,5.9-3.1,7.6c-2,1.7-5.1,2.6-9.2,2.6C84.6,52.9,81.5,52,79.5,50.3z M91.5,46.2
		c0.6-0.7,0.9-1.8,0.9-3.3v-0.6c0-1.5-0.3-2.6-0.9-3.3c-0.6-0.7-1.6-1.1-2.8-1.1c-1.3,0-2.2,0.4-2.8,1.1c-0.6,0.7-0.9,1.8-0.9,3.3
		v0.6c0,1.5,0.3,2.6,0.9,3.3c0.6,0.7,1.6,1,2.8,1C89.9,47.2,90.9,46.9,91.5,46.2z"/>
	<path class="st2" d="M106.1,50.3c-2-1.7-3.1-4.3-3.1-7.6v-0.1c0-3.4,1-5.9,3.1-7.6c2-1.7,5.1-2.6,9.2-2.6c4.1,0,7.1,0.9,9.2,2.6
		c2,1.7,3.1,4.3,3.1,7.6v0.1c0,3.4-1,5.9-3.1,7.6c-2,1.7-5.1,2.6-9.2,2.6C111.2,52.9,108.1,52,106.1,50.3z M118.1,46.2
		c0.6-0.7,0.9-1.8,0.9-3.3v-0.6c0-1.5-0.3-2.6-0.9-3.3c-0.6-0.7-1.6-1.1-2.8-1.1c-1.3,0-2.2,0.4-2.8,1.1c-0.6,0.7-0.9,1.8-0.9,3.3
		v0.6c0,1.5,0.3,2.6,0.9,3.3c0.6,0.7,1.6,1,2.8,1S117.5,46.9,118.1,46.2z"/>
	<path class="st2" d="M140,50.3c-2-1.7-3.1-4.3-3.1-7.6v-0.1c0-3.4,1-5.9,3.1-7.6c2-1.7,5.1-2.6,9.2-2.6c4.1,0,7.1,0.9,9.2,2.6
		c2,1.7,3.1,4.3,3.1,7.6v0.1c0,3.4-1,5.9-3.1,7.6c-2,1.7-5.1,2.6-9.2,2.6C145.1,52.9,142,52,140,50.3z M152,46.2
		c0.6-0.7,0.9-1.8,0.9-3.3v-0.6c0-1.5-0.3-2.6-0.9-3.3c-0.6-0.7-1.6-1.1-2.8-1.1s-2.2,0.4-2.8,1.1c-0.6,0.7-0.9,1.8-0.9,3.3v0.6
		c0,1.5,0.3,2.6,0.9,3.3c0.6,0.7,1.6,1,2.8,1S151.3,46.9,152,46.2z"/>
	<path class="st2" d="M166.5,50.3c-2-1.7-3.1-4.3-3.1-7.6v-0.1c0-3.4,1-5.9,3.1-7.6c2-1.7,5.1-2.6,9.2-2.6c4.1,0,7.1,0.9,9.2,2.6
		c2,1.7,3.1,4.3,3.1,7.6v0.1c0,3.4-1,5.9-3.1,7.6c-2,1.7-5.1,2.6-9.2,2.6C171.6,52.9,168.6,52,166.5,50.3z M178.5,46.2
		c0.6-0.7,0.9-1.8,0.9-3.3v-0.6c0-1.5-0.3-2.6-0.9-3.3c-0.6-0.7-1.6-1.1-2.8-1.1c-1.3,0-2.2,0.4-2.8,1.1c-0.6,0.7-0.9,1.8-0.9,3.3
		v0.6c0,1.5,0.3,2.6,0.9,3.3c0.6,0.7,1.6,1,2.8,1C177,47.2,177.9,46.9,178.5,46.2z"/>
	<path class="st2" d="M193.1,50.3c-2-1.7-3.1-4.3-3.1-7.6v-0.1c0-3.4,1-5.9,3.1-7.6c2-1.7,5.1-2.6,9.2-2.6c4.1,0,7.1,0.9,9.2,2.6
		c2,1.7,3.1,4.3,3.1,7.6v0.1c0,3.4-1,5.9-3.1,7.6c-2,1.7-5.1,2.6-9.2,2.6C198.2,52.9,195.1,52,193.1,50.3z M205.1,46.2
		c0.6-0.7,0.9-1.8,0.9-3.3v-0.6c0-1.5-0.3-2.6-0.9-3.3c-0.6-0.7-1.6-1.1-2.8-1.1c-1.3,0-2.2,0.4-2.8,1.1c-0.6,0.7-0.9,1.8-0.9,3.3
		v0.6c0,1.5,0.3,2.6,0.9,3.3c0.6,0.7,1.6,1,2.8,1C203.5,47.2,204.5,46.9,205.1,46.2z"/>
</g>
<g>
	<path class="st2" d="M80.2,63.8h-4.6v-4.3H90v4.3h-4.6v7.7h-5.1V63.8z"/>
	<path class="st2" d="M91.5,59.5H104v3.8h-7.4v1h6.9v2.4h-6.9v1.1h7.4v3.8H91.5V59.5z"/>
	<path class="st2" d="M117.3,71.5h-1.7v-2.7c0-0.4-0.1-0.8-0.2-1.1c-0.2-0.3-0.4-0.5-0.8-0.6c-0.3-0.1-0.8-0.2-1.4-0.2
		c-0.6,0-1,0.1-1.4,0.2c-0.3,0.1-0.6,0.4-0.8,0.6c-0.2,0.3-0.2,0.6-0.2,1.1v2.7h-5.1v-12h5.1v3.4c0,0.4,0,0.8-0.1,1.1
		c-0.1,0.3-0.1,0.6-0.3,1l0.3,0.1c0.4-0.6,0.9-1,1.4-1.3s1.2-0.5,2-0.5c0.4,0,0.9,0,1.3,0.1v-3.9h5.1v7.9h1.6v6h-5.1V71.5z"/>
	<path class="st2" d="M124.1,59.5h11.5v4.3h-6.3v7.7h-5.1V59.5z"/>
	<path class="st2" d="M137.1,59.5h12.5v3.8h-7.4v1h6.9v2.4h-6.9v1.1h7.4v3.8h-12.5V59.5z"/>
</g>
<g>
	<g>
		<path class="st1" d="M77.8,84.4l11.9-0.1l0,3.6l-7,0.1l0,1l6.6-0.1l0,2.3l-6.6,0.1l0,1l7-0.1l0,3.6l-11.9,0.1L77.8,84.4z"/>
		<path class="st1" d="M90.7,84.3l4.9,0l0,3.9l0.4,0l1.3-1.8c0.4-0.6,0.8-1,1.2-1.4c0.4-0.3,0.9-0.6,1.4-0.7c0.5-0.1,1.2-0.2,2-0.2
			c0.5,0,1.1,0,1.8,0.1l0,4.3c-0.4,0-0.8,0-1,0c-0.4,0-0.8,0-1.1,0.1c-0.3,0.1-0.5,0.2-0.8,0.4c-0.2,0.2-0.4,0.4-0.7,0.8l-0.1,0.2
			l4.1,5.8l-5.6,0l-2.5-4l-0.4,0l0,4l-4.9,0L90.7,84.3z"/>
		<path class="st1" d="M104.7,84.2l4.9,0l0.1,11.5l-4.9,0L104.7,84.2z"/>
		<path class="st1" d="M114.5,84.1l8.9-0.1c1,0,1.9,0.1,2.5,0.4c0.6,0.3,1.1,0.7,1.5,1.4c0.3,0.6,0.5,1.5,0.5,2.6l0,0
			c0,1.1-0.1,2-0.5,2.7c-0.3,0.7-0.8,1.2-1.5,1.5c-0.7,0.3-1.5,0.5-2.6,0.5l-0.1,0c-0.7,0-1.4-0.1-1.8-0.2c-0.5-0.1-0.9-0.3-1.1-0.6
			c-0.3-0.2-0.5-0.5-0.7-0.9l-0.3,0.1c0.1,0.3,0.1,0.6,0.2,0.8c0,0.2,0,0.4,0.1,0.6c0,0.2,0,0.5,0,0.9l0,1.6l-4.9,0L114.5,84.1z
			 M119.6,89.6c0.1,0.2,0.3,0.3,0.6,0.4c0.3,0.1,0.7,0.1,1.1,0.1c0.5,0,0.9-0.1,1.1-0.2c0.3-0.1,0.4-0.3,0.5-0.5
			c0.1-0.2,0.1-0.5,0.1-0.8l0,0c0-0.3-0.1-0.6-0.2-0.8c-0.1-0.2-0.3-0.4-0.5-0.5c-0.3-0.1-0.6-0.1-1.1-0.1l-1.9,0l0,1.5
			C119.4,89.2,119.5,89.4,119.6,89.6z"/>
		<path class="st1" d="M128.6,84l11.9-0.1l0,3.6l-7,0.1l0,1l6.6-0.1l0,2.3l-6.6,0.1l0,1l7-0.1l0,3.6l-11.9,0.1L128.6,84z"/>
		<path class="st1" d="M145.5,87.9l-4.4,0l0-4.1l13.7-0.1l0,4.1l-4.4,0l0.1,7.4l-4.9,0L145.5,87.9z"/>
	</g>
</g>
</svg>
