<?xml version="1.0" encoding="utf-8"?>
<!-- Generator: Adobe Illustrator 25.2.3, SVG Export Plug-In . SVG Version: 6.00 Build 0)  -->
<svg version="1.1" id="Layer_1" xmlns="http://www.w3.org/2000/svg" xmlns:xlink="http://www.w3.org/1999/xlink" x="0px" y="0px"
	 viewBox="0 0 212 300" style="enable-background:new 0 0 212 300;" xml:space="preserve">
<style type="text/css">
	.st0{fill:url(#SVGID_1_);}
	.st1{fill:#50000D;}
	.st2{fill:#00A99B;}
	.st3{opacity:0.28;fill:#00A99B;enable-background:new    ;}
	.st4{fill:#FFF2EB;}
</style>
<g>
	<g>
		<g>
			
				<linearGradient id="SVGID_1_" gradientUnits="userSpaceOnUse" x1="183.5089" y1="6.3289" x2="257.0233" y2="6.3289" gradientTransform="matrix(0.9998 -1.938885e-02 -1.938885e-02 -0.9998 -83.6681 305.263)">
				<stop  offset="3.714686e-07" style="stop-color:#FFFFFF;stop-opacity:0"/>
				<stop  offset="1" style="stop-color:#000000"/>
			</linearGradient>
			<path class="st0" d="M132.2,289.2c-13.9,0.3-32.6,2.3-32.5,5s11.1,4,25,5c18.7,1.3,30.7,0.9,37.8-0.3c9.6-1.6,10.7-4.5,10.7-6.1
				C173.2,290,146.1,288.9,132.2,289.2z"/>
		</g>
	</g>
	<path class="st1" d="M101,83.3c1.3,3,3.9,10.8,5.7,14.9c3.7,8.3,8.5,18.7,14.2,31c0.2,0.4,0.4,0.8,0.6,1.2
		c1.5,3.2,3.1,6.6,4.7,10.1c0.2,0.5,0.5,1,0.7,1.5c4.4,9.3,9.1,19.5,14,30.3c0.1,0.4,0.3,0.8,0.5,1.2c0.7,1.5,1.3,3,2,4.5
		c0.1,0.3,0.3,0.7,0.4,1c4.1,9.3,8.3,19.1,12.2,29.4c0.1,0.2,0.2,0.5,0.3,0.8c0.6,1.5,1.1,3.1,1.7,4.6c0.2,0.5,0.4,1.1,0.6,1.6
		c0.4,1.2,0.9,2.5,1.3,3.7c2.9,8.1,5.2,15.8,7.1,23.1c0.2,0.8,0.4,1.5,0.6,2.3c0.1,0.8,0.3,1.6,0.5,2.3c0.1,0.4,0.2,0.7,0.3,1.1
		c0.2,0.5,0.3,1,0.4,1.5c3.8,16.8,5,30.7,4.6,42.3c0.7,10.5-29.2,9.4-27.8,1.8c2-11.3,2.8-27.5,0.9-44.4c-0.1-0.5-0.1-1.1-0.2-1.7
		c0-0.4-0.1-0.7-0.1-1.1c-0.1-0.8-0.2-1.5-0.3-2.2c-1.1-7.9-2.7-16.3-4.8-25.6c-0.2-0.9-0.4-1.7-0.6-2.6l0,0
		c-0.2-0.7-0.3-1.5-0.5-2.2c-0.2-0.8-0.4-1.7-0.6-2.5c-0.1-0.1-0.1-0.1-0.1-0.2c-2.6-10.8-5.7-21.2-8.8-31c-0.1-0.3-0.2-0.7-0.3-1
		c-0.5-1.6-1-3.1-1.5-4.6c-0.2-0.5-0.3-1.1-0.5-1.6c-3.4-10.3-6.7-20-9.9-29c-0.2-0.5-0.3-1-0.5-1.5c-1.3-3.5-2.4-6.8-3.6-10.1
		c-0.1-0.6-0.3-1.1-0.5-1.6C107,111.7,100,95.1,96.8,85.4C97.9,85.5,99.9,82.9,101,83.3z"/>
	<g>
		<path class="st2" d="M115,121.7c-0.1-0.8,0-1.6,0.1-2.2c0.1-0.7-0.8-2.2-1.4-2.4c-2.4-0.9-4.7-1.9-7-3c2,0.5,4.1,1,6.2,1.5
			c0.7,0.2,1.5-1.5,1.2-2.5c-0.6-2.1-1.4-4.3-2-6.4c-0.1-0.6-1.4-1.8-1.8-1.9c-2.4-0.4-4.9-0.9-7.4-1.4c2.2-0.2,4.3-0.4,6.5-0.6
			c0.5,0,0.5-1.3,0-2c-1.1-1.4-2.1-3.2-3-5.3c-2.4-5.9-1-11-2-11.3c-0.4-0.1-1.8-0.1-2.7,0.8c-3.5,3.7-8.8,15.2-4.6,23
			c2.5,4.3,6.6,5.8,15.3,15.1c1.4,1.5,2.5,2.7,3.3,3.6C115.3,125.4,114.9,123.6,115,121.7z"/>
		<path class="st2" d="M82.9,48.3c5.6,3.3,8.6,7.3,10,8.9c9.8,11.4,6.5,28.4,3.9,28.3c-0.9,0-1.3-1.7-4.2-6.4
			c-2.7-4.4-5.6-8.1-7.9-10.8c-1.7-2,0.8-3.1,0.8-3.1l2.8-1.1L83.6,64c0,0-2.8-0.6-3.3-2.6c-0.9-1.7-1.9-3.5-2.7-5.2
			C77,55.1,76,53,77.9,53s2.4,0,2.4,0s-1.4-1.5-3.2-1.2c-1.9,0.3-2.5-1.8-2.9-2.4c-0.4-0.6-0.9-1.3-1.6-2c-1.8-1.9-3.7-3-4.9-3.7
			C70.3,43.8,76.4,44.4,82.9,48.3z"/>
		<path class="st2" d="M3,120.6c0.6-3.2,1.6-6.7,3.3-10.4c1.2-2.5,2.5-5,4.3-7.5c7-10.1,16.4-14.9,20.2-17.2
			c20.7-12.7,51.5-9.1,63.9-4.5c3.4,1.2,5.4,2.5,5.5,3.6c0.1,1.6-4.2,2-15.2,6.5c-13.2,5.4-23.3,11.4-29.9,15.7l-6.2-10.9l0.5,7.9
			c0,0,0.3,5.1-3.5,6.2c-5.9,2-12.3,4.1-18.2,5.8c-3.4,0.8-4.3-2.7-4.3-2.7l-0.4-4.3l-2.4,6.1c0,0-0.8,3.1-3.6,4
			c-1.5,0.7-4.7,2.3-6.3,3.4c-1,0.7-1.9,1.4-2.7,2.1c-2.7,2.3-4.5,4.7-5.6,6.4C2.4,128.5,2.4,124.9,3,120.6z"/>
		<path class="st2" d="M105,77.6c10.5-13,35.4-33.7,58.9-33.7c4.6,0,15.4-1,26.7,4.9c0.1,0,0.1,0,0.1,0c13,6.8,18.8,18.4,21,23.6
			c-2.3-1.4-6.3-3.2-11.7-3.6c-2-0.1-8,0.3-9.7,0.5c-2,0.1-1.8-0.5-3-1.9c-1.7-2.6-5-4.7-5-4.7s0.6,3.3,2.3,6c0.8,1.3,1,2.5-0.4,3
			c-5.6,1.8-17,5.3-22.8,6.9c-2.1,0.6-3,0.9-4.5-1.1c-2.6-3.4-4.4-11.5-4.4-11.5s-0.3,6.9-0.4,10.2c-0.1,3.3-4.5,5-7,5
			c-7.5,0.1-18-1.2-29,0.9c-12.3,2.4-15,4.2-15.7,2.5C99.8,83.3,101.3,82.1,105,77.6z"/>
		<path class="st2" d="M91.3,12.7c0.5-2,1.2-4.2,2.1-6.4c0.8-2,1.7-4.1,2.8-6.2c0,0,5.2,2.2,9.1,6.1c1.3,1.3,3.6,4.2,0.7,7.7
			s-3.9,5.4-3.9,5.4s1.6-0.8,4.4-2.4s5.1,1.4,5.8,3.3c1.9,5,4.6,13,6.3,18.2c1.1,3-1,4.2-1,4.2l-10.7,6.2c0,0,3.2-0.5,9.5-1.1
			c2.4-0.2,4.2-0.2,2.9,2.4c-8.2,16.4-18.5,37-20.4,36.1c-0.2-0.1-0.3-0.3-0.3-0.6c-0.1-0.8-3.3-1.3-2.9-3.3
			c0.2-1.1,3.2-3.3,3.4-4.6c0.1-0.9,0.9-1.7,1-2.8c1.3-17.1-6.7-26.2-9.6-40c-0.2-1.1-0.4-2.3-0.6-3.5
			C89.3,26.7,89.2,20.3,91.3,12.7z"/>
		<path class="st2" d="M90.9,12.7c1-1.4,2.1-2.7,3-4c2.3-0.6,5.2-1.1,6.4,0.2c2.8,2.8-5.4,11.7-2.9,13.9c1.8,1.5,6.9-2.4,9.6-0.5
			c1.8,1.3,0.1,3.8,1.4,8.4c1.5,5.1,4.5,5.4,4.4,8.3c-0.3,5.7-12,8.8-11.3,11.1c0.7,1.9,9.5-0.5,11.6,2.5c1.6,2.3-2.1,5.7-7.9,15.1
			c-2.4,4-4.3,7.4-5.7,10.1c0.1-0.9,0.2-1.9,0.3-3c1.3-17.1-6.7-26.2-9.6-40c-0.2-1.1-0.4-2.3-0.6-3.5
			C88.9,26.5,88.9,20.1,90.9,12.7z"/>
		<path class="st2" d="M122.9,61.2c6.3-4.8,13.5-9.2,21-12.3l0,0c6.5-2.7,13.3-4.4,20-4.4c4.6,0,15.4-1,26.7,4.9c0.1,0,0.1,0,0.1,0
			c4.9,5.9,7.4,11.3,6.6,12.1c-1.4,1.3-15.2-9.7-19.3-6.6c-2.4,1.8,0.9,6.3-2.6,10.3c-2.2,2.5-5.9,3.6-8.1,4.2
			c-2.6,0.8-4.4,1.3-6.2,0.9c-6.3-1.3-7.1-11.7-9.8-11.5c-2.5,0.2-1.2,8.5-7,13.7c-2.4,2.1-3.8-0.1-22.2,1.6
			c-8.9,0.8-14.6,4.1-17,4.1C109.2,73.1,115.5,66.9,122.9,61.2z"/>
		<path class="st2" d="M2.8,72.2c0.9-0.6,1.8-1.3,2.8-2c0.6-0.5,4.2-3,8.7-6.1C21.4,59.3,30.8,53,35.1,51
			c23.1-10.9,59.2,24.5,64.1,33.1c0.5,0.9,0.7,1.5,0.5,1.7c-0.8,1-6.8-4.6-20.4-5.8c-7.7-0.7-14.8,0.4-20.4,1.7
			c-0.1-4.7-0.3-9.5-0.4-14.2l-6.6,14.6c-8.9,0.5-19.2,1-28.3,1.1c-3.9,0.1-3.6-3.3-3.6-3.3l2.6-6.1L16,80.3c0,0-3.5,3.2-7.1,1.9
			C5.7,81,3,79.1,1.2,77.5C-0.7,76.2,1.4,73.5,2.8,72.2z"/>
		<path class="st2" d="M14.7,64.8c7.1-4.8,16.5-11.1,20.8-13.1c4-1.9,8.4-2.4,12.9-1.9c1.1,0.1,2.3,0.3,3.5,0.6
			c0.8,0.2,1.7,0.4,2.5,0.6c1.9,0.6,3.7,1.2,5.6,2c18.3,7.6,36.2,25.9,39.5,31.8c-2-2.2-5.1-5.2-9.9-7.2c-8.1-3.5-12.4-0.7-18.9-4.1
			c-7.6-4-7.5-11-11.4-10.7c-4.3,0.3-4.6,8.6-13.4,12.6c-2.6,1.2-5,1.6-6.3,1.8c-2.8,0.4-8.6,1.2-10.9-1.2c-2.6-2.9,1.5-8.3-0.3-9.4
			c-2.5-1.5-10.7,7.3-13.7,5.7C13.2,71.5,13.6,68.3,14.7,64.8z"/>
		<path class="st3" d="M144,48.9L144,48.9c4.2-1.3,8.8-2.2,13.5-2.6c14.1-1.1,25.8,2.9,25.8,3c-0.1,0.1-9.8-3-22.7-1.6
			c-8.8,1-15.5,3.8-28.9,9.6c-3.5,1.5-6.4,2.8-8.7,3.9C129.3,56.4,136.5,52,144,48.9z"/>
		<path class="st2" d="M10.8,103.5c7-10.1,16.4-14.9,20.2-17.2c20.7-12.7,51.5-9.1,63.9-4.5c-7.5,0.8-22.5-0.4-38.7,17.5
			c-5.9-1-6.9-13.1-8.3-12.9c-1.6,0.3,2.3,15.9-4.8,20.1c-1.1,0.6-1.1,0.2-7.1,2.3s-6.7,2.7-8,2.4c-4.3-1.2-3-10.2-5.7-10.7
			c-3.3-0.6-6.6,12.7-11.6,12.8c-1.3,0-2.8-0.9-4.1-2.5C7.7,108.3,9.1,105.8,10.8,103.5z"/>
		<path class="st2" d="M97.5,84.4c0.5-4.9,45-14.7,63.4,2.4c4.3,3.9,6,8.4,9.1,14.7c2.8,5.8,6.7,13.3,14.6,23.6
			c2.6,3.5-6.7-3.6-5.1-1.7c-3-1.3,4.3,6.8-0.9,5.8c-4.3-0.8-11.6-13.6-12.2-20c-0.6,3.7-4.1,4.4-5.3,9.7c-0.8,1.2-4.2,1.4-6.8-0.5
			c-4.7-3.4-7.6-4.3-12.6-7c1.6-6.2,0.1-10.4,1.7-16.7c-3.3,5.4-6.9,5.9-10.2,11.2c-2.8-3.9-6.9-4.3-13.5-9.2c0.1,0,0,0,0,0
			C107.3,87.4,97.2,86.8,97.5,84.4z"/>
		<path class="st2" d="M121.6,92.8c10.3,7.1,9.8,9.6,11.1,9.1c3.2-1.3,2-6.7,6.9-9.3c1.3-0.6,4.2-1.7,5.7-0.7c3.5,2.4-4.5,12.7,0,17
			c0.7,0.7,0.8,0.2,6.4,2.5c6,2.4,6.6,3.1,7.9,2.8c4.1-1.1,3.4-10.1,5.8-10.5c2.8-0.4,6.2,10.8,7.2,10.6c0.7-0.1-1.4-6.7-3-13.6
			c2.6,5.3,6.4,12.1,12.8,20.9c0.7,1,1.4,2,2.2,3c2.6,3.4-1,5.7-6.1,4.4c-4-1.1-7.6-1.9-8.1-2c-1.8-0.2-2.4-1.2-2.5-2.7
			c-0.4-3.9-1.1-11.9-1.5-15.7c-0.6,3.8-2.2,9.4-3.1,13.1c-0.4,1.9-2.2,3.6-6.2,1.1c-4.8-2.5-11.6-6.6-16.5-9.2
			c-1.6-0.9-1-4.4-0.5-6.3c1.1-4.4,2.2-8.8,3.3-13.2c-2.4,3.9-4.9,7.8-7.3,11.7c-0.9,1.5-4.8,1.6-6.7-0.5
			c-5.2-5.5-14.4-13.5-27.4-18.8C101.9,86.5,111.3,85.7,121.6,92.8z"/>
		<path class="st2" d="M52.5,156.3c0-0.9,0.1-1.8,0.1-2.6c0.9-22.8-4.8-30-2.4-39.5C61.5,84.9,97.6,79.1,100.9,83
			c1.6,1.9-4.7,9.3-9.8,22.3c-1.8,4.6-2.8,10.2-3.2,13.9c0,0.4,0-0.4,0,0c-0.1,1.3-3.6,1.8-4.2,1.5c-5.3-2.7-8.5-4.4-13.8-7.1
			c5,4.6,6,9.7,11,14.3c-4.2,6.9-5.8,8.7-10.5,15.1c-4-4.5-7.5-3.2-11.6-7.7c3.2,5.6,2.7,8.6,5.9,14.2c-2.2,1.1-1.5,5.2-4.6,7.7
			c-3.8,3-6.6,6.2-8.4,8.5C52,163.4,52.3,160.2,52.5,156.3z"/>
		<path class="st2" d="M52.5,155.8c0-0.9,0.1-1.8,0.1-2.6c4.7-0.5,9.3-0.3,10.3-2.7c1-2.6-3.5-4.5-5.5-11.7c-1-3.6-1.3-8.4,0.2-9
			c2.7-1,9.3,11.8,13,10.6c1.5-0.5,0.9-2.7,3.6-7.3c2.2-3.9,3.7-4.1,3.9-6.2c0.1-1.6-0.7-2.8-4.7-7.6c-5.3-6.2-6.6-7.3-6.2-7.9
			c1.2-1.6,13.8,4.1,14.5,4.4c2.6,1.2,4.6,2.1,6.2,2.9c-0.2,1.2-2.1,2.6-3,2.1c-5-2.6-10.1-5.2-15.1-7.8c3.3,3,6.5,6,9.8,9
			c6.6,5.5,3.4,7,1.6,10.7c-2.2,3.5-4.5,7.1-6.8,10.5c-1.1,1.7-5.6,2.9-8,0c-2.6-2.8-5.1-5.7-7.7-8.5c2.2,3.8,4.4,7.7,6.6,11.5
			c1,1.7,0.1,6.7-1.6,7.8c-1.1,0.7-2.3,1.5-3.6,2.5c-3.8,3-6.6,6.2-8.4,8.5C52,162.8,52.3,159.5,52.5,155.8z"/>
	</g>
	<g id="Whites_00000017510051095559709380000015735163816865997213_">
		<path class="st4" d="M89.1,87c-16.3,4.8-21.3,13.4-26,20.5c-1,1.8-3.2,0.3-2.5-0.8c6.5-13.2,20.7-18.6,28.2-20.6
			C91.7,85.3,90.5,86.6,89.1,87z"/>
		<path class="st4" d="M159,91.7c-13.7-9.8-28.4-12.2-42.3-10.3c-1.2,0.2-1.2-1.1,0.1-1.3c26.1-4,41.6,7.7,43.3,10.1
			C161.3,91.4,160,92.4,159,91.7z"/>
		<path class="st4" d="M176.4,47.5c-18.9-1.2-37.2,5.1-46,12c-0.9,0.9-2-0.1-0.7-0.9c18.8-13.7,36.8-13.8,47-12.4
			C178.1,46.2,177.9,47.8,176.4,47.5z"/>
		<path class="st4" d="M60.5,56.7c-15.2-5.2-21.9-3.1-29.4,2.3c-1.1,1-2.4,0.1-1.3-0.9c13.1-12.5,31.1-2.3,31.1-2.3
			C62.9,56.7,62.2,57.5,60.5,56.7z"/>
	</g>
</g>
</svg>
