<?xml version="1.0" encoding="utf-8"?>
<!-- Generator: Adobe Illustrator 25.2.3, SVG Export Plug-In . SVG Version: 6.00 Build 0)  -->
<svg version="1.1" id="Layer_1" xmlns="http://www.w3.org/2000/svg" xmlns:xlink="http://www.w3.org/1999/xlink" x="0px" y="0px"
	 viewBox="0 0 300 114" style="enable-background:new 0 0 300 114;" xml:space="preserve">
<style type="text/css">
	.st0{fill:#50000E;}
	.st1{fill:#FFFFFF;}
	.st2{fill:#EC1C24;}
	.st3{fill:#ED1B30;}
	.st4{clip-path:url(#SVGID_2_);fill:#EC1C24;}
</style>
<g>
	<path class="st0" d="M284.1,3.3l-64.8,2.6c0,0.9-0.7,1.7-1.6,1.8c-0.9,0-1.7-0.7-1.8-1.6L7.6,14c-4.4,0.2-7.8,3.9-7.6,8.3L0.6,38
		l2.6,64.4c0.3,6.6,5.8,11.7,12.4,11.4l204.4-7.7c0-0.9,0.7-1.7,1.6-1.8c0.9,0,1.7,0.7,1.8,1.6l60.8-2.5c6.6-0.3,11.7-5.8,11.4-12.4
		L293,26.5l-0.6-15.7C292.2,6.5,288.5,3.1,284.1,3.3z"/>
	<path class="st1" d="M292,0.2h-64.8c0,0.9-0.8,1.7-1.7,1.7v21.9v74.7c0.9,0,1.7,0.8,1.7,1.7H288c6.6,0,11.9-5.3,11.9-11.9V23.9V8.2
		C300,3.8,296.4,0.2,292,0.2z"/>
	<path class="st2" d="M225.5,1.9v21.9L7.4,25.3V9.6c0-4.4,3.6-8,8-8l208.5-1.5C223.8,1.2,224.6,1.9,225.5,1.9z"/>
	<path class="st1" d="M225.5,23.9v74.7c-0.9,0-1.7,0.8-1.7,1.7l-204.5,1.5c-6.6,0-11.9-5.3-11.9-11.9V25.3L225.5,23.9z"/>
	<circle class="st0" cx="225.5" cy="31" r="1.7"/>
	<circle class="st0" cx="225.5" cy="38.7" r="1.7"/>
	<circle class="st0" cx="225.5" cy="46.4" r="1.7"/>
	<circle class="st0" cx="225.5" cy="7.9" r="1.7"/>
	<circle class="st0" cx="225.5" cy="15.6" r="1.7"/>
	<circle class="st0" cx="225.5" cy="23.3" r="1.7"/>
	<circle class="st0" cx="225.5" cy="54.1" r="1.7"/>
	<circle class="st0" cx="225.5" cy="61.8" r="1.7"/>
	<circle class="st0" cx="225.5" cy="69.5" r="1.7"/>
	<circle class="st0" cx="225.5" cy="77.2" r="1.7"/>
	<circle class="st0" cx="225.5" cy="84.9" r="1.7"/>
	<circle class="st0" cx="225.5" cy="92.6" r="1.7"/>
	<g>
		<g>
			<path class="st1" d="M17.5,14.6L17.5,14.6c0-2.7,1.7-4.1,5-4.2c3.6,0,5,1.5,5,3.2c0,0.2,0,0.3,0,0.5L24,14.3c0-0.1,0-0.2,0-0.3
				c0-0.7-0.5-1.2-1.5-1.2s-1.6,0.5-1.6,1.7v0.1c0,1.2,0.6,1.7,1.6,1.7S24,15.9,24,15l0,0h3.5l0,0c0,2.4-1.6,3.7-5,3.8
				C19.2,18.7,17.5,17.3,17.5,14.6z"/>
			<path class="st1" d="M28.1,10.6l8.2-0.1V13h-4.8v0.7H36v1.6h-4.5V16h4.8v2.5l-8.2,0.1L28.1,10.6z"/>
			<path class="st1" d="M37,10.5h6.1c2.1,0,3,0.7,3.1,3l0,0c0,2.3-0.9,3.1-3.1,3.2H43c-1.6,0-2.2-0.5-2.5-1.1l-0.2,0.1
				c0.1,0.6,0.2,0.9,0.2,1.6v1.1h-3.4L37,10.5z M41.7,14.7c1,0,1.2-0.3,1.2-1l0,0c0-0.7-0.2-1-1.2-1h-1.3v1.1
				C40.4,14.4,40.7,14.7,41.7,14.7z"/>
			<path class="st1" d="M49.4,13.2h-3v-2.8l9.4-0.1v2.8h-3v5.1h-3.4V13.2z"/>
			<path class="st1" d="M63,18.2v-1.6c0-1.2,0-2.2,0.2-3.5h-0.3c-0.5,2-1,3.6-1.4,5.1h-5.1l-0.1-7.9h3.3v1.6c0,1.2,0,2.2-0.2,3.5
				h0.3c0.5-1.7,0.9-3.4,1.2-5.1h5.3l0.1,7.9H63z"/>
			<path class="st1" d="M70.6,17.4c-2.6-0.3-3.7-1.3-3.7-3.2l0,0c0-1.9,1-2.9,3.6-3.3v-0.7h3.4v0.7c2.7,0.3,3.7,1.3,3.7,3.2l0,0
				c0,1.9-1,2.9-3.6,3.3v0.7h-3.4V17.4z M70.8,15.4v-2.5c-0.9,0.2-1.1,0.6-1.1,1.2v0.2C69.7,14.9,69.9,15.3,70.8,15.4z M74.8,14.2
				V14c0-0.6-0.2-1-1.1-1.2v2.5C74.6,15.2,74.8,14.9,74.8,14.2z"/>
			<path class="st1" d="M84.8,18v-1.6c0-1.2,0-2.2,0.2-3.5h-0.3c-0.5,2-1,3.6-1.4,5.1h-5.1l-0.1-7.9h3.3v1.6c0,1.2,0,2.2-0.2,3.5
				h0.3c0.5-1.7,0.9-3.4,1.2-5.1H88l0.1,7.9H84.8z"/>
			<path class="st1" d="M88.9,10.1h3.4v2.7h0.3l0.9-1.3c0.8-1.2,1.6-1.6,3.2-1.6c0.4,0,0.8,0,1.2,0.1v2.9c-0.3,0-0.5,0-0.7,0
				c-0.9,0-1.3,0.2-1.7,0.9l-0.1,0.1l2.8,4h-3.8l-1.7-2.8h-0.3v2.8L89,18L88.9,10.1z"/>
			<path class="st1" d="M101.5,10h4.6l3.5,7.8H106l-0.1-0.4c-0.3-0.7-0.8-1-2.1-1c-1.2,0-1.8,0.3-2,1l-0.1,0.4h-3.6L101.5,10z
				 M104.8,14.6c-0.2-0.5-0.5-1.3-0.8-1.9h-0.3c-0.3,0.8-0.6,1.5-0.8,2c-0.1,0.3-0.2,0.4-0.3,0.6l0.2,0.1
				C103.3,14.6,103.9,14.4,104.8,14.6z"/>
			<path class="st1" d="M111.3,12.7h-3V9.9l9.4-0.1v2.8h-3v5.1h-3.4V12.7z"/>
			<path class="st1" d="M120.7,9.8h3.4v2.3c0,0.6-0.1,1-0.2,1.4l0.2,0.1c0.6-0.9,1.5-1.4,3.1-1.1V9.9h3.4l0.1,7.9h-3.4v-1.7
				c0-0.8-0.4-1.3-1.6-1.3c-1.1,0-1.5,0.4-1.5,1.3v1.7h-3.4L120.7,9.8z"/>
			<path class="st1" d="M134.5,9.7h4.6l3.5,7.8H139l-0.1-0.4c-0.3-0.7-0.8-1-2.1-1c-1.2,0-1.8,0.3-2,1l-0.1,0.4h-3.6L134.5,9.7z
				 M137.7,14.3c-0.2-0.5-0.5-1.3-0.8-1.9h-0.3c-0.3,0.8-0.6,1.5-0.8,2c-0.1,0.3-0.2,0.4-0.3,0.6l0.2,0.1
				C136.3,14.4,136.9,14.2,137.7,14.3z"/>
			<path class="st1" d="M145.5,9.6l9.7-0.1l0.1,7.9h-3.4v-5.1h-3v5.1h-3.4L145.5,9.6z"/>
			<path class="st1" d="M155.8,13.5L155.8,13.5c0-2.7,1.7-4.1,5-4.2c3.4,0,5.1,1.4,5.1,4.1l0,0c0,2.7-1.7,4.1-5,4.1
				C157.6,17.6,155.9,16.2,155.8,13.5z M162.5,13.5v-0.1c0-1.2-0.6-1.7-1.6-1.7s-1.6,0.5-1.6,1.7v0.1c0,1.2,0.6,1.7,1.6,1.7
				S162.5,14.8,162.5,13.5z"/>
			<path class="st1" d="M166.6,9.5l8.2-0.1v2.5H170v0.7h4.5v1.6H170v0.7h4.8v2.5l-8.2,0.1V9.5z"/>
			<path class="st1" d="M175.3,14.9c0-0.3,0-0.5,0.1-0.7l3.1-0.1c0,0.2,0,0.2,0,0.4c0,0.5,0.3,0.8,1.3,0.8c0.9,0,1.3-0.2,1.3-0.6
				l0,0c0-0.4-0.3-0.6-1.4-0.6H179v-1.5h0.7c1,0,1.2-0.2,1.2-0.5l0,0c0-0.4-0.4-0.6-1.3-0.6c-0.9,0-1.2,0.2-1.2,0.7
				c0,0.1,0,0.1,0,0.2l-3.1,0.1c-0.1-0.2-0.1-0.5-0.1-0.8c0-1.5,0.9-2.5,4.4-2.5c2.6,0,4.3,0.6,4.4,2.2l0,0c0,0.9-0.6,1.5-1.6,1.8
				v0.3c1.2,0.2,1.8,0.7,1.8,1.7l0,0c0,1.8-1.9,2.1-4.4,2.2C176.3,17.4,175.3,16.4,175.3,14.9z"/>
			<path class="st1" d="M184.6,14.5h0.7c0.4,0,0.5-0.2,0.6-0.7V9.3l9-0.1v5.2h1.1v3.9h-3.8v-1.2h-3.8v1.2h-3.8V14.5z M191.6,14.4
				v-2.5h-2.3v1c0,0.8-0.2,1.1-0.8,1.2v0.3H191.6z"/>
			<path class="st1" d="M196.6,9.2h3.4v2.7h0.3l0.9-1.3c0.8-1.2,1.6-1.6,3.2-1.6c0.4,0,0.8,0,1.2,0.1V12c-0.3,0-0.5,0-0.7,0
				c-0.9,0-1.3,0.2-1.7,0.9L203,13l2.8,4H202l-1.7-2.8H200V17h-3.4V9.2z"/>
			<path class="st1" d="M206,15.6c0-0.1,0-0.3,0.1-0.4l3.1-0.1v0.1c0,0.3,0.1,0.4,0.4,0.4c0.3,0,0.5-0.1,0.6-0.5l0.1-0.3h-0.2
				c-2,0-2.5-0.5-3.1-2.1l-1.2-3.5h3.7c0.4,1.1,0.8,2.5,1.2,3.6h0.2c0.4-1.1,0.8-2.5,1.1-3.7h3.6l-1.9,5.5c-0.6,1.7-1.7,2.5-4.3,2.6
				C207.1,17.2,206,16.6,206,15.6z"/>
		</g>
	</g>
	<g>
		<path class="st3" d="M23.5,47.9c0-0.4,0.1-0.9,0.1-1.2l7.8-0.3c0,0.2,0,0.3,0,0.4c0,0.9,0.9,1.3,2.7,1.3c1.9,0,2.7-0.7,2.7-2.1
			v-0.1c0-1.5-0.9-2.2-2.7-2.2c-1.5,0-2.3,0.5-2.7,1.2h-7.7V33.7H44v5.4H30.7v1.1c0,0.6-0.1,1.2-0.3,1.8l0.5,0.1
			c1.3-1.1,3.1-1.7,6.1-1.7c5,0,7.5,2.2,7.5,5.9v0.1c0,4.1-2.8,6.6-10.4,6.6C26,53,23.5,50.9,23.5,47.9z"/>
		<path class="st3" d="M53.5,43.2L53.5,43.2c0-6.4,3.9-9.9,11.8-9.9s11.8,3.5,11.8,9.9v0.1c0,6.4-3.9,9.9-11.8,9.9
			C57.3,53,53.5,49.6,53.5,43.2z M68.8,43.4v-0.6c0-3-1.2-4.2-3.6-4.2s-3.6,1.2-3.6,4.2v0.6c0,2.9,1.3,4.2,3.6,4.2
			C67.6,47.6,68.8,46.4,68.8,43.4z"/>
		<path class="st3" d="M79,43.2L79,43.2c0-6.4,3.9-9.9,11.8-9.9s11.8,3.5,11.8,9.9v0.1c0,6.4-3.9,9.9-11.8,9.9
			C82.8,53,79,49.6,79,43.2z M94.3,43.4v-0.6c0-3-1.2-4.2-3.6-4.2s-3.6,1.2-3.6,4.2v0.6c0,2.9,1.3,4.2,3.6,4.2
			C93.1,47.6,94.3,46.4,94.3,43.4z"/>
		<path class="st3" d="M104.5,43.2L104.5,43.2c0-6.4,3.9-9.9,11.8-9.9s11.8,3.5,11.8,9.9v0.1c0,6.4-3.9,9.9-11.8,9.9
			C108.3,53,104.5,49.6,104.5,43.2z M119.8,43.4v-0.6c0-3-1.2-4.2-3.6-4.2s-3.6,1.2-3.6,4.2v0.6c0,2.9,1.3,4.2,3.6,4.2
			C118.6,47.6,119.8,46.4,119.8,43.4z"/>
		<path class="st3" d="M137,43.2L137,43.2c0-6.4,3.9-9.9,11.8-9.9c7.9,0,11.8,3.5,11.8,9.9v0.1c0,6.4-3.9,9.9-11.8,9.9
			C140.9,53,137,49.6,137,43.2z M152.4,43.4v-0.6c0-3-1.2-4.2-3.6-4.2c-2.4,0-3.6,1.2-3.6,4.2v0.6c0,2.9,1.3,4.2,3.6,4.2
			C151.1,47.6,152.4,46.4,152.4,43.4z"/>
		<path class="st3" d="M162.5,43.2L162.5,43.2c0-6.4,3.9-9.9,11.8-9.9s11.8,3.5,11.8,9.9v0.1c0,6.4-3.9,9.9-11.8,9.9
			S162.5,49.6,162.5,43.2z M177.9,43.4v-0.6c0-3-1.2-4.2-3.6-4.2c-2.4,0-3.6,1.2-3.6,4.2v0.6c0,2.9,1.3,4.2,3.6,4.2
			S177.9,46.4,177.9,43.4z"/>
		<path class="st3" d="M188,43.2L188,43.2c0-6.4,3.9-9.9,11.8-9.9c7.9,0,11.8,3.5,11.8,9.9v0.1c0,6.4-3.9,9.9-11.8,9.9
			C191.8,53,188,49.6,188,43.2z M203.4,43.4v-0.6c0-3-1.2-4.2-3.6-4.2c-2.4,0-3.6,1.2-3.6,4.2v0.6c0,2.9,1.3,4.2,3.6,4.2
			C202.1,47.6,203.4,46.4,203.4,43.4z"/>
	</g>
	<g>
		<path class="st3" d="M83.2,63.5h-4.4v-4.1h13.8v4.1h-4.4v7.4h-4.9L83.2,63.5L83.2,63.5z"/>
		<path class="st3" d="M94,59.4h12V63h-7v1h6.6v2.3H99v1h7.1v3.6H94V59.4z"/>
		<path class="st3" d="M107.7,59.4h4.9v3.3c0,0.8-0.1,1.4-0.3,2l0.3,0.1c0.9-1.3,2.2-2,4.5-1.6v-3.8h4.9v11.5h-4.9v-2.5
			c0-1.2-0.6-1.9-2.3-1.9s-2.3,0.6-2.3,1.9v2.5h-4.9V59.4H107.7z"/>
		<path class="st3" d="M124.1,59.4h11v4.1H129v7.4h-4.9V59.4z"/>
		<path class="st3" d="M136.6,59.4h12V63h-7.1v1h6.6v2.3h-6.6v1h7.1v3.6h-12V59.4z"/>
	</g>
	<g>
		<g>
			<defs>
				<path id="SVGID_1_" d="M225.5,23.9v74.7c-0.9,0-1.7,0.8-1.7,1.7l-204.5,1.5c-6.6,0-11.9-5.3-11.9-11.9V25.3L225.5,23.9z"/>
			</defs>
			<clipPath id="SVGID_2_">
				<use xlink:href="#SVGID_1_"  style="overflow:visible;"/>
			</clipPath>
			<path class="st4" d="M225.4,99.1L225,77.2L6.9,79.5l0.3,15.7c0.1,4.4,3.7,7.9,8.1,7.8l208.5-2.1
				C223.7,99.9,224.5,99.1,225.4,99.1z"/>
		</g>
	</g>
	<g>
		<g>
			<path class="st1" d="M64.4,92.5h1c0.6,0,0.8-0.3,0.8-1l0.1-6.4H79l0.1,7.3h1.5V98h-5.4v-1.8h-5.4V98h-5.4L64.4,92.5z M74.3,92.4
				v-3.5h-3.2v1.5c0,1.1-0.3,1.5-1.2,1.7v0.4L74.3,92.4z"/>
			<path class="st1" d="M81.5,85l9.2-0.1c2.2,0,3.8,0.7,3.9,2.8l0,0c0,1.4-0.7,2.1-2.1,2.6v0.4c1.7,0.3,2.5,1.2,2.5,2.7l0,0
				c0,2.2-1.7,2.7-4,2.8l-9.4,0.1L81.5,85z M90.1,88.7L90.1,88.7c0-0.6-0.3-0.9-1-0.8h-2.7v1.7h2.8C89.8,89.5,90.1,89.3,90.1,88.7z
				 M90.2,92.4L90.2,92.4c0-0.7-0.3-0.9-1-0.9h-2.8v1.8h2.7C89.9,93.3,90.2,93,90.2,92.4z"/>
			<path class="st1" d="M99.6,84.9l6.5-0.1l5,11.1H106l-0.2-0.5c-0.4-1-1.2-1.4-2.9-1.4c-1.7,0-2.5,0.4-2.9,1.4l-0.2,0.5h-5.1
				L99.6,84.9z M104.3,91.4c-0.3-0.7-0.8-1.8-1.1-2.8h-0.4c-0.4,1.1-0.8,2.2-1.1,2.8c-0.2,0.4-0.3,0.6-0.5,0.8l0.3,0.1
				C102.2,91.5,103.1,91.2,104.3,91.4z"/>
			<path class="st1" d="M119.3,92h-0.4l-2.4,4h-5.4l3.9-5.7l-0.1-0.2c-0.7-0.9-1.2-1.3-2.5-1.2c-0.3,0-0.7,0-1,0v-4.1
				c0.7-0.1,1.2-0.1,1.7-0.1c2.2,0,3.4,0.5,4.6,2.2l1.3,1.8h0.4v-3.8h4.6v3.8h0.4l1.2-1.8c1.2-1.7,2.3-2.2,4.5-2.3
				c0.5,0,1.1,0,1.7,0.1v4.1c-0.4,0-0.7,0-1,0c-1.2,0-1.8,0.3-2.4,1.3l-0.1,0.2l4,5.7h-5.4l-2.5-3.9H124V96h-4.6L119.3,92z"/>
			<path class="st1" d="M132.3,92h1c0.6,0,0.8-0.3,0.8-1l0.1-6.4l12.7-0.1l0.1,7.3h1.5v5.6h-5.4v-1.8h-5.4v1.8h-5.4L132.3,92z
				 M142.2,91.9v-3.5H139v1.5c0,1.1-0.3,1.5-1.2,1.7V92L142.2,91.9z"/>
			<path class="st1" d="M149.4,84.5h4.8V88h4.1c2.5,0,4.3,1.1,4.3,3.8l0,0c0,2.6-1.7,3.8-4.2,3.8l-8.9,0.1L149.4,84.5z M157.9,91.5
				L157.9,91.5c0-0.7-0.3-0.9-1.1-0.9h-2.5v1.8h2.4C157.6,92.4,157.9,92.1,157.9,91.5z M164,84.4h4.8l0.1,11.2h-4.8L164,84.4z"/>
		</g>
	</g>
	<g>
		<path class="st2" d="M287.8,51.8c-0.2-1-0.5-2.2-0.9-3.2c-0.8-2.2-1.5-3.1-2.4-3.9c-0.1-0.1-0.3,0-0.2,0.2
			c0.4,0.9,0.7,2.1,0.8,3.4c0.3,3.4-2.4,5.5-4,6.6c-0.3,0.2-0.8-0.1-0.6-0.5c0.6-1.9,0.7-2.8,0.3-6.2c-0.2-1.8-0.7-3.4-1.1-4.4
			c-0.1-0.3-0.4-0.4-0.7-0.3c-8.8,5-9.5,25.5-10.7,27.1c-0.4,0.5-1,0.7-1.6,0.5l-4.5-1.6c-1-0.3-1.2-1.6-0.5-2.3
			c1.1-1.1,5.8-19.8,14.6-25.5c0.3-0.2,0.3-0.7-0.1-0.9c-1.3-0.5-2.5-0.9-3.3-1c-2.5-0.3-4.6,0-6.2,0.4c-0.5,0.1-0.8-0.4-0.5-0.8
			c0.9-1.1,2.4-2.6,4.8-3.4c3.1-0.9,5.1-0.2,6,0.2c0.2,0.1,0.3-0.1,0.2-0.2c-0.3-0.7-0.7-1.5-2.6-2.5c-1.9-1.1-3.7-1.4-4.9-1.4
			c-0.5,0-0.7-0.6-0.3-0.9c0.9-0.7,2.1-1.3,3.6-1.5c3.7-0.5,6.7,1.1,8.7,5.3c0.1,0.1,0.2,0.2,0.4,0.2c0.1-0.1,0.3-0.1,0.4-1
			c0.1-0.4,0-0.8,0-1.1c-0.1-0.4,0.3-0.7,0.7-0.6c0.7,0.3,1.7,0.9,2.4,1.7c1.5,1.8,1.5,3.4,0,5.1c-0.2,0.2-0.1,0.5,0.1,0.7
			c1.6,1,2.7,2.5,3.1,3.1c1.9,3.1,0.8,7.1-0.1,9C288.4,52.3,287.9,52.3,287.8,51.8z"/>
		<path class="st2" d="M237.6,46.7c0.3-1.3,0.8-2.7,1.4-3.9c1.2-2.6,2.1-3.7,3.3-4.6c0.1-0.1,0.3,0,0.2,0.2c-0.5,1-1,2.5-1.2,4.2
			c-0.6,4.1,2.6,7,4.4,8.4c0.4,0.3,0.9-0.1,0.8-0.5c-0.5-2.3-0.6-3.5,0.1-7.7c0.4-2.2,1.1-4.1,1.7-5.4c0.2-0.3,0.6-0.5,0.9-0.3
			c10.5,6.9,9.7,32.1,11,34.2c0.4,0.6,1.2,0.9,1.9,0.7l5.7-1.6c1.2-0.3,1.7-1.8,0.8-2.8c-1.3-1.5-5.5-24.8-16-32.5
			c-0.4-0.3-0.3-0.9,0.2-1.1c1.6-0.6,3.2-1,4.1-1c3-0.1,5.6,0.4,7.6,1c0.6,0.2,1.1-0.5,0.7-1c-1-1.4-2.7-3.4-5.7-4.5
			c-3.7-1.4-6.2-0.7-7.4-0.2c-0.2,0.1-0.4-0.1-0.3-0.3c0.5-0.8,1-1.8,3.4-2.9c2.5-1.2,4.6-1.4,6.2-1.4c0.6,0,0.9-0.7,0.4-1.1
			c-1-0.9-2.5-1.8-4.3-2.1c-4.5-0.9-8.3,0.8-11.1,5.9c-0.1,0.2-0.3,0.2-0.5,0.2c-0.2-0.1-0.3-0.2-0.4-1.3c0-0.5,0-1,0.1-1.4
			c0.1-0.5-0.4-0.9-0.9-0.8c-0.9,0.3-2.2,0.9-3.1,1.9c-1.9,2.1-2.1,4.1-0.4,6.3c0.2,0.3,0.1,0.6-0.2,0.8c-2,1-3.5,2.8-4,3.6
			c-2.6,3.7-1.5,8.7-0.5,11.1C236.8,47.3,237.5,47.2,237.6,46.7z"/>
		<path class="st2" d="M239.2,69.7c-0.4-3.4,12.2-10.3,24.5-10c11.3,0.3,23.4,6.6,22.9,10C285.7,76,240,76,239.2,69.7z"/>
	</g>
</g>
</svg>
