<?xml version="1.0" encoding="utf-8"?>
<!-- Generator: Adobe Illustrator 25.2.3, SVG Export Plug-In . SVG Version: 6.00 Build 0)  -->
<svg version="1.1" id="Layer_1" xmlns="http://www.w3.org/2000/svg" xmlns:xlink="http://www.w3.org/1999/xlink" x="0px" y="0px"
	 viewBox="0 0 241 145" style="enable-background:new 0 0 241 145;" xml:space="preserve">
<style type="text/css">
	.st0{fill:#ED1B30;}
	.st1{fill:#50000E;}
	.st2{fill:#FFFFFF;}
	.st3{fill:none;stroke:#50000E;stroke-width:2.8346;stroke-linecap:round;stroke-miterlimit:10;}
	.st4{fill:#9196CA;}
	.st5{fill:#FFF2EB;}
</style>
<g>
	<path class="st0" d="M134,48.9c16.5-15.2,17.5-40.1,17.5-40.1c-0.1-0.5,0-1.4-0.2-2.1C151,5.5,150,3.9,149,2.8
		c-1.5-1.7,1.1-2.7,1.6-1.9c1,0.6,6.2,5.4,6.2,5.4c13.4,29.3,4.7,35.7,4.7,35.7S124.4,57.7,134,48.9z"/>
	<g>
		<path class="st0" d="M52.5,58.2c0,0-0.2,22.6,6.2,36.9c0.7,2.1,6.5,4.5,8,3.2l-12.4-42C54.3,56.3,53.2,53.5,52.5,58.2z"/>
		<path class="st0" d="M68.5,102.7c0,0,24.8-5.5,69-23.4c0,0,80-31.1,102.9-68.7c0,0,1.8-4.4-3.6-5.2c0,0-24.1-7.2-67.5,14.1
			c-31.7,16.3-40.8,32.5-107,58.9C55.8,82.1,52,84.3,52,84.3s-27.4,16.2-23.7,19.9C33.6,109.5,60,104.2,68.5,102.7z"/>
		<path class="st0" d="M208.3,42c13.4-9.5,25.3-20.1,32.2-31.4c0,0,0-0.2,0.1-0.4c-6.6,4.6-13.1,9.4-18.1,15.7
			C217.7,31.9,213.7,37.5,208.3,42z"/>
		<path class="st0" d="M55.7,85.7c1.7-1.2,2.5-2.9,1.1-3.6c-4.4-2.4-24.6-13.2-37.4-16.3c-1.3-0.4-2.5-0.8-3.7-0.3
			c-1.4,0.6-3.2,1.6-4.1,3.4c-1.4,2.9,24.1,26.2,24.1,26.2S47.9,91.3,55.7,85.7z"/>
		<path class="st0" d="M3.6,113.7c0,0,21.1-0.5,37.5-7.8c2.3-1,4.2-3.8,2.9-6.3c-1.5-3.5-8-1.3-8-1.3L1.1,111.9
			C1.1,111.9-1.9,113.3,3.6,113.7z"/>
	</g>
	<path class="st0" d="M54.8,144.5"/>
	<path class="st1" d="M182.2,33.8l-2-3.7c-0.5-0.9-0.2-2.2,0.8-2.7l1.3-0.7c0.9-0.5,2.2-0.2,2.7,0.8l2,3.7c0.5,0.9,0.2,2.2-0.8,2.7
		l-1.3,0.7C183.9,35.1,182.7,34.7,182.2,33.8z"/>
	<path class="st1" d="M172.4,31.8c-0.9,0.6-1.2,1.8-0.7,2.7l2,3.6c0.5,1,1.7,1.3,2.7,0.8l1.3-0.7c1-0.5,1.3-1.7,0.8-2.7l-2-3.7
		c-0.5-1-1.7-1.3-2.7-0.8l-0.1,0.1C173.3,31.4,172.9,31.6,172.4,31.8z"/>
	<path class="st1" d="M165.2,36.1c-0.4,0.2-0.7,0.4-1.1,0.6c-0.9,0.6-1.2,1.7-0.7,2.7l1.7,3.1c0.5,1,1.7,1.3,2.7,0.8l1.1-0.6
		c1-0.5,1.3-1.7,0.8-2.7l-1.7-3.1C167.5,35.9,166.2,35.6,165.2,36.1z"/>
	<path class="st1" d="M157.4,40.8c-0.4,0.2-0.7,0.4-1.1,0.6c-1,0.5-1.3,1.7-0.8,2.7l1.4,2.5c0.5,1,1.7,1.3,2.7,0.8l1.1-0.6
		c1-0.5,1.3-1.7,0.8-2.7l-1.4-2.6C159.5,40.5,158.3,40.2,157.4,40.8z"/>
	<path class="st1" d="M149.4,45.1c-0.3,0.1-0.6,0.3-0.9,0.5c-1,0.5-1.3,1.7-0.8,2.7l1.2,2.1c0.5,1,1.7,1.3,2.7,0.8l0.9-0.5
		c1-0.5,1.3-1.7,0.8-2.7l-1.1-2C151.6,45,150.4,44.7,149.4,45.1z"/>
	<path class="st1" d="M141.4,49.6c-0.2,0.1-0.5,0.3-0.7,0.4c-1,0.5-1.3,1.7-0.8,2.7l1,1.8c0.5,1,1.7,1.3,2.7,0.8l0.7-0.4
		c1-0.5,1.3-1.7,0.8-2.7l-1-1.8C143.6,49.4,142.4,49.1,141.4,49.6z"/>
	<path class="st1" d="M133.4,53.9c-0.4,0.2-0.8,0.4-1.2,0.6c-0.9,0.5-1.2,1.5-0.7,2.4l0.9,1.7c0.5,0.9,1.6,1.2,2.4,0.7l1.2-0.6
		c0.9-0.5,1.2-1.6,0.7-2.4l-0.9-1.7C135.3,53.8,134.3,53.5,133.4,53.9z"/>
	<path class="st1" d="M125.9,57.8c-0.4,0.2-0.7,0.4-1.1,0.6c-0.8,0.5-1.2,1.5-0.7,2.4l0.9,1.5c0.5,0.9,1.6,1.2,2.4,0.7l1.1-0.6
		c0.9-0.5,1.2-1.6,0.7-2.4l-0.8-1.5C127.9,57.6,126.9,57.3,125.9,57.8z"/>
	<path class="st1" d="M118.4,61.7c-0.2,0.1-0.5,0.2-0.7,0.3c-0.8,0.4-1.2,1.5-0.7,2.4l0.7,1.2c0.5,0.9,1.6,1.2,2.4,0.7l0.7-0.4
		c0.9-0.5,1.2-1.6,0.7-2.4l-0.7-1.2C120.4,61.5,119.4,61.2,118.4,61.7z"/>
	<path class="st1" d="M111.8,64.9c-0.2,0.2-0.5,0.3-0.7,0.4c-0.9,0.4-1.3,1.5-0.8,2.4l0.6,1.2c0.5,0.9,1.6,1.2,2.4,0.7l0.7-0.4
		c0.9-0.5,1.2-1.6,0.7-2.4l-0.6-1.1C113.7,64.9,112.7,64.6,111.8,64.9z"/>
	<path class="st1" d="M105.7,67.8c-0.5,0.3-0.9,0.5-1.4,0.7c-0.6,0.3-0.8,1.1-0.5,1.7l1,1.8c0.3,0.6,1,0.8,1.6,0.5l1.3-0.7
		c0.6-0.3,0.8-1,0.5-1.6l-1-1.7C106.9,67.9,106.2,67.7,105.7,67.8z"/>
	<path class="st1" d="M99.2,70.9c-0.4,0.2-0.8,0.4-1.2,0.6c-0.6,0.3-0.8,1.1-0.5,1.7l1.1,2c0.3,0.6,1,0.8,1.6,0.5l1.2-0.6
		c0.6-0.3,0.8-1,0.5-1.6l-1.1-1.9C100.5,71,99.8,70.8,99.2,70.9z"/>
	<path class="st1" d="M92.7,74c-0.5,0.2-1,0.5-1.5,0.7c-0.6,0.3-0.8,1.1-0.5,1.7l0.9,1.7c0.3,0.6,1,0.8,1.6,0.5l1.5-0.8
		c0.6-0.3,0.8-1,0.5-1.6l-0.9-1.6C94,74.1,93.3,73.8,92.7,74z"/>
	<path class="st1" d="M85.9,77.2c-0.4,0.2-0.9,0.4-1.3,0.6c-0.7,0.3-0.9,1.1-0.6,1.7l0.9,1.6c0.3,0.6,1,0.8,1.6,0.5l1.3-0.7
		c0.6-0.3,0.8-1,0.5-1.6l-0.9-1.5C87.1,77.3,86.4,77,85.9,77.2z"/>
	<path class="st1" d="M79.9,79.9l-1.2,0.5c-0.7,0.3-0.9,1.1-0.6,1.7l0.8,1.5c0.3,0.6,1,0.8,1.6,0.5l1.1-0.6c0.6-0.3,0.8-1,0.5-1.6
		l-0.8-1.4C81,80,80.3,79.8,79.9,79.9z"/>
	<path class="st1" d="M73.7,82.6l-1.1,0.5c-0.7,0.3-0.9,1.1-0.6,1.7l0.7,1.2c0.3,0.6,1,0.8,1.6,0.5l1-0.6c0.6-0.3,0.8-1,0.5-1.6
		l-0.6-1.1C74.9,82.7,74.2,82.5,73.7,82.6z"/>
	<g>
		<path class="st1" d="M205.3,12.8c-0.2,0.1-0.2,0.4,0,0.5c1.3,0.8,5.2,3.6,6.8,5.2c0.1,0.2,0.3,0.1,0.4,0c3.3-4.5,6.1-7.4,8.4-9.4
			c0.1-0.2,0-0.5-0.2-0.5c-1.3-0.1-2.6-0.1-3.9-0.2c-1.9-0.1-3.6-0.2-5.3,0c-0.1,0-0.2,0.1-0.2,0.1C209.5,10,207.3,11.5,205.3,12.8z
			"/>
		<path class="st1" d="M223.1,7.2c2.1-1.4,3.6-2,4.6-2.6c0.1,0,0-0.2-0.1-0.2c-3.5-0.1-7.9,0.1-13.3,0.9c-0.1,0.1-0.1,0.1-0.1,0.1
			c-0.2,0.3-0.5,0.7-0.8,1c-0.1,0.1,0,0.2,0.1,0.2C215.3,6.6,221.3,6.9,223.1,7.2C223.1,7.3,223.1,7.2,223.1,7.2z"/>
		<path class="st1" d="M202.9,14.3c-3.4,2.1-6.1,3.9-5.7,4.5c1.2,1.7,2.5,3.4,3.8,5.1c0.2,0.3,0.4,0.5,0.6,0.8
			c1.4,1.9,2.5,3.4,5,1.7c0.6-0.4,1.3-1.2,2-2.2c0.9-1.2,1.7-2.6,2.5-3.8c0.1-0.2,0.1-0.4,0-0.5c-1.5-1.5-6.2-4.8-7.7-5.6
			C203.2,14.2,203.1,14.2,202.9,14.3z"/>
	</g>
	<path class="st2" d="M138.6,42.4c-19.4,11-33.3,18.8-48.1,25.7c-1.3,0.5-0.7,1.3,0.3,0.8c28.8-12.5,49-25,49-25
		C141,43.3,140.6,41.3,138.6,42.4z"/>
	<path class="st2" d="M35.6,75c-9.6-4.8-11.5-5.3-14.3-6.7c-1-0.6,0.2-1.1,1.2-0.6c4.9,1.9,8.7,3.7,13.8,6C43.8,77.1,48,79,48,79
		c2,1.2,0.5,2.8-1.4,1.6"/>
	<path class="st3" d="M45,101.4c58.8-13.9,119.6-41.9,157-65.6c33-22.3,32.2-29.7,32.2-29.7"/>
	<rect x="196" y="35.3" transform="matrix(0.809 -0.5878 0.5878 0.809 15.5237 124.2675)" class="st0" width="5.9" height="5.9"/>
	<path class="st0" d="M127.9,89.2c-24.1,2.2-31.4,6.7-33.7,9.2c-1.3,1.5-0.9,2.8-0.8,3.3c2.9,11,39.5,3.5,39.5,3.5L127.9,89.2z"/>
	<path class="st0" d="M143.1,77.1l-44,37.5l-41.7,26.6c0,0-1.9,1.9-2,1.9c-9.2-3-9.7-6.2-9.7-6.2s-0.3-0.8,0.7-1.4
		c0.7-0.4,1.3,0,1.8,0.4c3.1,2.2,4.6,2.3,5.6,2.5c54.7-44.5,56.1-54.5,56.1-54.5c7.2-6.9,16.2-10.9,27-15c4.1-1.4,8.1-0.9,9.9,1.6
		C149.6,74.7,143.2,77.2,143.1,77.1z"/>
	<path class="st1" d="M46.2,136.8c-0.4,0.4-0.2,0.7,0,1c0.8,1.1,2.9,3.2,8.6,5.1c2.5,1,2.8,0.3,4.4-0.7
		c50.2-30.4,85.7-63.2,85.7-63.2s4.7-4.7,2.1-8.5c-16.3,16.5-35.7,37.2-90.5,70.6c-4.9-1.3-7.6-2.9-9.1-4.5
		C47,136.2,46.5,136.4,46.2,136.8z"/>
	<g>
		<g>
			<path class="st0" d="M127.7,89.1c3.3-0.9,7,2.1,8.2,6.6s-0.6,8.9-3.9,9.8c-3.3,0.9-7-2.1-8.2-6.6C122.6,94.4,124.4,90,127.7,89.1
				z"/>
			<path class="st4" d="M128.6,90.7c2.7-0.7,5.5,1.7,6.5,5.3c1,3.6-0.4,7.1-3,7.8c-2.6,0.7-5.5-1.7-6.5-5.3
				C124.6,94.8,126,91.3,128.6,90.7z"/>
			<path class="st5" d="M126.7,96.2c-0.5,0.3-1,0.5-1.5,0.8c0.1,0.7,0.3,1.3,0.6,2c0.3,0.6,0.6,1.3,1,1.8c0.5-0.1,1-0.3,1.6-0.5
				c2.5-1,4.2-2.8,3.7-3.9S129.2,95.2,126.7,96.2z"/>
		</g>
	</g>
</g>
</svg>
