<?xml version="1.0" encoding="utf-8"?>
<!-- Generator: Adobe Illustrator 25.2.3, SVG Export Plug-In . SVG Version: 6.00 Build 0)  -->
<svg version="1.1" id="Layer_1" xmlns="http://www.w3.org/2000/svg" xmlns:xlink="http://www.w3.org/1999/xlink" x="0px" y="0px"
	 viewBox="0 0 300 150.8" style="enable-background:new 0 0 300 150.8;" xml:space="preserve">
<style type="text/css">
	.st0{fill:#EC1C24;}
	.st1{fill:#FFFFFF;}
</style>
<g>
	<path class="st0" d="M1.2,7.1h25.1c6.1,0,10.5,2.1,10.5,7.6v0.1c0,3.9-1.8,5.7-5.8,7v1c4.6,0.8,6.9,3.4,6.9,7.4v0.1
		c0,6.1-4.7,7.5-11,7.5H1.2V7.1z M24.6,17.3L24.6,17.3c0-1.7-0.8-2.3-2.8-2.3h-7.5v4.6H22C23.9,19.6,24.6,18.9,24.6,17.3z
		 M24.9,27.5v-0.2c0-1.6-0.8-2.3-2.8-2.3h-7.7v4.8h7.5C24.1,29.9,24.9,29.2,24.9,27.5z"/>
	<path class="st0" d="M41.9,7.1H55v9.7h11.4c6.9,0,11.6,3.2,11.6,10.4v0.1c0,7-4.7,10.4-11.6,10.4H41.9V7.1z M64.9,26.6v-0.2
		c0-1.7-0.8-2.4-3.1-2.4H55v5h6.6C64.1,29,64.9,28.3,64.9,26.6z M81.9,7.1H95v30.6H81.9V7.1z"/>
	<path class="st0" d="M125.8,37.7v-6.1c0-4.7,0.2-8.7,0.8-13.5l-1,0c-2.2,7.6-4,13.9-5.5,19.7h-19.9V7.1h12.9v6.1
		c0,4.7-0.2,8.7-0.8,13.5l1,0c1.9-6.8,3.6-13.2,4.8-19.7h20.5v30.6H125.8z"/>
	<path class="st0" d="M144,7.1h29.3V18h-16.2v19.7H144V7.1z"/>
	<path class="st0" d="M177.2,7.1h23.7c8,0,11.8,3,11.8,11.8V19c0,8.8-3.8,12.2-12,12.2h-0.2c-6.2,0-8.4-1.9-9.8-4.4l-0.9,0.3
		c0.5,2.5,0.6,3.3,0.6,6.3v4.4h-13.1V7.1z M195.5,23.6c3.9,0,4.8-1.2,4.8-3.8v-0.1c0-2.6-0.9-3.8-4.8-3.8h-5.1V20
		C190.3,22.4,191.5,23.6,195.5,23.6z"/>
	<path class="st0" d="M223.9,7.1h17.8l13.5,30.6h-13.9l-0.6-1.4c-1.1-2.8-3.2-3.8-8-3.8c-4.7,0-6.8,1-8,3.8l-0.6,1.4h-13.9
		L223.9,7.1z M236.4,25c-0.7-1.8-2.1-5-3.1-7.6h-1c-1.2,3-2.4,5.9-3.2,7.6c-0.5,1.1-0.9,1.7-1.3,2.3l0.8,0.4
		C230.8,25.2,233.1,24.4,236.4,25z"/>
	<path class="st0" d="M284.2,37.7v-6.1c0-4.7,0.2-8.7,0.8-13.5l-1,0c-2.2,7.6-4,13.9-5.5,19.7h-19.9V7.1h12.9v6.1
		c0,4.7-0.2,8.7-0.8,13.5l1,0c1.9-6.8,3.6-13.2,4.8-19.7h20.5v30.6H284.2z M265.9,0H276c0,1.3,0.7,1.9,1.9,1.9s1.9-0.6,1.9-1.9h10.1
		c0,3.6-2.1,5.4-12,5.4C268,5.4,265.9,3.6,265.9,0z"/>
	<path class="st0" d="M0,59.9L0,59.9c0-9,5.8-13.9,17.1-13.9c12,0,16.7,5.3,16.7,10.9c0,0.7-0.1,1.2-0.2,1.6L22,58.9
		c0-0.2,0.1-0.5,0.1-0.9c0-2.3-1.6-4-5-4c-3.5,0-5.3,1.6-5.3,5.7v0.4c0,4.2,1.8,5.7,5.3,5.7c3.3,0,5.1-1.3,5.1-4.5v-0.2h11.7v0.1
		c0,8.1-5.6,12.5-16.9,12.5S0,68.9,0,59.9z"/>
	<path class="st0" d="M37.4,46.7h20.5c7,0,10.2,2.6,10.2,10.2V57c0,7.6-3.3,10.5-10.4,10.5h-0.2c-5.4,0-7.3-1.6-8.5-3.8L48.2,64
		c0.5,2.2,0.5,2.9,0.5,5.4v3.8H37.4V46.7z M53.1,60.9c3.4,0,4.1-1,4.1-3.3v-0.1c0-2.3-0.7-3.3-4.1-3.3h-4.4v3.6
		C48.7,59.9,49.8,60.9,53.1,60.9z"/>
	<path class="st0" d="M77.7,46.7h15.4l11.7,26.5H92.8l-0.5-1.2c-1-2.4-2.8-3.3-6.9-3.3c-4.1,0-5.9,0.9-6.9,3.3l-0.5,1.2H66
		L77.7,46.7z M88.5,62.1c-0.6-1.6-1.8-4.3-2.7-6.6H85c-1,2.6-2,5.1-2.8,6.6c-0.5,1-0.8,1.5-1.1,2l0.7,0.3
		C83.7,62.3,85.7,61.6,88.5,62.1z"/>
	<path class="st0" d="M107,65.2c0-1,0.1-1.6,0.3-2.3l10.4-0.4c-0.1,0.5-0.1,0.8-0.1,1.2c0,1.7,1.1,2.6,4.3,2.6
		c3.2,0,4.3-0.7,4.3-2.1v-0.1c0-1.4-1.1-1.9-4.6-1.9h-2.3v-5h2.5c3.3,0,4.2-0.6,4.2-1.8v-0.1c0-1.4-1.2-1.9-4.3-1.9
		c-3.1,0-4.2,0.5-4.2,2.5c0,0.3,0,0.5,0.1,0.8l-10.3,0.4c-0.2-0.8-0.4-1.6-0.4-2.7c0-5,3.2-8.3,15-8.3c8.9,0,14.6,2.2,14.6,7.6v0.1
		c0,3.1-1.9,4.9-5.6,6v0.9c4.1,0.7,6.1,2.4,6.1,5.8v0.1c0,5.9-6.3,7.2-14.8,7.2C110.3,73.7,107,70.3,107,65.2z"/>
	<path class="st0" d="M139.9,68.3c0-0.5,0.1-0.9,0.2-1.3l10.6-0.4c0,0.1,0,0.3,0,0.5c0,0.9,0.5,1.2,1.5,1.2c1.1,0,1.6-0.3,1.9-1.6
		l0.3-0.9h-0.7c-6.8,0-8.5-1.9-10.3-7.2l-4-11.9h12.4c1.3,3.8,2.6,8.5,4,12.3h0.8c1.3-3.8,2.6-8.5,4-12.3h12.1L166,65.2
		c-2,5.8-5.7,8.5-14.7,8.5C143.6,73.7,139.9,71.6,139.9,68.3z"/>
	<path class="st0" d="M184.3,64.1h2.4c1.5,0,1.9-0.6,1.9-2.3l0.3-15.1h30.2v17.4h3.6v13.2h-12.9v-4.2h-12.7v4.2h-12.9V64.1z
		 M207.7,64.1v-8.3h-7.7l-0.1,3.5c-0.1,2.6-0.8,3.6-2.8,4v0.9H207.7z"/>
	<path class="st0" d="M226.4,46.7h21.8c5.3,0,9.1,1.8,9.1,6.6v0.1c0,3.4-1.6,4.9-5,6v0.9c4,0.7,5.9,2.9,5.9,6.4v0.1
		c0,5.3-4.1,6.5-9.5,6.5h-22.3V46.7z M246.7,55.5L246.7,55.5c0-1.5-0.7-2-2.5-2h-6.5v4h6.7C246,57.4,246.7,56.9,246.7,55.5z
		 M246.8,64.3v-0.2c0-1.4-0.7-2-2.5-2h-6.7v4.2h6.5C246.2,66.3,246.8,65.7,246.8,64.3z"/>
	<path class="st0" d="M271,46.7h15.4l11.7,26.5H286l-0.5-1.2c-1-2.4-2.8-3.3-6.9-3.3c-4.1,0-5.9,0.9-6.9,3.3l-0.5,1.2h-12.1
		L271,46.7z M281.8,62.1c-0.6-1.6-1.8-4.3-2.7-6.6h-0.9c-1,2.6-2,5.1-2.8,6.6c-0.5,1-0.8,1.5-1.1,2l0.7,0.3
		C276.9,62.3,279,61.6,281.8,62.1z"/>
	<path class="st1" d="M0.3,83.5h24.5v19.9h-8.5V90.6H8.8v12.8H0.3V83.5z"/>
	<path class="st1" d="M27.7,99.8c0-0.4,0.1-0.7,0.1-1l7.9-0.3c0,0.1,0,0.2,0,0.3c0,0.7,0.4,0.9,1.1,0.9c0.8,0,1.2-0.2,1.5-1.2
		l0.2-0.7H38c-5.1,0-6.4-1.4-7.7-5.4l-3-8.9h9.3c1,2.8,2,6.4,3,9.2h0.6c1-2.8,2-6.4,3-9.2h9.1l-4.9,13.9c-1.5,4.3-4.2,6.4-11,6.4
		C30.5,103.8,27.7,102.2,27.7,99.8z"/>
	<path class="st1" d="M61.1,90.6h-7.7v-7.1h23.8v7.1h-7.7v12.8h-8.5V90.6z"/>
	<path class="st1" d="M79.8,83.5h20.7v6.2H88.3v1.7h11.4v3.9H88.3v1.8h12.2v6.2H79.8V83.5z"/>
	<path class="st1" d="M103.4,83.5h8.5v12.8h6.5V83.5h8.5v12.8h6.5V83.5h8.5v19.9h-38.6V83.5z"/>
	<path class="st1" d="M145.3,83.5H166v6.2h-12.2v1.7h11.4v3.9h-11.4v1.8H166v6.2h-20.7V83.5z"/>
	<path class="st1" d="M168.3,93.5L168.3,93.5c0-6.8,4.3-10.4,12.8-10.4c9,0,12.5,4,12.5,8.1c0,0.5-0.1,0.9-0.1,1.2l-8.6,0.3
		c0-0.2,0.1-0.4,0.1-0.7c0-1.7-1.2-3-3.8-3c-2.6,0-4,1.2-4,4.3v0.3c0,3.1,1.4,4.3,3.9,4.3c2.5,0,3.8-1,3.8-3.4v-0.1h8.8v0.1
		c0,6-4.2,9.4-12.7,9.4C172.4,103.8,168.3,100.2,168.3,93.5z"/>
	<path class="st1" d="M203.1,90.6h-7.7v-7.1h23.8v7.1h-7.7v12.8h-8.5V90.6z"/>
	<path class="st1" d="M221.8,83.5h16.3c4,0,6.8,1.3,6.8,5v0.1c0,2.6-1.2,3.7-3.7,4.5v0.7c3,0.5,4.5,2.2,4.5,4.8v0.1
		c0,4-3.1,4.9-7.1,4.9h-16.7V83.5z M237,90.1L237,90.1c0-1.1-0.5-1.5-1.8-1.5h-4.8v3h5C236.5,91.6,237,91.2,237,90.1z M237.1,96.8
		v-0.1c0-1.1-0.5-1.5-1.8-1.5h-5v3.1h4.8C236.6,98.3,237.1,97.8,237.1,96.8z"/>
	<path class="st1" d="M264.8,103.4v-4c0-3.1,0.2-5.7,0.5-8.8l-0.7,0c-1.4,4.9-2.6,9-3.5,12.8h-12.9V83.5h8.4v4
		c0,3.1-0.2,5.7-0.5,8.8l0.7,0c1.2-4.4,2.3-8.5,3.1-12.8h13.3v19.9H264.8z"/>
	<path class="st1" d="M291.1,97.9h-2.7l-3.3,5.5h-9.7l5.3-7.7v-0.7c-2.4-0.4-4.6-2.1-4.6-5.7v-0.1c0-3.4,2.1-5.8,6.6-5.8h16.9v19.9
		h-8.5V97.9z M285.9,92.8h5.2v-3.6h-5.2c-1.3,0-1.8,0.5-1.8,1.7v0.2C284,92.3,284.6,92.8,285.9,92.8z"/>
	<path class="st1" d="M1.8,113.3h26.1c1.2,8,2.8,14.2,4.5,22.3h1.2c1.7-8.1,3.2-14.2,4.5-22.3h26V151H48.2v-7.5
		c0-5.8,0.2-10.7,0.7-16.6l-1.2-0.1c-2.4,9.3-4.3,17.1-6,24.2H24.1c-1.7-7.1-3.5-14.9-5.9-24.2l-1.2,0.1c0.5,5.9,0.7,10.8,0.7,16.6
		v7.5H1.8V113.3z"/>
	<path class="st1" d="M70.5,113.3h39.2v11.8H86.6v3.2h21.7v7.4H86.6v3.3h23.1V151H70.5V113.3z"/>
	<path class="st1" d="M142.3,137.4l-1.2-0.1c-2.5,2.9-5.8,5.2-13.1,5.2c-10.3,0-13.2-5.1-13.2-14.3v-14.9h16.1v11
		c0,4.3,1.3,6.3,5.1,6.3c3.2,0,5.2-1.5,6.3-3.2v-14h16.1V151h-16.1V137.4z"/>
	<path class="st1" d="M177.8,126.8h-14.5v-13.5h45.1v13.5h-14.5V151h-16.1V126.8z"/>
	<path class="st1" d="M213.3,113.3h16.1v11.9h14c8.5,0,14.3,4,14.3,12.8v0.1c0,8.7-5.8,12.8-14.3,12.8h-30.1V113.3z M241.5,137.2
		V137c0-2.1-1-3-3.8-3h-8.4v6.2h8.1C240.5,140.2,241.5,139.3,241.5,137.2z M262.5,113.3h16.1V151h-16.1V113.3z"/>
	<path class="st1" d="M283.6,113.3H300l-2.1,23.6h-12.1L283.6,113.3z M283.7,138.9h16.1V151h-16.1V138.9z"/>
</g>
</svg>
